<svg id="Capa_1" data-name="Capa 1" xmlns="http://www.w3.org/2000/svg" viewBox="0 0 888.408 320.17"><defs><style>.cls-1{fill:#a992c4;}.cls-2{font-size:160.227px;fill:#fff;font-family:UbuntuMono-Bold, Ubuntu Mono;font-weight:700;}.cls-3,.cls-4{fill:#f9b66d;}.cls-3{letter-spacing:0em;}.cls-4{letter-spacing:0em;}</style></defs><title>LOGOSin título-1</title><path class="cls-1" d="M95.329,213.689l2.218,44.416c1.343,24.436,8,31.543,23.546,31.543H128.2v39.994H103.328c-27.543,0-47.089-15.558-49.321-49.32L50.46,220.8c-1.329-20.45-5.78-26.668-24.436-26.668v-39.98c18.656,0,23.107-6.218,24.436-26.652l3.547-59.539C56.239,34.2,75.785,18.65,103.329,18.65H128.2V58.63h-7.108c-15.546,0-22.2,7.11-23.546,31.543L95.329,134.6c-.89,16.436-6.218,33.762-28.872,39.541C89.111,179.913,94.439,197.239,95.329,213.689Z" transform="translate(-26.024 -18.65)"/><text class="cls-2" transform="translate(132.127 141.861)">el<tspan class="cls-3" x="160.227" y="0">último</tspan><tspan x="0" y="151.071">&amp;</tspan><tspan x="80.113" y="151.071">me</tspan><tspan class="cls-4" x="240.34" y="151.071">voy;</tspan></text><path class="cls-1" d="M845.128,139.6,842.91,95.187c-1.343-24.435-8-31.543-23.546-31.543h-7.108V23.65h24.873c27.543,0,47.089,15.559,49.321,49.32L890,132.5c1.329,20.449,5.779,26.667,24.435,26.667v39.98c-18.656,0-23.106,6.218-24.435,26.652l-3.547,59.539c-2.232,33.762-21.778,49.308-49.322,49.308H812.256v-39.98h7.108c15.546,0,22.2-7.109,23.545-31.543l2.219-44.432c.89-16.436,6.218-33.762,28.872-39.541C851.346,173.379,846.018,156.053,845.128,139.6Z" transform="translate(-26.024 -18.65)"/></svg>