<?xml version="1.0" encoding="utf-8"?>
<!-- Generator: Adobe Illustrator 23.0.1, SVG Export Plug-In . SVG Version: 6.00 Build 0)  -->
<svg version="1.1" id="Capa_1" xmlns="http://www.w3.org/2000/svg" xmlns:xlink="http://www.w3.org/1999/xlink" x="0px" y="0px"
	 viewBox="0 0 100 60" style="enable-background:new 0 0 100 60;" xml:space="preserve">
<style type="text/css">
	.st0{fill:#243F9C;}
	.st1{fill:#FCEC00;}
</style>
<g>
	<rect x="1.1" y="1.5" class="st0" width="97.7" height="57.2"/>
	<g>
		<polygon class="st1" points="50,45 50.7,47 52.7,47 51.3,48.1 51.7,50.3 50,49 48.3,50.2 48.7,48.1 47.3,47 49.3,47 		"/>
		<polygon class="st1" points="50,10.1 50.7,12.1 52.7,12.1 51.3,13.2 51.7,15.4 50,14.2 48.3,15.4 48.7,13.2 47.3,12.1 49.3,12.1 
					"/>
		<polygon class="st1" points="58.4,12.4 59.1,14.4 61.1,14.4 59.7,15.5 60.1,17.6 58.4,16.4 56.7,17.6 57.1,15.5 55.7,14.4 
			57.7,14.4 		"/>
		<polygon class="st1" points="41.2,12.4 41.9,14.4 43.9,14.4 42.5,15.5 42.9,17.6 41.2,16.4 39.5,17.6 39.9,15.5 38.4,14.4 
			40.5,14.4 		"/>
		<polygon class="st1" points="58.4,42.6 59.1,44.6 61.1,44.6 59.7,45.8 60.1,47.9 58.4,46.7 56.7,47.9 57.1,45.8 55.7,44.6 
			57.7,44.6 		"/>
		<polygon class="st1" points="41.2,42.6 41.9,44.6 43.9,44.6 42.5,45.8 42.9,47.9 41.2,46.7 39.5,47.9 39.9,45.8 38.4,44.6 
			40.5,44.6 		"/>
		<polygon class="st1" points="34.7,18.9 35.4,21 37.5,20.9 36,22.1 36.4,24.2 34.7,23 33.1,24.2 33.5,22.1 32,20.9 34.1,20.9 		"/>
		<polygon class="st1" points="65,18.9 65.7,21 67.8,20.9 66.3,22.1 66.7,24.2 65,23 63.3,24.2 63.8,22.1 62.3,20.9 64.4,20.9 		"/>
		<polygon class="st1" points="34.7,36.4 35.4,38.4 37.5,38.4 36,39.5 36.4,41.6 34.7,40.4 33.1,41.6 33.5,39.5 32,38.3 34.1,38.3 
					"/>
		<polygon class="st1" points="65,36.4 65.7,38.4 67.8,38.4 66.3,39.5 66.7,41.6 65,40.4 63.3,41.6 63.8,39.5 62.3,38.3 64.4,38.3 
					"/>
		<polygon class="st1" points="32.7,27.6 33.4,29.6 35.5,29.6 34,30.7 34.4,32.9 32.7,31.6 31.1,32.8 31.5,30.7 30,29.6 32.1,29.6 
					"/>
		<polygon class="st1" points="67.2,27.6 67.9,29.6 70,29.6 68.5,30.7 68.9,32.9 67.2,31.6 65.6,32.8 66,30.7 64.5,29.6 66.6,29.6 
					"/>
	</g>
</g>
</svg>
