<svg id="a7c76a9d-1f9c-4a1e-bf48-9a5162401c8e" data-name="Capa 1" xmlns="http://www.w3.org/2000/svg" viewBox="0 0 492.676 487.46">
  <defs>
    <style>
      .bc55aa1e-eb00-4efe-84f3-bd66592b7267 {
        fill: #5a73a6;
      }

      .ed2378af-08e0-45de-95da-e75dbe3d0756 {
        fill: #41455a;
      }

      .b5d9db42-66f5-4bf6-88b2-b9d341adad77 {
        fill: #39e9fd;
      }

      .ac9a4cf7-85e7-4c9d-a501-be840da07e3e, .f7913ef3-f85c-4b31-95ce-5aa62b04ee20 {
        fill: #d268cc;
      }

      .afd5f77a-c9b6-4e0e-8deb-71aa7d83beb0 {
        fill: #853500;
        opacity: 0.6;
      }

      .ac999a29-755f-49bd-b9d4-4a46b0407fb9 {
        fill: #ffb867;
        opacity: 0.8;
      }

      .b5e08077-7370-4bba-8556-02e9d02a1a49, .bbd0a5b0-af3c-4c98-bcf8-b9f4c1059892, .be9d5092-9ba6-4675-aa2b-dfa590278a58, .f7913ef3-f85c-4b31-95ce-5aa62b04ee20 {
        opacity: 0.2;
      }

      .e9dfdc76-43fd-40ed-995a-72e7b1f40554 {
        fill: #f0f0f0;
      }

      .fba54fd6-d934-4aab-b2c4-78794f4ff3bc {
        opacity: 0.1;
      }

      .a95eaeca-229d-473e-a7f0-6e62cfc36f41, .b8b7b9af-008f-4e98-979a-bc77556fa25d, .bbd0a5b0-af3c-4c98-bcf8-b9f4c1059892, .ebda180b-12b9-480f-9238-db26af0a5d6e {
        fill: #fff;
      }

      .a18ee1e8-b6b3-4dce-917b-0832378a17f5 {
        fill: #e1e1e1;
      }

      .b8ffbca4-5df2-4e6e-90cd-28768b1a7f1d {
        fill: #ececec;
      }

      .a99946ef-0568-41fa-8da3-8674009c0935 {
        fill: #fafafa;
      }

      .e88f605c-f165-4bd1-92de-d1fc5067a442, .f94fbe06-b2eb-4c26-9120-2e38aa003739 {
        fill: #ff5454;
      }

      .a95eaeca-229d-473e-a7f0-6e62cfc36f41, .e88f605c-f165-4bd1-92de-d1fc5067a442 {
        opacity: 0.5;
      }

      .edf2e635-8cb2-450a-8d66-45d64ceb9101 {
        opacity: 0.15;
      }

      .bce947fc-d6ef-4667-8dac-b203db49d1a4 {
        fill: #e7e7e7;
      }

      .e585b9fa-ffc9-4422-aebe-8b26629a1e1a {
        opacity: 0.25;
      }

      .a785c22f-a804-40a7-ac64-67605c3c4ebc {
        fill: #005321;
      }

      .bccf8ce9-4823-4e4b-99de-f9d7095d69ee {
        fill: #00f972;
      }

      .b66cc860-dff4-479b-bfae-1702da912165 {
        fill: #f8b66d;
      }

      .ecb83e76-089b-45e1-8df7-790bd2c361b2 {
        fill: #7bbb65;
      }

      .e5ac8ac5-ccaa-4f3a-a3de-75779c1a2674 {
        fill: #87aa4a;
      }

      .bcddbdac-a7de-41b4-b520-fd4fc623eb12 {
        fill: #99d5ec;
      }

      .e3b927cd-d7cd-4b2f-8a64-b0a0b1a1c9d0 {
        fill: #a890c3;
      }

      .a223d999-6764-4dfd-9615-87472dc511ae {
        fill: #e67daf;
      }

      .a396d744-df0e-4a8d-849f-70b5dec28a7a, .aa589885-61d5-4f7a-88b6-f58983ad120a, .b5e08077-7370-4bba-8556-02e9d02a1a49, .f0246eb1-f7a8-461b-b0bc-463f62a6ff7c {
        fill: none;
      }

      .aa589885-61d5-4f7a-88b6-f58983ad120a, .ebda180b-12b9-480f-9238-db26af0a5d6e, .f0246eb1-f7a8-461b-b0bc-463f62a6ff7c {
        stroke: #1a2e35;
      }

      .aa589885-61d5-4f7a-88b6-f58983ad120a, .b5e08077-7370-4bba-8556-02e9d02a1a49, .ebda180b-12b9-480f-9238-db26af0a5d6e, .f0246eb1-f7a8-461b-b0bc-463f62a6ff7c {
        stroke-linecap: round;
        stroke-linejoin: round;
      }

      .b5e08077-7370-4bba-8556-02e9d02a1a49, .ebda180b-12b9-480f-9238-db26af0a5d6e, .f0246eb1-f7a8-461b-b0bc-463f62a6ff7c {
        stroke-width: 1.43px;
      }

      .a3e7c60d-dead-46a0-be19-5bc23e3a336c {
        fill: #1a2e35;
      }

      .aa589885-61d5-4f7a-88b6-f58983ad120a {
        stroke-width: 2.861px;
      }

      .b5e08077-7370-4bba-8556-02e9d02a1a49 {
        stroke: #fff;
      }

      .a396d744-df0e-4a8d-849f-70b5dec28a7a {
        stroke: #44475a;
        stroke-miterlimit: 10;
      }
    </style>
  </defs>
  <title>footerCafe</title>
  <g>
    <ellipse id="a5a51fa7-5c20-4c8e-8a98-9a973df401db" data-name="Floor" class="bc55aa1e-eb00-4efe-84f3-bd66592b7267" cx="246.338" cy="345.236" rx="246.338" ry="142.223"/>
    <path id="e497863b-8b64-41e2-8c09-cb8cd67a3592" data-name="Shadow" class="ed2378af-08e0-45de-95da-e75dbe3d0756" d="M349.815,317.659c-24.147,13.94-24.147,36.543,0,50.486s63.3,13.941,87.444,0,24.148-36.545,0-50.486S373.962,303.717,349.815,317.659Z" transform="translate(-32.662 -61.762)"/>
    <path id="e7e6e995-493c-470f-b100-3d1b38ed8e97" data-name="Shadow" class="ed2378af-08e0-45de-95da-e75dbe3d0756" d="M383.712,416.635c-14.519,8.382-14.519,21.973,0,30.357s38.061,8.382,52.58,0,14.52-21.974,0-30.357S398.231,408.252,383.712,416.635Z" transform="translate(-32.662 -61.762)"/>
    <path id="b7ebf430-ab4f-4099-b75f-bfca0f5b15df" data-name="Shadow" class="ed2378af-08e0-45de-95da-e75dbe3d0756" d="M426.8,397.52c-14.519,8.383-14.519,21.974,0,30.357s38.061,8.383,52.579,0,14.52-21.974,0-30.357S441.316,389.137,426.8,397.52Z" transform="translate(-32.662 -61.762)"/>
    <path class="b5d9db42-66f5-4bf6-88b2-b9d341adad77" d="M395.492,310.7a4.319,4.319,0,0,0-3.908,0,1.375,1.375,0,0,0-.809,1.128l.81,56.324h0a.978.978,0,0,0,.569.779,3.055,3.055,0,0,0,2.762,0,.978.978,0,0,0,.569-.779h0l.809-56.323A1.371,1.371,0,0,0,395.492,310.7Zm-40.138-4.93a4.313,4.313,0,0,0-3.907,0,1.159,1.159,0,0,0-.65,1.129l-5.4,42.167h0a1.179,1.179,0,0,0,.678.778,3.052,3.052,0,0,0,2.762,0,.825.825,0,0,0,.46-.778h0l7.023-42.168A1.658,1.658,0,0,0,355.354,305.769Zm80.084,1.129a1.159,1.159,0,0,0-.65-1.129,4.313,4.313,0,0,0-3.907,0,1.655,1.655,0,0,0-.968,1.128l7.022,42.168h0a.824.824,0,0,0,.459.778,3.054,3.054,0,0,0,2.763,0,1.181,1.181,0,0,0,.678-.778h0Z" transform="translate(-32.662 -61.762)"/>
    <g>
      <path class="ac9a4cf7-85e7-4c9d-a501-be840da07e3e" d="M455.428,285.1h-.057c.009-9.145-5.984-18.288-18.072-25.266-24.167-13.954-63.356-13.954-87.524,0-12.086,6.978-18.079,16.121-18.069,25.266h-.058v4.91h0c.145,9.026,6.2,18.023,18.127,24.91,24.17,13.954,63.358,13.954,87.525,0,11.93-6.886,17.984-15.884,18.128-24.91h0Z" transform="translate(-32.662 -61.762)"/>
      <path class="afd5f77a-c9b6-4e0e-8deb-71aa7d83beb0" d="M455.428,285.1h-.057c.009-9.145-5.984-18.288-18.072-25.266-24.167-13.954-63.356-13.954-87.524,0-12.086,6.978-18.079,16.121-18.069,25.266h-.058v4.91h0c.145,9.026,6.2,18.023,18.127,24.91,24.17,13.954,63.358,13.954,87.525,0,11.93-6.886,17.984-15.884,18.128-24.91h0Z" transform="translate(-32.662 -61.762)"/>
      <path class="ac9a4cf7-85e7-4c9d-a501-be840da07e3e" d="M349.775,259.829c-24.169,13.954-24.169,36.578,0,50.533s63.357,13.954,87.525,0,24.169-36.578,0-50.533S373.944,245.875,349.775,259.829Z" transform="translate(-32.662 -61.762)"/>
      <path class="ac999a29-755f-49bd-b9d4-4a46b0407fb9" d="M349.775,259.829c-24.169,13.954-24.169,36.578,0,50.533s63.357,13.954,87.525,0,24.169-36.578,0-50.533S373.944,245.875,349.775,259.829Z" transform="translate(-32.662 -61.762)"/>
    </g>
    <ellipse id="b71fcf7f-4086-40cb-8704-9879e91a5b4f" data-name="Shadow" class="f7913ef3-f85c-4b31-95ce-5aa62b04ee20" cx="369.077" cy="212.468" rx="32.251" ry="18.62"/>
    <g id="ab115bad-bf31-4c4a-b466-e9500ecd870d" data-name="Plate">
      <g>
        <path class="e9dfdc76-43fd-40ed-995a-72e7b1f40554" d="M423.654,258.583c-12.1-6.988-31.726-6.988-43.829,0-6.052,3.494-9.077,8.073-9.077,12.652v1.3c0,4.579,3.025,9.158,9.077,12.652,12.1,6.988,31.726,6.988,43.829,0,6.052-3.494,9.077-8.073,9.076-12.652V271.25C432.737,266.666,429.712,262.081,423.654,258.583Z" transform="translate(-32.662 -61.762)"/>
        <path class="fba54fd6-d934-4aab-b2c4-78794f4ff3bc" d="M391.45,288.118V254.353a38.749,38.749,0,0,0-11.625,4.23c-6.052,3.494-9.077,8.073-9.077,12.652v1.3c0,4.579,3.025,9.158,9.077,12.652a40.439,40.439,0,0,0,14.214,4.681C391.591,289.439,391.45,288.118,391.45,288.118Z" transform="translate(-32.662 -61.762)"/>
      </g>
      <path class="b8b7b9af-008f-4e98-979a-bc77556fa25d" d="M423.654,258.583c-12.1-6.988-31.727-6.988-43.829,0s-12.1,18.317,0,25.3,31.726,6.987,43.829,0S435.757,265.571,423.654,258.583Z" transform="translate(-32.662 -61.762)"/>
      <g>
        <path class="e9dfdc76-43fd-40ed-995a-72e7b1f40554" d="M417.79,262.618c-8.865-5.118-23.237-5.118-32.1,0s-8.865,13.416,0,18.533,23.236,5.119,32.1,0S426.654,267.736,417.79,262.618Z" transform="translate(-32.662 -61.762)"/>
        <path class="b8b7b9af-008f-4e98-979a-bc77556fa25d" d="M415.8,264.647c-7.767-4.485-20.36-4.485-28.127,0s-7.767,11.755,0,16.239,20.36,4.484,28.127,0S423.57,269.131,415.8,264.647Z" transform="translate(-32.662 -61.762)"/>
      </g>
      <path class="b8b7b9af-008f-4e98-979a-bc77556fa25d" d="M379.644,282.855a36.654,36.654,0,0,0,8.134,3.08,49.669,49.669,0,0,0,8.573,1.382,56.327,56.327,0,0,0,8.675-.026,51.53,51.53,0,0,0,8.55-1.392,37.891,37.891,0,0,0,8.1-2.987,21.854,21.854,0,0,0,6.794-5.177,12.586,12.586,0,0,0,2.18-3.647,9.825,9.825,0,0,0,.635-4.187,10.574,10.574,0,0,0-1.157-4.118,13.494,13.494,0,0,0-1.139-1.846,16.493,16.493,0,0,0-1.393-1.677,16.277,16.277,0,0,1,1.493,1.6,13.632,13.632,0,0,1,1.233,1.818,10.867,10.867,0,0,1,1.368,4.187,10.3,10.3,0,0,1-.529,4.406,13.088,13.088,0,0,1-2.193,3.872,18.315,18.315,0,0,1-3.2,3.081,26.476,26.476,0,0,1-3.737,2.375,38.094,38.094,0,0,1-8.256,3.083,52.264,52.264,0,0,1-17.477,1.256,46.411,46.411,0,0,1-8.622-1.629,38.772,38.772,0,0,1-4.13-1.475A29.755,29.755,0,0,1,379.644,282.855Z" transform="translate(-32.662 -61.762)"/>
      <path class="e9dfdc76-43fd-40ed-995a-72e7b1f40554" d="M412.9,265c-6.163-3.558-16.156-3.558-22.32,0s-6.163,9.328,0,12.887,16.157,3.558,22.32,0S419.063,268.561,412.9,265Z" transform="translate(-32.662 -61.762)"/>
      <path class="fba54fd6-d934-4aab-b2c4-78794f4ff3bc" d="M412.862,275.667,392.55,264.411l-21.8,6.867c.019,4.565,3.044,9.127,9.077,12.61a38.776,38.776,0,0,0,11.625,4.23Z" transform="translate(-32.662 -61.762)"/>
    </g>
    <path class="a18ee1e8-b6b3-4dce-917b-0832378a17f5" d="M420.917,269.691a11.049,11.049,0,0,0,4.329-.608c1.916-.71,3.587-2.769,5.1-6.3,1.284-2.987,3.331-9.527,1.885-12.9-1.835-4.284-7.025-4.436-10.47-4.535-.41-.012-.809-.024-1.187-.041l-.189,4.091c.407.019,1.06.147,1.5.16,1.934.053,6.2.721,6.673,1.821,1.607,2.657-2.493,12.859-4.28,13.965-1.735.631-5.911.263-6.655-.031l-1.35,3.428A15.618,15.618,0,0,0,420.917,269.691Z" transform="translate(-32.662 -61.762)"/>
    <path class="b8ffbca4-5df2-4e6e-90cd-28768b1a7f1d" d="M384.771,240.4c.394-1.746,2.112-3.458,5.169-4.825,7.063-3.157,18.567-3.28,25.695-.273,3.085,1.3,4.84,2.977,5.27,4.714h.1c1.328,11.46-.578,24.784-4.585,32.182-.024.051-.051.1-.077.152s-.039.077-.058.114h-.009a8.751,8.751,0,0,1-3.316,3.2c-5.35,3.164-14.077,3.257-19.493.206a8.743,8.743,0,0,1-3.382-3.126h-.008c-.019-.033-.036-.069-.055-.1-.031-.057-.063-.113-.092-.17-4.16-7.313-6.346-20.588-5.261-32.069Z" transform="translate(-32.662 -61.762)"/>
    <path class="a18ee1e8-b6b3-4dce-917b-0832378a17f5" d="M394.039,273.637c-5.04-4.13-5.523-17.836-5.377-25.907l2.178-12.519c-.3.119-.611.235-.9.364-3.057,1.367-4.775,3.079-5.169,4.825h-.1c-1.085,11.481,1.1,24.756,5.261,32.069.029.057.061.113.092.17.019.032.035.068.055.1h.008a8.743,8.743,0,0,0,3.382,3.126c5.058,2.85,13,2.955,18.389.379A18.718,18.718,0,0,1,394.039,273.637Z" transform="translate(-32.662 -61.762)"/>
    <path class="a99946ef-0568-41fa-8da3-8674009c0935" d="M389.92,233.674c-7.051,4.208-6.98,10.908.159,14.965s18.643,3.935,25.694-.273,6.981-10.908-.159-14.965S396.971,229.466,389.92,233.674Z" transform="translate(-32.662 -61.762)"/>
    <path class="a18ee1e8-b6b3-4dce-917b-0832378a17f5" d="M391.47,235.27c-6.214,3.308-6.158,8.565.125,11.74s16.414,3.069,22.629-.24,6.158-8.565-.125-11.741S397.685,231.961,391.47,235.27Z" transform="translate(-32.662 -61.762)"/>
    <path class="ac9a4cf7-85e7-4c9d-a501-be840da07e3e" d="M391.545,242.364a11.148,11.148,0,0,0-3.111,2.356,11.1,11.1,0,0,0,3.161,2.29c6.283,3.176,16.414,3.069,22.628-.24a11.12,11.12,0,0,0,3.112-2.356,11.116,11.116,0,0,0-3.161-2.29C407.891,238.948,397.759,239.056,391.545,242.364Z" transform="translate(-32.662 -61.762)"/>
    <path class="e88f605c-f165-4bd1-92de-d1fc5067a442" d="M391.545,242.364a11.148,11.148,0,0,0-3.111,2.356,11.1,11.1,0,0,0,3.161,2.29c6.283,3.176,16.414,3.069,22.628-.24a11.12,11.12,0,0,0,3.112-2.356,11.116,11.116,0,0,0-3.161-2.29C407.891,238.948,397.759,239.056,391.545,242.364Z" transform="translate(-32.662 -61.762)"/>
    <g id="b77b728c-be11-4d9c-adc0-7985d2f60169" data-name="Tea Spoon">
      <path id="f55ca66f-2c52-45ca-a910-b26263ca537e" data-name="Shadow" class="fba54fd6-d934-4aab-b2c4-78794f4ff3bc" d="M404.836,290.968a.278.278,0,0,0-.007-.057l-.006-.024a.287.287,0,0,0-.023-.051c0-.007-.007-.015-.012-.023a.451.451,0,0,0-.042-.048c-.006-.006-.011-.013-.018-.019a.555.555,0,0,0-.083-.06h0l-28.53-15.768a4.043,4.043,0,0,0,.741-2.058c0-.06.007-.121.006-.182v-.023h0c-.023-.921-.708-1.92-2.207-2.952-3.128-2.153-10.322-4.044-13.387-2.274a2.16,2.16,0,0,0-1.141,2.527h0a8.439,8.439,0,0,0,2.372,4l.012.013c.095.1.194.2.295.3l.039.04c.115.112.233.225.357.339a11.19,11.19,0,0,0,2.75,1.928,9.046,9.046,0,0,0,.9.377,9.892,9.892,0,0,0,1.5.4,12.672,12.672,0,0,0,2.328.2,7.089,7.089,0,0,0,3.727-1.042l27.159,16.38c.855.5,3.271-.766,3.273-1.487,0-.07,0-.356,0-.43Z" transform="translate(-32.662 -61.762)"/>
      <g id="f375b3ba-dd3d-4bcd-b724-0225ef57d74c" data-name="Tea spoon">
        <path class="b8ffbca4-5df2-4e6e-90cd-28768b1a7f1d" d="M370.677,276.5c3.4,0,6.185-2.349,6.185-4.9l-16.737-2.7a9.265,9.265,0,0,0,3.075,4.69A10.127,10.127,0,0,0,370.677,276.5Z" transform="translate(-32.662 -61.762)"/>
        <path class="edf2e635-8cb2-450a-8d66-45d64ceb9101" d="M370.677,276.5c3.4,0,6.185-2.349,6.185-4.9l-16.737-2.7a9.265,9.265,0,0,0,3.075,4.69A10.127,10.127,0,0,0,370.677,276.5Z" transform="translate(-32.662 -61.762)"/>
        <path class="edf2e635-8cb2-450a-8d66-45d64ceb9101" d="M376.013,271.977c.04,1.827-2.143,4.091-5.54,4.079a11.946,11.946,0,0,1-8.56-3.811,14.652,14.652,0,0,0,1.287,1.341,10.127,10.127,0,0,0,7.477,2.909c3.4,0,6.185-2.349,6.185-4.9l-.858-.139C376.006,271.644,376.009,271.82,376.013,271.977Z" transform="translate(-32.662 -61.762)"/>
        <g>
          <path class="bce947fc-d6ef-4667-8dac-b203db49d1a4" d="M374.654,268.643c-3.128-2.153-10.322-4.044-13.387-2.274s.209,5.923,3.938,7.729c3.69,1.787,7.138,1.575,9.657.12S377.749,270.773,374.654,268.643Z" transform="translate(-32.662 -61.762)"/>
          <path class="a18ee1e8-b6b3-4dce-917b-0832378a17f5" d="M364.6,265.864a20.182,20.182,0,0,1,9.946,2.94c1.446,1,2.161,1.974,2.124,2.908-.033.829-.691,1.638-1.9,2.337a8.715,8.715,0,0,1-4.361,1.129,11.718,11.718,0,0,1-5.113-1.256c-2.761-1.337-4.975-3.775-5.039-5.55a1.957,1.957,0,0,1,1.113-1.834,6.53,6.53,0,0,1,3.233-.674m0-.195a6.775,6.775,0,0,0-3.33.7c-3.066,1.77.209,5.923,3.938,7.729a11.934,11.934,0,0,0,5.2,1.276,8.855,8.855,0,0,0,4.459-1.156c2.519-1.454,2.886-3.445-.208-5.575a20.445,20.445,0,0,0-10.057-2.974Z" transform="translate(-32.662 -61.762)"/>
        </g>
        <path class="e9dfdc76-43fd-40ed-995a-72e7b1f40554" d="M372.889,269.09c-3.05-2.031-9.432-3.952-11.618-2.457s1.4,5.328,4.877,7.066c3.442,1.72,6.269,1.636,8.066.407S375.906,271.1,372.889,269.09Z" transform="translate(-32.662 -61.762)"/>
        <path class="a99946ef-0568-41fa-8da3-8674009c0935" d="M369.468,268.351c-2.162-1.44-6.688-2.8-8.239-1.742s.991,3.779,3.459,5.011c2.441,1.22,4.446,1.16,5.721.289S371.608,269.777,369.468,268.351Z" transform="translate(-32.662 -61.762)"/>
        <path class="a18ee1e8-b6b3-4dce-917b-0832378a17f5" d="M404.644,289.626l-28.928-15.989a8.874,8.874,0,0,1-1.846,1.066v.428l27.693,16.7c.855.495,3.271-.766,3.273-1.487,0-.07,0-.356,0-.43A.328.328,0,0,0,404.644,289.626Z" transform="translate(-32.662 -61.762)"/>
        <path class="e585b9fa-ffc9-4422-aebe-8b26629a1e1a" d="M404.644,289.626l-28.928-15.989a8.643,8.643,0,0,1-1.846,1.066v.428l27.693,16.7c.855.495,3.271-.766,3.273-1.487,0-.07,0-.356,0-.43A.328.328,0,0,0,404.644,289.626Z" transform="translate(-32.662 -61.762)"/>
        <path class="e9dfdc76-43fd-40ed-995a-72e7b1f40554" d="M401.563,291.4c.99.572,4.072-1.207,3.081-1.779l-28.928-15.989a8.624,8.624,0,0,1-1.846,1.066Z" transform="translate(-32.662 -61.762)"/>
        <path class="a99946ef-0568-41fa-8da3-8674009c0935" d="M375.887,274.088s24.154,13.283,25.953,14.268c1.974,1.08,3.177,1.574,1.922,2.3-1.471.849-1.829.474-1.829.474a3.246,3.246,0,0,0,1.378-.474c.74-.473.1-1.106-1.352-1.8S375.887,274.088,375.887,274.088Z" transform="translate(-32.662 -61.762)"/>
      </g>
    </g>
    <g id="eca449a2-2143-4d97-a498-d134d944e3eb" data-name="Yarn">
      <path class="a785c22f-a804-40a7-ac64-67605c3c4ebc" d="M483.171,386.274c2.919,16.879-8.066,32.871-24.534,35.718s-32.185-8.527-35.1-25.406c-2.456-14.209,5.24-26.045,17.561-31.133a34.975,34.975,0,0,1,7.4-2.124,35.875,35.875,0,0,1,3.97-.463C467.356,361.976,480.489,370.761,483.171,386.274Z" transform="translate(-32.662 -61.762)"/>
      <g>
        <path class="bccf8ce9-4823-4e4b-99de-f9d7095d69ee" d="M480.61,394.583a30.178,30.178,0,0,0,2.986-1.356c.031-.666.047-1.336.036-2.011-.123.078-.243.16-.367.235a16.791,16.791,0,0,1-12.34,1.971q-1.308-.282-2.617-.64a28.453,28.453,0,0,0,8.524-3.157,21.291,21.291,0,0,0,6.015-4.956q-.332-1.465-.79-2.842a19.687,19.687,0,0,1-4.347,4.139,23.685,23.685,0,0,1-8.053,3.791c-1.475.37-3,.433-4.494.665a8.374,8.374,0,0,1-4.563-.439,29.434,29.434,0,0,1-3.276-1.8c6.458-.382,13.67-6.088,17.819-9.954a28.51,28.51,0,0,0,3.3-3.632c-.437-.623-.893-1.227-1.376-1.8a23.629,23.629,0,0,1-4.253,4.644c-4.77,4.13-11.335,8.58-17.819,9.17-.9-.665-1.8-1.362-2.655-2.109,4.858-1.814,9.007-5.435,12.4-9.352a23.973,23.973,0,0,0,4.67-7.789c.077-.218.165-.453.26-.7-.526-.3-1.058-.584-1.6-.848a30.326,30.326,0,0,1-4.97,8.17,29.077,29.077,0,0,1-2.167-10.548c-.716-.144-1.442-.261-2.175-.356-.017.3-.033.607-.039.911-.1,4.287,1.086,7.971,2.736,11.838a38.271,38.271,0,0,1-5.033,4.048c-1.086-.8-1.852-2.893-2.461-3.992a37.871,37.871,0,0,1-2.6-5.015,37.418,37.418,0,0,1-1.591-7.724c-.421.058-.841.11-1.264.183-.323.056-.638.128-.958.192a32.237,32.237,0,0,0,2.9,10.676c.923,1.927,2.26,5.266,3.986,7.13a6.588,6.588,0,0,1-1.412.8,5.351,5.351,0,0,1-1.683.477c-1.374.094-2.14-1.137-2.956-2.053a38.234,38.234,0,0,1-2.68-3.352,33.183,33.183,0,0,1-4.707-9.251,16.947,16.947,0,0,1-.494-2.237q-1.272.555-2.475,1.205a13.978,13.978,0,0,0,.489,2.588,37.826,37.826,0,0,0,5.662,10.859,42.329,42.329,0,0,0,14.856,12.5,55.122,55.122,0,0,0,23.9,5.5,31.252,31.252,0,0,0,.577-3.788C482.538,394.607,481.573,394.61,480.61,394.583Z" transform="translate(-32.662 -61.762)"/>
        <path class="bccf8ce9-4823-4e4b-99de-f9d7095d69ee" d="M482.823,398.823a56.08,56.08,0,0,1-26.893-3.712c-10.2-4.114-20.369-12.866-24.371-23.516q-.781.744-1.5,1.54c1.269,4.461,4.546,8.748,7.469,11.789,4.5,4.669,9.283,9.076,15.328,11.718,6.571,2.862,13.162,4.8,20.392,4.934a85.442,85.442,0,0,0,8.737-.189,39.847,39.847,0,0,1-11.185,2.065,61.844,61.844,0,0,1-14.63-1.914,42.471,42.471,0,0,1-20.192-10.451,46.056,46.056,0,0,1-6.3-7.532c-1.061-1.521-2.42-3.176-3.489-4.916-.409.772-.777,1.569-1.109,2.383.3.572.623,1.128.952,1.667.734,1.212,1.575,2.335,2.4,3.484a6.579,6.579,0,0,1,1.488,3.546,15.5,15.5,0,0,1-.521,3.088c-.151.973-.352,1.94-.515,2.912a38.138,38.138,0,0,0-.489,6.1,23.685,23.685,0,0,0,2.256,9.935,31.088,31.088,0,0,0,4.652,4.4c-2.011-5.045-4.771-9.463-4.467-15.293a50.942,50.942,0,0,1,1.921-9.641c.063.069.132.144.194.207q1.677,1.761,3.515,3.346c.979.841,2.084,1.788,1.94,3.213a17.44,17.44,0,0,1-.81,2.806,22.164,22.164,0,0,0-.571,3.188c-.232,1.852-.307,3.716-.446,5.574a29.656,29.656,0,0,0,.545,7.905,30.785,30.785,0,0,0,3.259,1.862,28.487,28.487,0,0,1-1.218-9.742,51.108,51.108,0,0,1,1.984-11.279,18.584,18.584,0,0,0,2.592,1.544c.634.352,2.272.829,2.53,1.576a.775.775,0,0,1,0,.445,3.125,3.125,0,0,1-.477.929,27.413,27.413,0,0,0-4.269,12.717,36.337,36.337,0,0,0-.2,4.258q1.357.615,2.776,1.094a30.984,30.984,0,0,1,.027-3.733c4.18,1.877,10.112,1.569,14.1.333a30.55,30.55,0,0,0,8.643-4.036,26.233,26.233,0,0,0,7.425-7.331,28.862,28.862,0,0,0,6.48-1.285A31.224,31.224,0,0,0,482.823,398.823Zm-36.239,8.351c.239-.527.49-1.054.76-1.569a28.74,28.74,0,0,1,1.814-3.044,1.167,1.167,0,0,0,.094-.195c1.079.4,2.178.76,3.308,1.074,2.3.634,4.695,1.186,7.13,1.619-.2,0-.91.665-1.073.785-.383.27-.772.539-1.174.79a16.57,16.57,0,0,1-2.4,1.281,12.607,12.607,0,0,1-5.053,1.149,9.915,9.915,0,0,1-2.535-.471C446.785,408.4,446.258,407.915,446.584,407.174Zm20.01,3.4a26.926,26.926,0,0,1-7.532,3.841c-4.161,1.4-10.331,2.04-14.618-.019a28.372,28.372,0,0,1,.828-3.715c2.116,1.01,5.317.91,7.225.552,3.433-.64,8.116-2.58,10.036-5.731a57.021,57.021,0,0,0,9.309.509A33.292,33.292,0,0,1,466.594,410.57Z" transform="translate(-32.662 -61.762)"/>
      </g>
    </g>
    <g id="b7e57ffd-09b4-4e0a-8905-2decab0f72a3" data-name="Neddles">
      <g>
        <path class="a99946ef-0568-41fa-8da3-8674009c0935" d="M407.138,348.389l2.773-.54,11.543,59.222a94.836,94.836,0,0,1,1.733,16.275h0a94.723,94.723,0,0,1-4.506-15.735Z" transform="translate(-32.662 -61.762)"/>
        <path class="edf2e635-8cb2-450a-8d66-45d64ceb9101" d="M407.6,350.754a4.488,4.488,0,0,0,2.773-.54l-.461-2.365-2.773.54Z" transform="translate(-32.662 -61.762)"/>
        <path class="a99946ef-0568-41fa-8da3-8674009c0935" d="M406.844,349.582a1.176,1.176,0,0,1-.427-2.187,4.266,4.266,0,0,1,3.788-.739,1.176,1.176,0,0,1,.427,2.187A4.266,4.266,0,0,1,406.844,349.582Z" transform="translate(-32.662 -61.762)"/>
      </g>
      <g>
        <path class="a99946ef-0568-41fa-8da3-8674009c0935" d="M421.078,338.383l2.824-.1,2.1,60.3a94.832,94.832,0,0,1-.844,16.345h0a94.766,94.766,0,0,1-1.98-16.247Z" transform="translate(-32.662 -61.762)"/>
        <path class="edf2e635-8cb2-450a-8d66-45d64ceb9101" d="M421.162,340.791a4.482,4.482,0,0,0,2.824-.1l-.084-2.408-2.824.1Z" transform="translate(-32.662 -61.762)"/>
        <path class="a99946ef-0568-41fa-8da3-8674009c0935" d="M420.6,339.514a1.176,1.176,0,0,1-.077-2.227,4.265,4.265,0,0,1,3.857-.134,1.176,1.176,0,0,1,.077,2.227A4.265,4.265,0,0,1,420.6,339.514Z" transform="translate(-32.662 -61.762)"/>
      </g>
    </g>
    <g id="ef536bd6-498c-40cc-af76-44693d4c8cc8" data-name="Yarn">
      <path class="ac9a4cf7-85e7-4c9d-a501-be840da07e3e" d="M442.14,413.34h0a24.551,24.551,0,0,1-24.55,24.55H402.428a24.551,24.551,0,0,1-24.55-24.55h0a24.55,24.55,0,0,1,24.55-24.55H417.59A24.55,24.55,0,0,1,442.14,413.34Z" transform="translate(-32.662 -61.762)"/>
      <path class="bbd0a5b0-af3c-4c98-bcf8-b9f4c1059892" d="M442.14,413.34h0a24.551,24.551,0,0,1-24.55,24.55H402.428a24.551,24.551,0,0,1-24.55-24.55h0a24.55,24.55,0,0,1,24.55-24.55H417.59A24.55,24.55,0,0,1,442.14,413.34Z" transform="translate(-32.662 -61.762)"/>
      <g>
        <path class="ac9a4cf7-85e7-4c9d-a501-be840da07e3e" d="M408.031,388.79a29.4,29.4,0,0,1,1.861,2.428,65.821,65.821,0,0,1,6.922,14.091,43.465,43.465,0,0,1,.224,32.581h.552c.828,0,1.646-.043,2.453-.123a5.75,5.75,0,0,1,1.759-2.238,16.445,16.445,0,0,1,3.043-1.357c.951-.44,1.926-.831,2.884-1.26a40.7,40.7,0,0,0,5.694-3.159,15.867,15.867,0,0,0,8.51-13.277c.046-.429.092-.857.121-1.286-3.287,4.753-5.576,9.8-10.92,12.965-3.074,1.818-6.378,2.8-9.674,3.977.024-.1.05-.2.069-.3q.573-2.521.894-5.085c.168-1.363.357-2.9,1.7-3.611a18.568,18.568,0,0,1,2.963-.935,23.629,23.629,0,0,0,3.162-1.372c1.777-.885,3.473-1.916,5.2-2.888a31.457,31.457,0,0,0,6.672-5.129,24.6,24.6,0,0,0-.383-3.856,30.145,30.145,0,0,1-7.79,6.679,54.362,54.362,0,0,1-11.163,4.886,19.7,19.7,0,0,0-.158-3.207c-.062-.769-.6-2.5-.094-3.169a.818.818,0,0,1,.395-.263,3.332,3.332,0,0,1,1.1-.124,29.176,29.176,0,0,0,13.782-3.708,39.23,39.23,0,0,0,3.7-2.2,24.4,24.4,0,0,0-.865-2.953,32.6,32.6,0,0,1-2.928,1.9c-.8-4.81-4.565-9.884-8.009-12.688a33.2,33.2,0,0,0-7.964-4.963,24.7,24.7,0,0,0-4.16-.358Zm19.422,21.692c-.608.1-1.223.187-1.838.251a30.547,30.547,0,0,1-3.765.186,1.169,1.169,0,0,0-.228.031c-.28-1.193-.61-2.377-1-3.563-.8-2.415-1.714-4.859-2.764-7.272a5.286,5.286,0,0,0,1.327.489c.464.18.933.366,1.392.574a17.635,17.635,0,0,1,2.547,1.371,13.4,13.4,0,0,1,3.994,3.8,10.527,10.527,0,0,1,1.076,2.524C428.419,409.583,428.3,410.335,427.453,410.482Zm-8.777-19.73a28.656,28.656,0,0,1,7.84,4.411c3.691,2.863,7.893,7.953,8.594,12.964a30.148,30.148,0,0,1-3.781,1.454c-.35-2.469-2.325-5.246-3.766-6.726-2.589-2.665-7.066-5.672-10.989-5.518a60.679,60.679,0,0,0-5.032-8.547A35.4,35.4,0,0,1,418.676,390.752Z" transform="translate(-32.662 -61.762)"/>
        <path class="ac9a4cf7-85e7-4c9d-a501-be840da07e3e" d="M413.072,431.613c1.487-6.738,2.574-13.572,1.355-20.484-1.334-7.509-3.5-14.491-7.639-20.975-.289-.45-.587-.908-.884-1.364h-3.132a60.14,60.14,0,0,1,8.487,20.516A49.684,49.684,0,0,1,408.6,437.89h2.574A43.219,43.219,0,0,0,413.072,431.613Z" transform="translate(-32.662 -61.762)"/>
        <path class="ac9a4cf7-85e7-4c9d-a501-be840da07e3e" d="M402.89,420.747c.893,1.163.254,2.566-.077,3.829a40.861,40.861,0,0,1-1.391,4.348,36.872,36.872,0,0,1-4.478,8.343,24.47,24.47,0,0,0,3.407.529,43.456,43.456,0,0,0,4.772-9.383,45.045,45.045,0,0,0,2.328-20.529,59.188,59.188,0,0,0-6.054-19.068,24.439,24.439,0,0,0-5.652.9,18.321,18.321,0,0,1,5.186,7.3q.521,1.326.974,2.7a30.274,30.274,0,0,0-7.818-5.693,24.7,24.7,0,0,0-4.34-1.7,24.581,24.581,0,0,0-2.9,2.048,26.313,26.313,0,0,1,3.475,1.03,25.189,25.189,0,0,1,8.1,4.9c1.2,1.089,2.151,2.4,3.236,3.591a8.9,8.9,0,0,1,2.3,4.3,31.463,31.463,0,0,1,.339,3.96c-4.144-5.5-13.447-8.527-19.317-9.926a31.411,31.411,0,0,0-4.083-.694,24.773,24.773,0,0,0-1.085,2.228,26.269,26.269,0,0,1,5.839,1c6.47,1.8,14.28,4.991,18.622,10.388-.058,1.193-.146,2.4-.3,3.6-4.469-3.236-10.122-4.779-15.589-5.476a25.507,25.507,0,0,0-9.652.451c-.238.06-.5.12-.773.181.046.641.106,1.282.194,1.921a32.242,32.242,0,0,1,10.165-.408,30.916,30.916,0,0,1-8.069,8.133q.442,1.079.966,2.136c.279-.164.557-.327.83-.5,3.858-2.436,6.423-5.658,8.877-9.4a40.747,40.747,0,0,1,6.552,2.076c-.072,1.436-1.473,3.345-2.088,4.532a40.36,40.36,0,0,1-2.909,5.262,32.441,32.441,0,0,1-5.011,5.155,24.7,24.7,0,0,0,2.051,1.422,33.448,33.448,0,0,0,6.444-7.73c1.164-1.953,3.335-5.1,3.97-7.732a7.032,7.032,0,0,1,1.544.778A5.669,5.669,0,0,1,402.89,420.747Z" transform="translate(-32.662 -61.762)"/>
      </g>
    </g>
  </g>
  <g>
    <path class="b8b7b9af-008f-4e98-979a-bc77556fa25d" d="M109.083,94.3a15.166,15.166,0,0,1,1-5.717,12.389,12.389,0,0,1,2.622-4.118,10.792,10.792,0,0,1,3.725-2.491,11.471,11.471,0,0,1,4.3-.84q5.454,0,8.288,3.226t2.833,9.415c0,.42-.01.858-.027,1.312s-.045.822-.079,1.1h-16a4.39,4.39,0,0,0,1.993,3.8,8.79,8.79,0,0,0,5.141,1.391,15.861,15.861,0,0,0,3.7-.42q1.758-.418,2.964-.84l.892,5.508a29.321,29.321,0,0,1-3.567.971,20.944,20.944,0,0,1-4.249.393,18.135,18.135,0,0,1-5.638-.813,11.488,11.488,0,0,1-4.249-2.413,10.559,10.559,0,0,1-2.7-3.96A14.762,14.762,0,0,1,109.083,94.3Zm16.523-2.571a6.938,6.938,0,0,0-.262-1.914,4.791,4.791,0,0,0-.839-1.652,4.293,4.293,0,0,0-1.469-1.181,4.935,4.935,0,0,0-2.2-.445,5.21,5.21,0,0,0-2.177.419,4.2,4.2,0,0,0-1.521,1.154,5.647,5.647,0,0,0-.945,1.679,8.213,8.213,0,0,0-.445,1.94Z" transform="translate(-32.662 -61.762)"/>
    <path class="b8b7b9af-008f-4e98-979a-bc77556fa25d" d="M158.18,105.368a6.99,6.99,0,0,1-.708.367,12.16,12.16,0,0,1-1.443.551,15.169,15.169,0,0,1-2.176.5,18.208,18.208,0,0,1-2.912.21q-4.458,0-6.5-2.649t-2.046-7.737V75.679h-6.819V70.328h13.271V97.08q0,2.519,1,3.409a3.624,3.624,0,0,0,2.517.893,8.771,8.771,0,0,0,3.252-.526q1.311-.522,1.732-.681Z" transform="translate(-32.662 -61.762)"/>
    <path class="b66cc860-dff4-479b-bfae-1702da912165" d="M182.886,105.578q-1.783.472-4.327.943a30.266,30.266,0,0,1-5.535.473,12.634,12.634,0,0,1-4.982-.84,7.248,7.248,0,0,1-3.069-2.386,9.129,9.129,0,0,1-1.547-3.646,23.532,23.532,0,0,1-.42-4.615V81.764h6.452v12.9a12,12,0,0,0,.813,5.062,3.19,3.19,0,0,0,3.173,1.653,16.586,16.586,0,0,0,2.938-.263V81.764h6.5ZM178.742,75.1l-9.127,4.406-2.36-3.515,8.287-5.822Z" transform="translate(-32.662 -61.762)"/>
    <path class="b66cc860-dff4-479b-bfae-1702da912165" d="M210.634,105.368a6.99,6.99,0,0,1-.708.367,12.093,12.093,0,0,1-1.443.551,15.169,15.169,0,0,1-2.176.5,18.2,18.2,0,0,1-2.911.21q-4.459,0-6.5-2.649t-2.046-7.737V75.679h-6.819V70.328H201.3V97.08q0,2.519,1,3.409a3.625,3.625,0,0,0,2.518.893,8.769,8.769,0,0,0,3.251-.526q1.313-.522,1.732-.681Z" transform="translate(-32.662 -61.762)"/>
    <path class="b66cc860-dff4-479b-bfae-1702da912165" d="M219.866,87.114h-5.612v-5.35h5.612v-6.19l6.452-1.049v7.239h10.333v5.35H226.318V97.08a7.566,7.566,0,0,0,.262,2.2,3.156,3.156,0,0,0,.734,1.312,2.348,2.348,0,0,0,1.155.629,6.762,6.762,0,0,0,1.521.158q.891,0,1.653-.053a12.834,12.834,0,0,0,1.467-.183,10,10,0,0,0,1.469-.394,16.406,16.406,0,0,0,1.652-.682l.893,5.56a16.663,16.663,0,0,1-3.855,1.05,26.842,26.842,0,0,1-4.013.314,19.407,19.407,0,0,1-3.987-.367,6.417,6.417,0,0,1-2.938-1.416,6.505,6.505,0,0,1-1.835-2.964,16.407,16.407,0,0,1-.63-5.01Z" transform="translate(-32.662 -61.762)"/>
    <path class="b66cc860-dff4-479b-bfae-1702da912165" d="M263.088,105.368a15.971,15.971,0,0,1-3.751,1.285,17.07,17.07,0,0,1-3.226.341,10.693,10.693,0,0,1-4.222-.734,6.483,6.483,0,0,1-2.728-2.125,8.609,8.609,0,0,1-1.442-3.383,22.2,22.2,0,0,1-.42-4.564V87.114H240.48v-5.35h13.271V97.027a5.413,5.413,0,0,0,.813,3.279,3.172,3.172,0,0,0,2.7,1.076,11.993,11.993,0,0,0,2.15-.236,12.145,12.145,0,0,0,2.833-.971Zm-9.6-30.685a3.848,3.848,0,0,1-1.206,2.989,4.132,4.132,0,0,1-2.885,1.1,4.035,4.035,0,0,1-2.858-1.1,3.89,3.89,0,0,1-1.181-2.989,3.958,3.958,0,0,1,1.181-3.043,4.031,4.031,0,0,1,2.858-1.1,4.128,4.128,0,0,1,2.885,1.1A3.914,3.914,0,0,1,253.488,74.683Z" transform="translate(-32.662 -61.762)"/>
    <path class="b66cc860-dff4-479b-bfae-1702da912165" d="M282.812,81.5a7.762,7.762,0,0,1,3.356.63,4.809,4.809,0,0,1,2.072,1.889,8.265,8.265,0,0,1,1.023,3.172,33.513,33.513,0,0,1,.262,4.486v14.739H284.28V91.362A12.213,12.213,0,0,0,284.1,89a4.406,4.406,0,0,0-.473-1.363,1.45,1.45,0,0,0-.682-.63,2.169,2.169,0,0,0-.813-.157,6.63,6.63,0,0,0-1,.079,3.091,3.091,0,0,0-.945.288q.158,1,.262,2.2t.106,2.675v4.93h-5.245V91.362a8.639,8.639,0,0,0-.5-3.513,1.673,1.673,0,0,0-1.6-1,7.306,7.306,0,0,0-1.626.21v19.355h-5.245V82.708a34.643,34.643,0,0,1,4.039-.892,22.817,22.817,0,0,1,3.514-.315,8.07,8.07,0,0,1,2.439.341A4.529,4.529,0,0,1,278.2,82.97a10.7,10.7,0,0,1,2.1-1.023A7.217,7.217,0,0,1,282.812,81.5Z" transform="translate(-32.662 -61.762)"/>
    <path class="b66cc860-dff4-479b-bfae-1702da912165" d="M315.805,94.038a16,16,0,0,1-.84,5.324,12.391,12.391,0,0,1-2.361,4.117,10.418,10.418,0,0,1-3.645,2.675,12.4,12.4,0,0,1-9.494,0,10.677,10.677,0,0,1-3.672-2.675,12.126,12.126,0,0,1-2.387-4.117,15.979,15.979,0,0,1-.839-5.324,15.335,15.335,0,0,1,.866-5.271,12.176,12.176,0,0,1,2.413-4.092,10.487,10.487,0,0,1,3.7-2.623,12.393,12.393,0,0,1,9.362,0,10.553,10.553,0,0,1,3.672,2.623,11.882,11.882,0,0,1,2.387,4.092A15.832,15.832,0,0,1,315.805,94.038Zm-16.681.052a10.645,10.645,0,0,0,1.18,5.35,4.057,4.057,0,0,0,3.8,2.046,4.2,4.2,0,0,0,3.8-2.046,9.929,9.929,0,0,0,1.285-5.35,10.483,10.483,0,0,0-1.18-5.323,4.073,4.073,0,0,0-3.8-2.02,4.22,4.22,0,0,0-3.8,2.02A9.789,9.789,0,0,0,299.124,94.09Z" transform="translate(-32.662 -61.762)"/>
    <path class="b8b7b9af-008f-4e98-979a-bc77556fa25d" d="M126.6,155.874a23.06,23.06,0,0,0-1.259-2.78,13.882,13.882,0,0,1-3.672,2.386,9.368,9.368,0,0,1-3.724.814,10.634,10.634,0,0,1-4.118-.734,8.586,8.586,0,0,1-2.937-1.968,7.893,7.893,0,0,1-1.757-2.859,10.075,10.075,0,0,1-.577-3.409,9.631,9.631,0,0,1,1.285-4.8,10.7,10.7,0,0,1,3.855-3.855,18.708,18.708,0,0,1-2.072-3.619,9.852,9.852,0,0,1-.813-3.935,8.772,8.772,0,0,1,.735-3.7,7.723,7.723,0,0,1,1.94-2.649,8.238,8.238,0,0,1,2.7-1.574,9.23,9.23,0,0,1,3.069-.524,9.07,9.07,0,0,1,2.886.472,7.7,7.7,0,0,1,2.517,1.389,6.948,6.948,0,0,1,1.783,2.309,7.247,7.247,0,0,1,.682,3.225,9.017,9.017,0,0,1-1.521,4.905,11.968,11.968,0,0,1-4.773,4.065q1.048,1.26,2.2,2.57t2.36,2.675a25.618,25.618,0,0,0,.788-6.346l5.349.681a21.473,21.473,0,0,1-.761,5.456,22.376,22.376,0,0,1-1.809,4.564,32.062,32.062,0,0,1,2.256,3.566,18.22,18.22,0,0,1,1.521,3.672Zm-3.83-6.557q-1.469-1.835-3.042-3.567t-3.094-3.409a6.455,6.455,0,0,0-1.863,1.915,5.089,5.089,0,0,0-.708,2.754,5.258,5.258,0,0,0,.918,3.094,3.54,3.54,0,0,0,3.121,1.311,6.587,6.587,0,0,0,2.414-.472A6.053,6.053,0,0,0,122.773,149.317Zm-6.4-18.516a6.225,6.225,0,0,0,.473,2.334,13.371,13.371,0,0,0,1.31,2.439,6.658,6.658,0,0,0,2.571-2.491,5.954,5.954,0,0,0,.892-2.964,2.954,2.954,0,0,0-.656-2.072,2.219,2.219,0,0,0-1.7-.708,2.664,2.664,0,0,0-2.1.891A3.776,3.776,0,0,0,116.374,130.8Z" transform="translate(-32.662 -61.762)"/>
    <path class="b8b7b9af-008f-4e98-979a-bc77556fa25d" d="M151.676,130.958a7.762,7.762,0,0,1,3.356.63,4.8,4.8,0,0,1,2.072,1.889,8.265,8.265,0,0,1,1.023,3.172,33.5,33.5,0,0,1,.263,4.486v14.739h-5.245V140.819a12.2,12.2,0,0,0-.184-2.36,4.38,4.38,0,0,0-.473-1.363,1.452,1.452,0,0,0-.681-.63,2.178,2.178,0,0,0-.814-.157,6.65,6.65,0,0,0-1,.079,3.076,3.076,0,0,0-.944.288q.156,1,.261,2.2t.106,2.675v4.93h-5.245v-5.665a8.639,8.639,0,0,0-.5-3.513,1.671,1.671,0,0,0-1.6-1,7.306,7.306,0,0,0-1.626.21v19.355h-5.245V132.165a34.643,34.643,0,0,1,4.039-.892,22.817,22.817,0,0,1,3.514-.315,8.07,8.07,0,0,1,2.439.341,4.539,4.539,0,0,1,1.863,1.128,10.693,10.693,0,0,1,2.1-1.023A7.217,7.217,0,0,1,151.676,130.958Z" transform="translate(-32.662 -61.762)"/>
    <path class="b8b7b9af-008f-4e98-979a-bc77556fa25d" d="M161.537,143.757a15.166,15.166,0,0,1,1-5.717,12.389,12.389,0,0,1,2.622-4.118,10.792,10.792,0,0,1,3.725-2.491,11.471,11.471,0,0,1,4.3-.84q5.454,0,8.288,3.226t2.833,9.415c0,.42-.01.858-.027,1.312s-.045.822-.079,1.1h-16a4.39,4.39,0,0,0,1.993,3.8,8.792,8.792,0,0,0,5.141,1.391,15.861,15.861,0,0,0,3.7-.42q1.758-.419,2.964-.84l.892,5.508a29.321,29.321,0,0,1-3.567.971,20.93,20.93,0,0,1-4.249.393,18.135,18.135,0,0,1-5.638-.813,11.5,11.5,0,0,1-4.249-2.413,10.559,10.559,0,0,1-2.7-3.96A14.782,14.782,0,0,1,161.537,143.757Zm16.524-2.57a6.94,6.94,0,0,0-.263-1.915,4.791,4.791,0,0,0-.839-1.652,4.293,4.293,0,0,0-1.469-1.181,4.932,4.932,0,0,0-2.2-.445,5.21,5.21,0,0,0-2.177.419,4.2,4.2,0,0,0-1.521,1.154,5.645,5.645,0,0,0-.944,1.679,8.212,8.212,0,0,0-.446,1.941Z" transform="translate(-32.662 -61.762)"/>
    <path class="b66cc860-dff4-479b-bfae-1702da912165" d="M196.313,155.874q-2.359-4.668-4.8-10.936t-4.643-13.717h6.767q.471,1.994,1.128,4.249t1.389,4.537q.735,2.281,1.5,4.432t1.443,3.934q.681-1.782,1.521-3.934t1.653-4.432q.811-2.283,1.573-4.537t1.232-4.249h6.558a126.23,126.23,0,0,1-4.879,13.717q-2.675,6.267-5.035,10.936Z" transform="translate(-32.662 -61.762)"/>
    <path class="b66cc860-dff4-479b-bfae-1702da912165" d="M237.124,143.5a15.974,15.974,0,0,1-.84,5.324,12.386,12.386,0,0,1-2.36,4.118,10.441,10.441,0,0,1-3.646,2.674,12.4,12.4,0,0,1-9.494,0,10.7,10.7,0,0,1-3.672-2.674,12.121,12.121,0,0,1-2.386-4.118,15.949,15.949,0,0,1-.839-5.324,15.359,15.359,0,0,1,.865-5.271,12.192,12.192,0,0,1,2.413-4.092,10.5,10.5,0,0,1,3.7-2.623,12.4,12.4,0,0,1,9.363,0,10.549,10.549,0,0,1,3.671,2.623,11.85,11.85,0,0,1,2.387,4.092A15.807,15.807,0,0,1,237.124,143.5Zm-16.681.052a10.645,10.645,0,0,0,1.18,5.35,4.058,4.058,0,0,0,3.8,2.046,4.2,4.2,0,0,0,3.8-2.046,9.929,9.929,0,0,0,1.286-5.35,10.483,10.483,0,0,0-1.181-5.323,4.073,4.073,0,0,0-3.8-2.02,4.219,4.219,0,0,0-3.8,2.02A9.78,9.78,0,0,0,220.443,143.547Z" transform="translate(-32.662 -61.762)"/>
    <path class="b66cc860-dff4-479b-bfae-1702da912165" d="M263.351,131.221q-1,3.46-1.915,6.793t-1.915,6.5q-1,3.174-2.125,6.215t-2.439,5.928a33.474,33.474,0,0,1-1.967,3.619,10.484,10.484,0,0,1-2.15,2.491,8.032,8.032,0,0,1-2.623,1.443,10.9,10.9,0,0,1-3.383.473,15.428,15.428,0,0,1-2.964-.263,9.69,9.69,0,0,1-2.229-.682l1.207-5.4a10.092,10.092,0,0,0,1.861.655,8,8,0,0,0,1.758.184,3.932,3.932,0,0,0,3.042-1.259,9.6,9.6,0,0,0,1.836-2.99q-2.308-4.614-4.616-10.57a122.322,122.322,0,0,1-4.2-13.139h6.715q.472,1.941,1.075,4.143t1.285,4.407q.683,2.2,1.443,4.327t1.547,3.961q.523-1.836,1.1-3.961t1.1-4.3q.523-2.177,1.023-4.38t.918-4.2Z" transform="translate(-32.662 -61.762)"/>
    <path class="b8b7b9af-008f-4e98-979a-bc77556fa25d" d="M271.009,159.7c.63-.14,1.267-.263,1.915-.367a10.179,10.179,0,0,0,1.836-.472,5.091,5.091,0,0,0,1.547-.891,4.116,4.116,0,0,0,1.1-1.575,4.378,4.378,0,0,1-3.1-1.573,4.723,4.723,0,0,1-1.1-3.043,4.5,4.5,0,0,1,1.338-3.356,4.634,4.634,0,0,1,3.383-1.312,4.24,4.24,0,0,1,3.435,1.469,6.012,6.012,0,0,1,1.234,3.986,12.2,12.2,0,0,1-.578,3.672,10.179,10.179,0,0,1-1.862,3.409,11.573,11.573,0,0,1-3.331,2.728,13.481,13.481,0,0,1-4.982,1.521Zm11.644-23.866a4.356,4.356,0,0,1-1.416,3.514,4.867,4.867,0,0,1-3.252,1.207,5.049,5.049,0,0,1-1.783-.315,4.479,4.479,0,0,1-2.544-2.387,4.842,4.842,0,0,1-.393-2.019,4.714,4.714,0,0,1,.393-1.968,4.23,4.23,0,0,1,1.049-1.442,4.8,4.8,0,0,1,1.5-.892,5.026,5.026,0,0,1,1.783-.314,4.871,4.871,0,0,1,3.252,1.206A4.231,4.231,0,0,1,282.653,135.837Z" transform="translate(-32.662 -61.762)"/>
  </g>
  <g>
    <path class="ecb83e76-089b-45e1-8df7-790bd2c361b2" d="M348.453,123.112c.089-.351.177-.7.275-1.056-5.365-3.215-8.239-5.743-8.395-5.552C340.223,116.605,342.977,119.53,348.453,123.112Z" transform="translate(-32.662 -61.762)"/>
    <path class="ecb83e76-089b-45e1-8df7-790bd2c361b2" d="M408.654,133.583a73.786,73.786,0,0,1-13.377,1.174A92.49,92.49,0,0,1,378.9,133.22q-1.106-.2-2.192-.423c.24.6.487,1.189.736,1.776.389.074.775.153,1.167.225a86.646,86.646,0,0,0,16.68,1.437,67.489,67.489,0,0,0,13.6-1.543,34.371,34.371,0,0,0,7.483-2.535c-.128-.205-.264-.414-.407-.623A39.636,39.636,0,0,1,408.654,133.583Z" transform="translate(-32.662 -61.762)"/>
    <path class="e5ac8ac5-ccaa-4f3a-a3de-75779c1a2674" d="M421.089,126.805c.026-.038.039-.065.031-.074s-.013,0-.017,0C421.1,126.755,421.094,126.779,421.089,126.805Z" transform="translate(-32.662 -61.762)"/>
    <path class="ecb83e76-089b-45e1-8df7-790bd2c361b2" d="M409.459,130.435a77.145,77.145,0,0,1-13.319.82,98.215,98.215,0,0,1-16.253-1.779c-1.631-.311-3.225-.663-4.787-1.041.2.6.416,1.2.631,1.79,1.263.3,2.545.576,3.853.824a91.171,91.171,0,0,0,16.537,1.685,70.217,70.217,0,0,0,13.535-1.182,39.568,39.568,0,0,0,5.287-1.392c-.2-.248-.413-.5-.629-.741A45.358,45.358,0,0,1,409.459,130.435Z" transform="translate(-32.662 -61.762)"/>
    <path class="ecb83e76-089b-45e1-8df7-790bd2c361b2" d="M341.668,113.432a44.918,44.918,0,0,0,7.851,6.024c.111-.337.218-.674.336-1.011-4.285-2.482-7-4.527-8.006-5.158Z" transform="translate(-32.662 -61.762)"/>
    <path class="ecb83e76-089b-45e1-8df7-790bd2c361b2" d="M410.341,127.811a79.875,79.875,0,0,1-13.279.59,102.587,102.587,0,0,1-16.172-1.932c-2.379-.471-4.686-1.018-6.915-1.619.175.6.353,1.194.539,1.785,1.962.522,3.985,1,6.062,1.407a94.8,94.8,0,0,0,16.445,1.836,71.941,71.941,0,0,0,13.494-.948c1-.172,1.934-.369,2.816-.582-.283-.292-.578-.582-.882-.871C411.775,127.6,411.078,127.711,410.341,127.811Z" transform="translate(-32.662 -61.762)"/>
    <path class="ecb83e76-089b-45e1-8df7-790bd2c361b2" d="M350.959,115.534c-2.884-1.632-5.064-3.065-6.493-4.019-.167.094-.337.19-.482.277a56.534,56.534,0,0,0,6.583,4.717C350.693,116.185,350.827,115.859,350.959,115.534Z" transform="translate(-32.662 -61.762)"/>
    <path class="ecb83e76-089b-45e1-8df7-790bd2c361b2" d="M352.007,113.1c-1.953-1.027-3.592-2-4.909-2.841-.274.113-.54.223-.79.336a51.974,51.974,0,0,0,5.26,3.477C351.709,113.743,351.859,113.419,352.007,113.1Z" transform="translate(-32.662 -61.762)"/>
    <path class="ecb83e76-089b-45e1-8df7-790bd2c361b2" d="M397.621,125.209a130.228,130.228,0,0,1-16.072-2.17c-2.974-.583-5.845-1.258-8.591-2,.079.331.155.665.239.992.065.253.137.5.2.755,2.516.676,5.134,1.291,7.837,1.82a116.837,116.837,0,0,0,16.293,2.072,89.353,89.353,0,0,0,13.424-.264c.1-.01.191-.022.289-.033-.4-.348-.821-.7-1.258-1.049A104.26,104.26,0,0,1,397.621,125.209Z" transform="translate(-32.662 -61.762)"/>
    <path class="ecb83e76-089b-45e1-8df7-790bd2c361b2" d="M398.557,121.75A143.311,143.311,0,0,1,382.59,119.4c-3.679-.746-7.207-1.617-10.531-2.564q.162.867.336,1.713c3.13.9,6.436,1.725,9.874,2.421a126.508,126.508,0,0,0,16.171,2.256c3.249.227,6.292.294,9.067.24-.615-.438-1.263-.875-1.925-1.311C403.378,122.092,401.025,121.962,398.557,121.75Z" transform="translate(-32.662 -61.762)"/>
    <path class="ecb83e76-089b-45e1-8df7-790bd2c361b2" d="M352.628,109.421c-.368-.186-.723-.37-1.068-.553-.462.1-.913.213-1.34.329q1.09.675,2.37,1.39C352.6,110.2,352.614,109.811,352.628,109.421Z" transform="translate(-32.662 -61.762)"/>
    <path class="ecb83e76-089b-45e1-8df7-790bd2c361b2" d="M399.216,118.379c-5.107-.559-10.753-1.394-16.634-2.641-3.179-.662-6.245-1.4-9.166-2.186-.308.454-.614.909-.912,1.366,3.092.874,6.357,1.682,9.749,2.389a145.735,145.735,0,0,0,20,2.779c-.9-.531-1.827-1.06-2.789-1.577C399.383,118.464,399.3,118.423,399.216,118.379Z" transform="translate(-32.662 -61.762)"/>
    <path class="ecb83e76-089b-45e1-8df7-790bd2c361b2" d="M382.774,112.314q-3.708-.853-7.2-1.76c-.342.454-.68.908-1.007,1.362,2.523.681,5.148,1.339,7.85,1.96,4.561,1.052,8.968,1.922,13.086,2.614-2.105-1.024-4.159-1.939-6.177-2.75C387.184,113.3,385,112.828,382.774,112.314Z" transform="translate(-32.662 -61.762)"/>
    <path class="bcddbdac-a7de-41b4-b520-fd4fc623eb12" d="M403.658,88.392c1.729,1.347,3.332,2.759,4.821,4.137a85.148,85.148,0,0,1,7.449,7.8,39.079,39.079,0,0,1,4.173,5.917,25.979,25.979,0,0,0,1.238,2.375,5.449,5.449,0,0,0-.676-2.647,30.506,30.506,0,0,0-3.846-6.348,71.74,71.74,0,0,0-7.323-8.169c-1.4-1.349-2.911-2.719-4.565-4.052-.081.009-.157.013-.239.023a13.779,13.779,0,0,0-1.823.379C403.133,88,403.4,88.188,403.658,88.392Z" transform="translate(-32.662 -61.762)"/>
    <path class="bcddbdac-a7de-41b4-b520-fd4fc623eb12" d="M384.288,81.279c1.07-.431,2.088-.792,3.038-1.083-.6-.092-1.194-.177-1.779-.248a57.909,57.909,0,0,0-10.66-.249c-.231.289-.459.59-.677.918-.054.079-.1.173-.157.256l.564-.02A67.34,67.34,0,0,1,384.288,81.279Z" transform="translate(-32.662 -61.762)"/>
    <path class="bcddbdac-a7de-41b4-b520-fd4fc623eb12" d="M409.316,94.849a40.946,40.946,0,0,0-5.5-4.305q-1.541-1.021-3.206-1.97c-.6.241-1.207.522-1.821.826,1.449.775,2.842,1.6,4.166,2.457a41.9,41.9,0,0,1,5.374,4.09,77.869,77.869,0,0,1,8.031,8.267,43.968,43.968,0,0,1,4.493,6.322c.9,1.594,1.228,2.564,1.346,2.532.1-.021-.03-1.079-.788-2.811a34.346,34.346,0,0,0-4.164-6.749A67.921,67.921,0,0,0,409.316,94.849Z" transform="translate(-32.662 -61.762)"/>
    <path class="bcddbdac-a7de-41b4-b520-fd4fc623eb12" d="M382.057,82.244a61.342,61.342,0,0,0-8.447-.623c-.2.368-.392.764-.578,1.18,2.059.08,4.332.246,6.754.568C380.547,82.969,381.3,82.592,382.057,82.244Z" transform="translate(-32.662 -61.762)"/>
    <path class="bcddbdac-a7de-41b4-b520-fd4fc623eb12" d="M358.669,85.683c.081-.137.163-.281.242-.41-.782.161-1.191.3-1.179.355C357.741,85.7,358.07,85.7,358.669,85.683Z" transform="translate(-32.662 -61.762)"/>
    <path class="bcddbdac-a7de-41b4-b520-fd4fc623eb12" d="M371.924,85.857c.987.091,2.016.2,3.078.342q.9-.594,1.814-1.145c-1.572-.2-3.078-.336-4.506-.424C372.175,85.026,372.045,85.436,371.924,85.857Z" transform="translate(-32.662 -61.762)"/>
    <path class="bcddbdac-a7de-41b4-b520-fd4fc623eb12" d="M416.814,106.624a75.874,75.874,0,0,0-8.415-8.891,32.022,32.022,0,0,0-2.812-2.24c-1.009-.685-2.047-1.356-3.138-1.993a59.392,59.392,0,0,0-5.754-2.959c-.2.115-.392.227-.587.348-.347.214-.7.445-1.056.678a61.69,61.69,0,0,1,6.606,3.29c1.063.608,2.084,1.253,3.065,1.9a32.276,32.276,0,0,1,2.71,2.092,88.138,88.138,0,0,1,8.515,8.5,66.425,66.425,0,0,1,5.031,6.38c1.082,1.583,1.524,2.549,1.632,2.509s-.158-1.111-1.1-2.834A47.091,47.091,0,0,0,416.814,106.624Z" transform="translate(-32.662 -61.762)"/>
    <path class="bcddbdac-a7de-41b4-b520-fd4fc623eb12" d="M357.421,88c.1-.2.192-.389.288-.575a8.007,8.007,0,0,0-2.608.493A8.555,8.555,0,0,0,357.421,88Z" transform="translate(-32.662 -61.762)"/>
    <path class="bcddbdac-a7de-41b4-b520-fd4fc623eb12" d="M371.219,88.878c.475-.363.951-.721,1.43-1.067-.4-.051-.794-.1-1.185-.14Q371.332,88.265,371.219,88.878Z" transform="translate(-32.662 -61.762)"/>
    <path class="bcddbdac-a7de-41b4-b520-fd4fc623eb12" d="M422.333,118.405h0a15.764,15.764,0,0,0-.819-2,35.158,35.158,0,0,0-4.787-7.052,61.156,61.156,0,0,0-9.139-8.724,57.639,57.639,0,0,0-13.608-7.4c-.285-.112-.569-.215-.853-.323q-.747.544-1.509,1.141c.589.218,1.179.441,1.771.674a59.845,59.845,0,0,1,13.31,7.087,67.153,67.153,0,0,1,9.177,8.293,43.446,43.446,0,0,1,5.09,6.6c.02.032.035.059.054.091-.052-.05-.117-.106-.181-.162.1.169.209.339.315.507.037.059.079.114.116.172l.083.046c.206.357.382.676.528.946l-.034,0c.017.029.031.057.048.086l.023-.013.064.119-.026.006c.053.1.11.2.162.3l.021-.01c.209.39.33.6.384.584.032-.009.024-.159-.038-.424C422.429,118.765,422.384,118.584,422.333,118.405Z" transform="translate(-32.662 -61.762)"/>
    <path class="bcddbdac-a7de-41b4-b520-fd4fc623eb12" d="M356.678,89.624c.118-.271.234-.541.352-.8-3.232.17-5.076.672-5.034.81C352.017,89.781,353.72,89.581,356.678,89.624Z" transform="translate(-32.662 -61.762)"/>
    <path class="bcddbdac-a7de-41b4-b520-fd4fc623eb12" d="M353.8,93.006c.578-.222,1.179-.436,1.814-.638.021-.062.044-.115.065-.177a33.253,33.253,0,0,0-3.769.163,13.781,13.781,0,0,0-2.322.419c-.068.1-.132.2-.2.3.467-.016,1.333-.084,2.557-.091C352.489,92.973,353.114,92.983,353.8,93.006Z" transform="translate(-32.662 -61.762)"/>
    <path class="ecb83e76-089b-45e1-8df7-790bd2c361b2" d="M347.61,127.111c.06-.366.12-.728.19-1.095-4.87-3.138-7.507-5.464-7.66-5.278C340.039,120.835,342.579,123.569,347.61,127.111Z" transform="translate(-32.662 -61.762)"/>
    <path class="ecb83e76-089b-45e1-8df7-790bd2c361b2" d="M394.823,138.728a84.525,84.525,0,0,1-15.895-.9q.429.888.873,1.746a79.456,79.456,0,0,0,15.1.63,69.251,69.251,0,0,0,13.513-2.084,32.633,32.633,0,0,0,8.571-3.442c.179-.108.338-.213.5-.32-.067-.172-.145-.347-.222-.524-.183.1-.372.2-.578.3a38.274,38.274,0,0,1-8.542,2.887A76.418,76.418,0,0,1,394.823,138.728Z" transform="translate(-32.662 -61.762)"/>
    <path class="ecb83e76-089b-45e1-8df7-790bd2c361b2" d="M415.73,137.309a38.43,38.43,0,0,1-8.414,3.058,74.075,74.075,0,0,1-13.173,1.985,81.624,81.624,0,0,1-13.008-.32q.5.873,1.014,1.7a76.3,76.3,0,0,0,12.1.088,67.271,67.271,0,0,0,13.369-2.363,32.831,32.831,0,0,0,8.429-3.612,14.777,14.777,0,0,0,1.992-1.5c-.019-.115-.037-.228-.06-.344C417.5,136.3,416.767,136.769,415.73,137.309Z" transform="translate(-32.662 -61.762)"/>
    <path class="ecb83e76-089b-45e1-8df7-790bd2c361b2" d="M342.561,126.594a57.873,57.873,0,0,0,4.618,3.942c.031-.379.07-.764.113-1.149-1.772-1.256-3.217-2.385-4.321-3.264a16.418,16.418,0,0,0-2.664-2.009A11.462,11.462,0,0,0,342.561,126.594Z" transform="translate(-32.662 -61.762)"/>
    <path class="ecb83e76-089b-45e1-8df7-790bd2c361b2" d="M347.059,133.375c0-.384,0-.769.019-1.158-4.15-2.764-6.5-4.582-6.626-4.419C340.354,127.913,342.688,130.163,347.059,133.375Z" transform="translate(-32.662 -61.762)"/>
    <path class="ecb83e76-089b-45e1-8df7-790bd2c361b2" d="M406.331,143.784a82.061,82.061,0,0,1-12.922,2.311,55.954,55.954,0,0,1-9.555.215c.4.564.8,1.111,1.205,1.635a54.215,54.215,0,0,0,8.509-.381,73.683,73.683,0,0,0,13.081-2.691,32.949,32.949,0,0,0,8.243-3.672c1.8-1.188,2.549-2.139,2.48-2.2-.085-.093-.965.679-2.8,1.669A39.2,39.2,0,0,1,406.331,143.784Z" transform="translate(-32.662 -61.762)"/>
    <path class="ecb83e76-089b-45e1-8df7-790bd2c361b2" d="M362.2,145.868c-.232-.121-.452-.248-.679-.371.01.614.041,1.184.085,1.726.781.426,1.6.829,2.437,1.217-.56-.8-1.109-1.619-1.64-2.472C362.337,145.934,362.266,145.9,362.2,145.868Z" transform="translate(-32.662 -61.762)"/>
    <path class="ecb83e76-089b-45e1-8df7-790bd2c361b2" d="M347.167,136.41c-.034-.42-.063-.851-.081-1.295-1.125-.952-2.094-1.785-2.893-2.461a14.012,14.012,0,0,0-2.647-2.04,12.963,12.963,0,0,0,2.222,2.5C344.656,134.008,345.794,135.131,347.167,136.41Z" transform="translate(-32.662 -61.762)"/>
    <path class="ecb83e76-089b-45e1-8df7-790bd2c361b2" d="M406.745,146.555a74.6,74.6,0,0,1-12.951,3.134c-2.089.322-4.284.639-6.535.849.1.111.207.23.31.339.362.382.72.738,1.075,1.078,1.862-.226,3.66-.514,5.4-.809a67.838,67.838,0,0,0,13.1-3.53,29.617,29.617,0,0,0,8-4.5,16.66,16.66,0,0,0,1.458-1.361c.135-.28.267-.559.4-.842-.417.338-1.145.955-2.23,1.706A34.136,34.136,0,0,1,406.745,146.555Z" transform="translate(-32.662 -61.762)"/>
    <path class="ecb83e76-089b-45e1-8df7-790bd2c361b2" d="M392.272,153.588c-.472.1-.955.185-1.439.269.585.457,1.137.851,1.657,1.2.023-.007.049-.011.072-.016a57.985,57.985,0,0,0,12.528-3.978,30.228,30.228,0,0,0,7.5-4.753,8.163,8.163,0,0,0,2.156-2.44c-.165-.2-3.278,3.369-10.11,6.157A62.868,62.868,0,0,1,392.272,153.588Z" transform="translate(-32.662 -61.762)"/>
    <path class="ecb83e76-089b-45e1-8df7-790bd2c361b2" d="M347.742,140.339c-.114-.524-.219-1.076-.312-1.663-1.012-1.015-1.852-1.931-2.53-2.686a16.591,16.591,0,0,0-2.2-2.359,10.171,10.171,0,0,0,1.718,2.753A44.751,44.751,0,0,0,347.742,140.339Z" transform="translate(-32.662 -61.762)"/>
    <path class="ecb83e76-089b-45e1-8df7-790bd2c361b2" d="M368.141,153.535q-1.083-1.164-2.123-2.456c-1.457-.58-2.859-1.206-4.182-1.877.118.732.253,1.345.382,1.848A49.758,49.758,0,0,0,368.141,153.535Z" transform="translate(-32.662 -61.762)"/>
    <path class="ecb83e76-089b-45e1-8df7-790bd2c361b2" d="M394.012,155.986c.475.265.9.481,1.237.638.233.108.46.2.688.3a46.885,46.885,0,0,0,6.765-2.484,27.349,27.349,0,0,0,7-4.483,7.152,7.152,0,0,0,1.975-2.322c-.164-.192-3.036,3.181-9.431,5.767A53.232,53.232,0,0,1,394.012,155.986Z" transform="translate(-32.662 -61.762)"/>
    <path class="ecb83e76-089b-45e1-8df7-790bd2c361b2" d="M370.592,155.928a43.438,43.438,0,0,1-7.857-3.182c.157.449.322.879.5,1.281.124.284.222.487.282.611l.1.235a41.864,41.864,0,0,0,9.9,3.427c-.783-.566-1.582-1.184-2.4-1.9C370.94,156.251,370.767,156.085,370.592,155.928Z" transform="translate(-32.662 -61.762)"/>
    <path class="ecb83e76-089b-45e1-8df7-790bd2c361b2" d="M346.645,139.915c-1.309-1.423-2.025-2.226-2.117-2.155a9.494,9.494,0,0,0,1.638,2.555c.608.8,1.388,1.777,2.346,2.862-.183-.548-.366-1.169-.539-1.848C347.479,140.812,347.032,140.333,346.645,139.915Z" transform="translate(-32.662 -61.762)"/>
    <path class="e3b927cd-d7cd-4b2f-8a64-b0a0b1a1c9d0" d="M353.6,100.168q.1-.544.207-1.083a28.919,28.919,0,0,0-9.078,4.4c-.466.35-.858.671-1.2.961-.037.106-.075.21-.111.316.407-.3.892-.642,1.485-1.019A29.861,29.861,0,0,1,353.6,100.168Z" transform="translate(-32.662 -61.762)"/>
    <path class="e3b927cd-d7cd-4b2f-8a64-b0a0b1a1c9d0" d="M415.1,117.986a55.267,55.267,0,0,0-11.4-9.847,66.071,66.071,0,0,0-16.652-8.006c-.6-.183-1.189-.347-1.783-.511-.085.083-.171.162-.256.245-.467.464-.921.924-1.37,1.383.937.248,1.875.509,2.816.8a73.2,73.2,0,0,1,16.337,7.516,59.639,59.639,0,0,1,11.569,9.1,29.52,29.52,0,0,1,5.751,8.074c.272.6.477,1.131.639,1.593.027-.113.061-.224.089-.337-.114-.412-.254-.866-.436-1.375A28.527,28.527,0,0,0,415.1,117.986Z" transform="translate(-32.662 -61.762)"/>
    <path class="e3b927cd-d7cd-4b2f-8a64-b0a0b1a1c9d0" d="M414.864,120.833a61.845,61.845,0,0,0-11.6-9.76,59.653,59.653,0,0,0-16.853-7.879c-1.23-.364-2.454-.7-3.673-1.006q-.792.826-1.546,1.648,2.306.584,4.651,1.279a64.532,64.532,0,0,1,16.512,7.382,67.546,67.546,0,0,1,11.789,9.027,24.106,24.106,0,0,1,5.844,8.042c.1.262.18.51.248.748.048-.17.086-.338.133-.508-.03-.115-.049-.22-.084-.339C419.624,127.117,417.774,124.033,414.864,120.833Z" transform="translate(-32.662 -61.762)"/>
    <path class="e3b927cd-d7cd-4b2f-8a64-b0a0b1a1c9d0" d="M353.27,102.222q.079-.544.166-1.082c-.132.038-.271.07-.4.108a27.167,27.167,0,0,0-9.12,4.577c-.328.258-.618.5-.884.725a.347.347,0,0,1-.025.116c-.04.088-.08.176-.119.265.349-.259.747-.544,1.211-.853A28.054,28.054,0,0,1,353.27,102.222Z" transform="translate(-32.662 -61.762)"/>
    <path class="e3b927cd-d7cd-4b2f-8a64-b0a0b1a1c9d0" d="M415.58,115.4a52.38,52.38,0,0,0-11.056-9.955,64.813,64.813,0,0,0-16.4-7.986c-.14-.044-.279-.082-.418-.126-.563.508-1.13,1.035-1.7,1.575.5.15,1,.3,1.5.459a71.377,71.377,0,0,1,16.09,7.49,56.275,56.275,0,0,1,11.227,9.2,42.572,42.572,0,0,1,5.856,7.909c.281.5.521.94.725,1.332.021-.108.047-.213.066-.322-.149-.353-.315-.731-.512-1.156A39.882,39.882,0,0,0,415.58,115.4Z" transform="translate(-32.662 -61.762)"/>
    <path class="e3b927cd-d7cd-4b2f-8a64-b0a0b1a1c9d0" d="M354.113,97.644c.079-.349.166-.69.251-1.034a34.834,34.834,0,0,0-8.065,3.846c-.691.456-1.242.853-1.683,1.185l-.1.232c.491-.313,1.131-.7,1.945-1.147A36.394,36.394,0,0,1,354.113,97.644Z" transform="translate(-32.662 -61.762)"/>
    <path class="e3b927cd-d7cd-4b2f-8a64-b0a0b1a1c9d0" d="M415.274,113.494a32.9,32.9,0,0,1,5.618,8c.142.3.266.572.38.835.009,0,.017.009.026.011l.108-.342c-.07-.2-.139-.4-.226-.629a31.47,31.47,0,0,0-5.149-8.537,55.787,55.787,0,0,0-10.958-9.994,62.154,62.154,0,0,0-14.75-7.759q-.882.721-1.772,1.5a67,67,0,0,1,15.572,7.651A60.162,60.162,0,0,1,415.274,113.494Z" transform="translate(-32.662 -61.762)"/>
    <path class="e3b927cd-d7cd-4b2f-8a64-b0a0b1a1c9d0" d="M354.871,94.719c.1-.357.209-.712.32-1.061a27.832,27.832,0,0,0-7.9,4.17c-.592.462-1.068.871-1.458,1.223-.053.105-.1.21-.156.316.451-.353,1.039-.787,1.793-1.283A28.639,28.639,0,0,1,354.871,94.719Z" transform="translate(-32.662 -61.762)"/>
    <path class="e3b927cd-d7cd-4b2f-8a64-b0a0b1a1c9d0" d="M419.6,132.417c-.117-.43-.265-.919-.461-1.462a25.463,25.463,0,0,0-5.585-8.488c-5.922-6.308-16.339-12.758-28.909-16.66-1.4-.433-2.8-.818-4.184-1.17q-.751.838-1.468,1.672c1.673.419,3.361.886,5.058,1.412,12.287,3.816,22.672,9.66,28.8,15.456a26.143,26.143,0,0,1,6,7.9,17.39,17.39,0,0,1,.654,1.648l0-.011c.082-.1.119-.168.1-.183s-.028,0-.047,0C419.571,132.491,419.584,132.454,419.6,132.417Z" transform="translate(-32.662 -61.762)"/>
    <path class="e3b927cd-d7cd-4b2f-8a64-b0a0b1a1c9d0" d="M351.671,105.131c.412-.108.841-.2,1.273-.3.04-.385.077-.771.124-1.153-.575.15-1.136.312-1.676.487a22.257,22.257,0,0,0-8.816,5.051c-.421.415-.777.8-1.076,1.144-.04.125-.072.251-.109.376.371-.375.825-.807,1.393-1.284A22.618,22.618,0,0,1,351.671,105.131Z" transform="translate(-32.662 -61.762)"/>
    <path class="e3b927cd-d7cd-4b2f-8a64-b0a0b1a1c9d0" d="M351.828,107.687c.286-.063.588-.114.884-.17.024-.372.056-.74.086-1.111-.408.1-.814.2-1.2.307a25.542,25.542,0,0,0-9,4.3c-.648.505-1.16.956-1.559,1.336,0,.064-.01.127-.013.192.443-.359,1.021-.794,1.753-1.275A26.344,26.344,0,0,1,351.828,107.687Z" transform="translate(-32.662 -61.762)"/>
    <path class="e3b927cd-d7cd-4b2f-8a64-b0a0b1a1c9d0" d="M412.722,124.9a60.978,60.978,0,0,0-11.911-8.817,82.329,82.329,0,0,0-16.566-7.437c-1.978-.615-3.948-1.133-5.9-1.574q-.708.844-1.382,1.688c2.2.5,4.438,1.1,6.684,1.8a95.166,95.166,0,0,1,16.334,7,66.21,66.21,0,0,1,12.057,8.079,23.809,23.809,0,0,1,6.124,7.54,13.148,13.148,0,0,1,.624,1.632c.037-.1.073-.195.107-.292a13.68,13.68,0,0,0-.443-1.459A23.338,23.338,0,0,0,412.722,124.9Z" transform="translate(-32.662 -61.762)"/>
    <path class="b66cc860-dff4-479b-bfae-1702da912165" d="M376.355,92.754a71.008,71.008,0,0,0-5.961,5.5c-.011.913,0,1.854.022,2.807a78.059,78.059,0,0,1,7.028-7.012,59.484,59.484,0,0,1,12.114-8.36,30.8,30.8,0,0,1,8.56-2.979c-.216-.106-.433-.206-.649-.307a30.251,30.251,0,0,0-8.335,2.379A55.257,55.257,0,0,0,376.355,92.754Z" transform="translate(-32.662 -61.762)"/>
    <path class="b66cc860-dff4-479b-bfae-1702da912165" d="M353.941,137.727a45.513,45.513,0,0,1,1.253-7.775c-.289-.948-.565-1.9-.817-2.866a45.744,45.744,0,0,0-1.437,10.6,28.938,28.938,0,0,0,1.52,10.016,21.5,21.5,0,0,0,1.175,2.722l0,0,.1.071a22.706,22.706,0,0,1-.98-2.889A30.051,30.051,0,0,1,353.941,137.727Z" transform="translate(-32.662 -61.762)"/>
    <path class="b66cc860-dff4-479b-bfae-1702da912165" d="M379.026,94.043a64.7,64.7,0,0,0-8.569,8.424c.022.578.048,1.158.082,1.747.026.408.059.8.087,1.208a68.743,68.743,0,0,1,9.492-10.09,67.415,67.415,0,0,1,12.114-8.588,27.585,27.585,0,0,1,7.876-3c-.228-.118-.454-.237-.682-.358a28.284,28.284,0,0,0-7.643,2.466A61.718,61.718,0,0,0,379.026,94.043Z" transform="translate(-32.662 -61.762)"/>
    <path class="b66cc860-dff4-479b-bfae-1702da912165" d="M355.779,139.152a36.925,36.925,0,0,1,.763-5.215q-.444-1.194-.849-2.41a37.811,37.811,0,0,0-.914,7.584,27.2,27.2,0,0,0,1.673,10.066,24.3,24.3,0,0,0,1.248,2.772l.1.076a25.966,25.966,0,0,1-1.051-2.947A28.026,28.026,0,0,1,355.779,139.152Z" transform="translate(-32.662 -61.762)"/>
    <path class="b66cc860-dff4-479b-bfae-1702da912165" d="M374.024,91.17c-1.161.924-2.317,1.922-3.461,2.981q-.094,1.317-.136,2.717c1.535-1.586,3.1-3.055,4.673-4.4a56.258,56.258,0,0,1,12.111-8,43.139,43.139,0,0,1,8.151-2.983c-.235-.095-.471-.189-.706-.28a40.509,40.509,0,0,0-7.852,2.348A52.478,52.478,0,0,0,374.024,91.17Z" transform="translate(-32.662 -61.762)"/>
    <path class="b66cc860-dff4-479b-bfae-1702da912165" d="M351.728,135.429a48.715,48.715,0,0,1,2.051-10.891c-.238-1.154-.432-2.33-.6-3.517a47.662,47.662,0,0,0-2.452,14.374,35.033,35.033,0,0,0,1.3,9.914,29.011,29.011,0,0,0,1.1,3.165l.042.036a31.979,31.979,0,0,1-.836-3.273A37.057,37.057,0,0,1,351.728,135.429Z" transform="translate(-32.662 -61.762)"/>
    <path class="b66cc860-dff4-479b-bfae-1702da912165" d="M371.7,89.875c-.246.192-.5.4-.742.593-.119.815-.222,1.659-.3,2.542.7-.623,1.4-1.232,2.1-1.813a60.254,60.254,0,0,1,12.139-7.915,34.551,34.551,0,0,1,7.973-2.757l-.822-.309a33.737,33.737,0,0,0-7.555,2.151A55.68,55.68,0,0,0,371.7,89.875Z" transform="translate(-32.662 -61.762)"/>
    <path class="b66cc860-dff4-479b-bfae-1702da912165" d="M349.143,133.78a48.721,48.721,0,0,1,3.731-15.334q-.191-1.97-.258-4.018c-3.041,7.007-4.535,13.819-4.474,19.324a28.208,28.208,0,0,0,1.669,9.834,23.849,23.849,0,0,0,1.175,2.646c.055.069.107.142.163.211a24.984,24.984,0,0,1-1.04-2.954A29.188,29.188,0,0,1,349.143,133.78Z" transform="translate(-32.662 -61.762)"/>
    <path class="b66cc860-dff4-479b-bfae-1702da912165" d="M370.76,107.131c.088,1.008.188,2,.3,2.968,7.083-9.972,15.322-17.666,22.366-21.629a26.282,26.282,0,0,1,9.245-3.385q-.257-.141-.516-.279a26.2,26.2,0,0,0-9.2,2.779C385.95,91,377.76,97.87,370.76,107.131Z" transform="translate(-32.662 -61.762)"/>
    <path class="b66cc860-dff4-479b-bfae-1702da912165" d="M358.085,141.563c.045-1,.15-2.053.305-3.133q-.483-1.068-.936-2.166a33.628,33.628,0,0,0-.37,5.281,22.25,22.25,0,0,0,2.216,9.915,16.91,16.91,0,0,0,1.873,2.927c.016.008.031.019.046.028a17.644,17.644,0,0,1-1.634-3.083A22.58,22.58,0,0,1,358.085,141.563Z" transform="translate(-32.662 -61.762)"/>
    <path class="b66cc860-dff4-479b-bfae-1702da912165" d="M360.529,142.742q-.461-.847-.9-1.721c-.022.364-.047.73-.056,1.085a25.565,25.565,0,0,0,1.445,9.869,18.682,18.682,0,0,0,1.46,3.074l.032.013a19.657,19.657,0,0,1-1.195-3.184A26.114,26.114,0,0,1,360.529,142.742Z" transform="translate(-32.662 -61.762)"/>
    <path class="b66cc860-dff4-479b-bfae-1702da912165" d="M383.084,97.864A82.671,82.671,0,0,0,371.2,111.319c.126,1.008.27,1.991.422,2.962.364-.553.73-1.107,1.108-1.658A95.213,95.213,0,0,1,384.247,99.09a66.561,66.561,0,0,1,11.285-9.124,23.784,23.784,0,0,1,9.016-3.617l.118-.012c-.132-.095-.265-.187-.4-.278a23.666,23.666,0,0,0-9.232,3.039A60.7,60.7,0,0,0,383.084,97.864Z" transform="translate(-32.662 -61.762)"/>
    <path class="a223d999-6764-4dfd-9615-87472dc511ae" d="M363.16,124.432a75.076,75.076,0,0,1-2.237-18.309,61.033,61.033,0,0,1,1.716-15,30.218,30.218,0,0,1,3.956-9.368c.434-.641.832-1.155,1.18-1.573-.109.033-.217.072-.327.107-.336.353-.709.773-1.112,1.277a29.153,29.153,0,0,0-4.686,9.271,56.677,56.677,0,0,0-2.463,15.253,67.918,67.918,0,0,0,1.98,18.854c3.425,13.091,10.34,23.72,16.974,29.572a30.988,30.988,0,0,0,7.447,5.011.12.12,0,0,1,.019,0c.264-.01.525-.033.787-.049a31.67,31.67,0,0,1-7.546-5.709C372.739,147.7,366.48,137.128,363.16,124.432Z" transform="translate(-32.662 -61.762)"/>
    <path class="a223d999-6764-4dfd-9615-87472dc511ae" d="M372.6,140.839a96.988,96.988,0,0,1-6.427-17.519,66.194,66.194,0,0,1-2.449-18.394,69.022,69.022,0,0,1,1.538-15.151c.954-4.234,2.372-7.52,3.875-9.428.179-.233.357-.442.532-.632-.148.029-.3.056-.446.089-.111.112-.219.212-.332.337-1.7,1.836-3.4,5.109-4.625,9.373A63.253,63.253,0,0,0,361.99,104.9a61.076,61.076,0,0,0,2.2,18.961,84.577,84.577,0,0,0,6.869,17.776,45.359,45.359,0,0,0,9.426,12.422,28.382,28.382,0,0,0,8.176,5.216c.225-.029.448-.067.672-.1a28.852,28.852,0,0,1-8.14-5.861A47.47,47.47,0,0,1,372.6,140.839Z" transform="translate(-32.662 -61.762)"/>
    <path class="a223d999-6764-4dfd-9615-87472dc511ae" d="M366.749,141.953a70.764,70.764,0,0,1-6.5-17,73.168,73.168,0,0,1-2.128-18.085,57.624,57.624,0,0,1,1.989-14.754,43.634,43.634,0,0,1,3.757-9.367c.265-.483.507-.9.729-1.271-.129.065-.26.129-.387.2-.194.277-.4.572-.618.907a40.748,40.748,0,0,0-4.463,9.228,53.767,53.767,0,0,0-2.743,15.01,66.324,66.324,0,0,0,1.865,18.619,64.312,64.312,0,0,0,6.989,17.367,49.157,49.157,0,0,0,9.629,11.871,36.909,36.909,0,0,0,6.818,4.805c.293,0,.588,0,.883,0a38.6,38.6,0,0,1-7-5.56A52.084,52.084,0,0,1,366.749,141.953Z" transform="translate(-32.662 -61.762)"/>
    <path class="a223d999-6764-4dfd-9615-87472dc511ae" d="M357.331,125.854a68.149,68.149,0,0,1-1.779-18.036A61.681,61.681,0,0,1,357.628,93.1,33.713,33.713,0,0,1,361.6,83.89c.23-.355.443-.665.646-.952q-.444.335-.853.7c-.02.025-.037.045-.056.071a32.22,32.22,0,0,0-4.688,9.09,57.007,57.007,0,0,0-2.83,14.945,62.4,62.4,0,0,0,1.52,18.616c3.285,12.879,9.863,23.525,16.517,29.207a30.176,30.176,0,0,0,6.581,4.411c.212-.077.424-.15.643-.206a30.919,30.919,0,0,1-6.526-4.96C366.438,148.92,360.527,138.371,357.331,125.854Z" transform="translate(-32.662 -61.762)"/>
    <path class="a223d999-6764-4dfd-9615-87472dc511ae" d="M375.87,140.881a85.067,85.067,0,0,1-6.448-17.4c-3.291-12.786-3.782-25-2.016-33.467a26.775,26.775,0,0,1,3.668-9.489c.3-.446.585-.832.851-1.167l-.314.042c-.251.276-.516.582-.8.937a26.112,26.112,0,0,0-4.409,9.441c-2.322,8.567-2.344,21.135,1.025,34.214a75.571,75.571,0,0,0,6.91,17.7,44.105,44.105,0,0,0,9.586,12.228,23.444,23.444,0,0,0,8.252,4.72c.228-.052.457-.1.685-.16a23.446,23.446,0,0,1-8.246-5.32A46.066,46.066,0,0,1,375.87,140.881Z" transform="translate(-32.662 -61.762)"/>
    <path class="a223d999-6764-4dfd-9615-87472dc511ae" d="M386.764,151.65c-5.9-6.114-11.431-16.817-14.651-29.339a97.744,97.744,0,0,1-2.69-18.035,68.183,68.183,0,0,1,.563-14.875,24.367,24.367,0,0,1,3.293-9.4c.244-.365.481-.687.707-.971-.12.025-.241.046-.361.069-.2.216-.4.45-.607.715a23.867,23.867,0,0,0-4.041,9.39,62.3,62.3,0,0,0-1.289,15.146,84.431,84.431,0,0,0,2.432,18.472c3.3,12.835,9.473,23.633,15.92,29.563a26.308,26.308,0,0,0,8.613,5.55l.09.031c.148-.045.3-.094.444-.142-.132-.057-.267-.118-.41-.183A27.08,27.08,0,0,1,386.764,151.65Z" transform="translate(-32.662 -61.762)"/>
    <path class="b8b7b9af-008f-4e98-979a-bc77556fa25d" d="M340.539,130.017q-.121-.233-.242-.467l-.061-.117a3.47,3.47,0,0,1-.329-1l-34.125,12.274c-.494.178-5.957,2.593-5.779,3.087s5.928-1.125,6.421-1.3l34.223-12.308A1.963,1.963,0,0,1,340.539,130.017Z" transform="translate(-32.662 -61.762)"/>
    <path class="b8b7b9af-008f-4e98-979a-bc77556fa25d" d="M408.965,89.772,433.33,69.4a4.258,4.258,0,1,0-1.216-1.456L407.8,88.274A10.4,10.4,0,0,1,408.965,89.772ZM434.453,63.96A1.861,1.861,0,1,1,435,66.534,1.861,1.861,0,0,1,434.453,63.96Z" transform="translate(-32.662 -61.762)"/>
    <path class="b8b7b9af-008f-4e98-979a-bc77556fa25d" d="M433.66,91.2a4.252,4.252,0,0,0-2.778,4.513l-12.336,4.438c.348.675.348.912.782,1.735l12.2-4.387a4.252,4.252,0,1,0,2.135-6.3Zm3.37,4.041a1.86,1.86,0,1,1-.547-2.574A1.859,1.859,0,0,1,437.03,95.236Z" transform="translate(-32.662 -61.762)"/>
    <path class="b8b7b9af-008f-4e98-979a-bc77556fa25d" d="M346.186,142.107c-.089-.119-.186-.231-.284-.344l-.009-.011c-.021-.025-.045-.047-.066-.074s-.058-.077-.089-.115l-.026-.031h0a6.161,6.161,0,0,1-.571-.874L330.117,153.22c-.4.337-4.7,4.484-4.366,4.887s5.18-3.095,5.583-3.431l14.931-12.483c-.06-.072-.117-.145-.173-.221Z" transform="translate(-32.662 -61.762)"/>
  </g>
  <path class="b66cc860-dff4-479b-bfae-1702da912165" d="M203.087,477.49s-37.607,10.785-42.857,12.645c-4.777,1.688-17.723,6.222-27.436,4.82a21.273,21.273,0,0,1-2.775-.6c-9.841-2.933-14.261-5.665-15.549-11.859s3.605-10.743,8.325-13.661,30.326-5.965,30.326-5.965l6.18,1.817h.014Z" transform="translate(-32.662 -61.762)"/>
  <path class="b8b7b9af-008f-4e98-979a-bc77556fa25d" d="M132.794,494.955a21.273,21.273,0,0,1-2.775-.6c-9.841-2.933-14.261-5.665-15.549-11.859s3.605-10.743,8.325-13.661,30.326-5.965,30.326-5.965l6.18,1.817c-5.593,2.575-26.449,4-31,6.623s-6.752,7.553-4.063,14.219C125.671,489.076,129.5,492.509,132.794,494.955Z" transform="translate(-32.662 -61.762)"/>
  <path class="f0246eb1-f7a8-461b-b0bc-463f62a6ff7c" d="M197.429,479.023s-28.243,7.318-39.442,12-32.567,6.733-40.177-2.927-.878-17.969,6.732-19.815,23-4.773,31.405-3.6" transform="translate(-32.662 -61.762)"/>
  <path class="f0246eb1-f7a8-461b-b0bc-463f62a6ff7c" d="M133.361,494.441s-14.37-7.878-9.6-18.923c3.521-8.15,22.692-6.383,32.184-10.838" transform="translate(-32.662 -61.762)"/>
  <path class="b66cc860-dff4-479b-bfae-1702da912165" d="M317.623,496.7c-.386,3.847-1.745,7.538-5.636,9.827-2.589,1.53-6.279,2.446-11.558,2.389-13.189-.172-37.978-9.6-37.978-9.6l-23.217-12.831,12.074-19.111,3.3-5.235,8.54,1.917s7.066,4,14.176,7.195,24.36,3.862,30.44,8.783S318.281,490.292,317.623,496.7Z" transform="translate(-32.662 -61.762)"/>
  <path class="b8b7b9af-008f-4e98-979a-bc77556fa25d" d="M317.623,496.7c-.386,3.847-1.745,7.538-5.636,9.827a17.38,17.38,0,0,0-.658-11.587c-2.575-5.822-11.028-10.957-22.129-11.816s-19.6-6.05-24.046-8.368c-3.476-1.8-10.8-5.736-13.846-7.381l3.3-5.235,8.54,1.917s7.066,4,14.176,7.195,24.36,3.862,30.44,8.783S318.281,490.292,317.623,496.7Z" transform="translate(-32.662 -61.762)"/>
  <path class="f0246eb1-f7a8-461b-b0bc-463f62a6ff7c" d="M244.379,490.084c16.527,9.468,35.43,16.285,54.34,18.563,4.221.508,9.136.579,11.965-2.595a8.85,8.85,0,0,0,1.95-6.633c-.512-5.96-5.523-10.686-11.018-13.048s-11.565-2.926-17.4-4.235a68.745,68.745,0,0,1-16.734-6.122c-4.2-2.189-8.258-4.848-12.888-5.828s-10.146.208-12.616,4.246" transform="translate(-32.662 -61.762)"/>
  <path class="f0246eb1-f7a8-461b-b0bc-463f62a6ff7c" d="M309.135,507.669c4.273-2.193,7.781-6.22,8.493-10.969.841-5.618-2.358-11.265-6.866-14.721s-10.141-5.077-15.7-6.234-11.25-1.933-16.541-4c-8.135-3.178-16.158-9.456-24.6-7.216" transform="translate(-32.662 -61.762)"/>
  <path class="ecb83e76-089b-45e1-8df7-790bd2c361b2" d="M270.576,289.2,231.3,274.251l-.486-.186s.143-1.044.258-2.561c.243-3.132.371-8.239-1.1-9.97-2.188-2.561-8.4-.415-14.448-3.19s-17.251,2.189-17.251,2.189-8.082-1.488-11.644,4.348c-1.816,4.706-1.187,11.716-1.187,11.716s-.257.1-.744.271c-4.677,1.746-30.139,11.33-35.532,15.178-5.951,4.219-12.531,47.491-14.648,60.193-2.117,12.717-5.879,24.16-3.962,28.537,1.9,4.363,29.267,25.434,45,30.87s71.565,3.848,71.565,3.848.916-.244,2.532-.759c9.441-3.032,42.942-15.52,60.709-44.973C310.357,369.762,293.148,313.316,270.576,289.2ZM164.45,361.98c-2.889,2.046-1.344,9.985-1.344,9.985l-4.921-4.334,12.345-30.355,5.264,23.3S167.34,359.949,164.45,361.98Zm98.759,19.283c-1.359.7,3.9-13.89,1.4-17.194-2.5-3.319-10-2.99-10-2.99l.643-3.991c.086-.443,4.449-22.816,4.449-22.816l1.474-1.759s15.277,26.192,18.009,35.418C279.187,367.931,262.536,381.263,263.209,381.263Z" transform="translate(-32.662 -61.762)"/>
  <path class="b8b7b9af-008f-4e98-979a-bc77556fa25d" d="M196.411,194.524l-20.273,21.524s-2.8,2.471-1.685,8.715,3.7,11.608,5.654,12.024a27.806,27.806,0,0,0,4.694.42s4.345,9.415,7.421,13.116c0,0,1.073,14.532.5,18.567,0,0,7.283,6.362,14.143,7.171s17.461-9.7,17.461-9.7l2.627-12.867s6.219-9.441,6.644-11.954,3.267-1.869,4.664-3.108,4.631-6.785,5.165-12.024.571-11.257-5.515-9.49c-5.273-1.417-1.972-12.566-1.972-12.566l-9.266-8.176Z" transform="translate(-32.662 -61.762)"/>
  <path class="a95eaeca-229d-473e-a7f0-6e62cfc36f41" d="M231.3,274.251a20.742,20.742,0,0,1-1.044,2.346c-3.347,6.308-17.923,18.324-17.923,18.324l-4.406-13.547L205.5,294.921c-4.863-2.118-19.7-14.977-19.7-14.977s-.5-1.2-1.116-3.076c.487-.171.744-.271.744-.271s-.629-7.01,1.187-11.716c3.562-5.836,11.644-4.348,11.644-4.348s11.2-4.964,17.251-2.189,12.26.629,14.448,3.19.844,12.531.844,12.531Z" transform="translate(-32.662 -61.762)"/>
  <path class="be9d5092-9ba6-4675-aa2b-dfa590278a58" d="M270.576,289.2,231.3,274.251l-.486-.186s.143-1.044.258-2.561l-.816,5.093-5.808,7.9a159.063,159.063,0,0,1,18.125,7.988A15.922,15.922,0,0,1,250.9,308.36l-7.242,61.917-2.961,35.16,8.955,9.3c9.441-3.032,42.942-15.52,60.709-44.973C310.357,369.762,293.148,313.316,270.576,289.2Zm-7.367,92.064c-1.359.7,3.9-13.89,1.4-17.194-2.5-3.319-10-2.99-10-2.99l.643-3.991c.086-.443,4.449-22.816,4.449-22.816l1.474-1.759s15.277,26.192,18.009,35.418C279.187,367.931,262.536,381.263,263.209,381.263Z" transform="translate(-32.662 -61.762)"/>
  <path class="be9d5092-9ba6-4675-aa2b-dfa590278a58" d="M178.454,364.069l-6.108-20.413s-10.951-37.351-18.461-46.563l1.975,26.268s-6.444,31.381-12.409,40.708c-5.965,9.312-7.252,11.644,0,11.644,7.267,0,24.89,14.061,24.89,14.061l-1.359-11.73Zm-15.348,7.9-4.921-4.334,12.345-30.355,5.264,23.3s-8.454-.629-11.344,1.4S163.106,371.965,163.106,371.965Z" transform="translate(-32.662 -61.762)"/>
  <path class="f0246eb1-f7a8-461b-b0bc-463f62a6ff7c" d="M192.222,250.323s1.128,11.006,0,16.035" transform="translate(-32.662 -61.762)"/>
  <path class="f0246eb1-f7a8-461b-b0bc-463f62a6ff7c" d="M225.449,264.884a47.146,47.146,0,0,1,1.226-10.516" transform="translate(-32.662 -61.762)"/>
  <path class="f0246eb1-f7a8-461b-b0bc-463f62a6ff7c" d="M228.4,202.73s6.659,8.367,6.318,14.684-.854,13.831-.683,21.174S222.251,261.3,216.1,262.663s-11.44,1.708-15.368-2.219-7.854-9.392-12.977-16.392-3.927-22.369-3.927-22.369" transform="translate(-32.662 -61.762)"/>
  <path class="f0246eb1-f7a8-461b-b0bc-463f62a6ff7c" d="M212.369,227.539a34.613,34.613,0,0,0-.519,6.96c.052,1.95.341,4.058,1.708,5.451.736.751,1.805,1.351,1.945,2.393a2.528,2.528,0,0,1-1.368,2.266,19.269,19.269,0,0,0-2.4,1.426" transform="translate(-32.662 -61.762)"/>
  <path class="f0246eb1-f7a8-461b-b0bc-463f62a6ff7c" d="M201.794,246.847s.77,4.963,7.426,6" transform="translate(-32.662 -61.762)"/>
  <path class="a3e7c60d-dead-46a0-be19-5bc23e3a336c" d="M202.487,231.323c0,1.435-.62,2.6-1.386,2.6s-1.384-1.162-1.384-2.6.62-2.6,1.384-2.6S202.487,229.889,202.487,231.323Z" transform="translate(-32.662 -61.762)"/>
  <path class="a3e7c60d-dead-46a0-be19-5bc23e3a336c" d="M222.339,231.947c0,1.434-.62,2.6-1.385,2.6s-1.385-1.163-1.385-2.6.62-2.6,1.385-2.6S222.339,230.513,222.339,231.947Z" transform="translate(-32.662 -61.762)"/>
  <path class="aa589885-61d5-4f7a-88b6-f58983ad120a" d="M218.334,225.66s6.455-6.455,11.917.745" transform="translate(-32.662 -61.762)"/>
  <path class="aa589885-61d5-4f7a-88b6-f58983ad120a" d="M204.679,225.784s-4.1-4.593-10.551,0" transform="translate(-32.662 -61.762)"/>
  <path class="a3e7c60d-dead-46a0-be19-5bc23e3a336c" d="M192.724,256.371s3.953,10.9,12.783,13.989,20.554-12.95,20.554-12.95l-.612-2.086s-7.683,9.982-16.229,8.28-17-13.281-17-13.281Z" transform="translate(-32.662 -61.762)"/>
  <path class="f0246eb1-f7a8-461b-b0bc-463f62a6ff7c" d="M184.8,236.787s-5.264,1.859-6.663-2.243-6.2-14.9-2-18.5,7.573,4.751,7.573,4.751" transform="translate(-32.662 -61.762)"/>
  <path class="f0246eb1-f7a8-461b-b0bc-463f62a6ff7c" d="M234.023,239.023s4.892.984,6.292-3.117,6.2-14.9,2-18.5-7.572,4.751-7.572,4.751" transform="translate(-32.662 -61.762)"/>
  <path class="f94fbe06-b2eb-4c26-9120-2e38aa003739" d="M183.711,231.323a7.3,7.3,0,0,0,4.619-2.729,11.486,11.486,0,0,0,1.342-4.139,49.856,49.856,0,0,0,.732-8.343,11.234,11.234,0,0,1,.293-3.252,8.36,8.36,0,0,1,1.76-2.894c1.837-2.152,4.049-3.972,5.8-6.2s3.03-5.047,2.558-7.837c0,0,11.936,10.911,29.143,7.537,9.263-1.817,18.154-9.947,17.072-20.163a8.266,8.266,0,0,0-6.527-7.113c-4.58-1.139-8.694,1.3-12.842,2.866-7.564,2.853-14.965-2.046-22.606-2.868-6.535-.7-14.557.108-17.96,6.606,0,0-11.739,1.379-16.881,11.02s4.633,22.989,4.633,22.989,3.934-4.763,8.989,4.878Z" transform="translate(-32.662 -61.762)"/>
  <path class="f94fbe06-b2eb-4c26-9120-2e38aa003739" d="M229.137,200.265s-3.035,15.818,4.886,23.478c0,0,1.734-4.755,3.491-5.916a18.338,18.338,0,0,0-1.388-17.562C230.331,191.059,229.137,200.265,229.137,200.265Z" transform="translate(-32.662 -61.762)"/>
  <path class="b5e08077-7370-4bba-8556-02e9d02a1a49" d="M243.647,182.263c-1.172,4.359-4.858,7.732-9.039,9.435-11,4.479-21.676-.488-32.686-1.461-9-.8-18.918,7.311-19.546,16.548" transform="translate(-32.662 -61.762)"/>
  <path class="b5e08077-7370-4bba-8556-02e9d02a1a49" d="M175.547,204.349a19.223,19.223,0,0,1,11.713-16.963" transform="translate(-32.662 -61.762)"/>
  <path class="f0246eb1-f7a8-461b-b0bc-463f62a6ff7c" d="M189.687,264.884s7.245,7.983,17.124,11.715c0,0,13.163-3.817,19.864-13" transform="translate(-32.662 -61.762)"/>
  <circle class="f0246eb1-f7a8-461b-b0bc-463f62a6ff7c" cx="198.268" cy="231.323" r="11.649" transform="translate(-113.22 46.773) rotate(-25.632)"/>
  <circle class="f0246eb1-f7a8-461b-b0bc-463f62a6ff7c" cx="224.292" cy="231.323" r="11.648" transform="translate(-59.544 -32.253) rotate(-7.103)"/>
  <path class="f0246eb1-f7a8-461b-b0bc-463f62a6ff7c" d="M192.222,260.539a9.131,9.131,0,0,0-5.6,4.345c-2.061,3.627-.818,15.054-.818,15.054s10.643,10.533,19.706,14.976l2.674-15.034,4.149,15.034s14.035-9.926,17.921-18.315c0,0,1.267-9.782,0-13a4.483,4.483,0,0,0-4.19-3.065" transform="translate(-32.662 -61.762)"/>
  <path class="f0246eb1-f7a8-461b-b0bc-463f62a6ff7c" d="M175.547,361.083s-4.154-27.874-9.692-39.247" transform="translate(-32.662 -61.762)"/>
  <path class="f0246eb1-f7a8-461b-b0bc-463f62a6ff7c" d="M153.885,297.093A112.848,112.848,0,0,1,162.5,311.5" transform="translate(-32.662 -61.762)"/>
  <path class="f0246eb1-f7a8-461b-b0bc-463f62a6ff7c" d="M263.21,317.9a80.453,80.453,0,0,1,4.576-13.606" transform="translate(-32.662 -61.762)"/>
  <path class="f0246eb1-f7a8-461b-b0bc-463f62a6ff7c" d="M254.61,361.083s3-19.109,6.574-34.858" transform="translate(-32.662 -61.762)"/>
  <path class="f0246eb1-f7a8-461b-b0bc-463f62a6ff7c" d="M259.7,334.266a21.989,21.989,0,0,1,11.6-7.929" transform="translate(-32.662 -61.762)"/>
  <path class="f0246eb1-f7a8-461b-b0bc-463f62a6ff7c" d="M230.814,274.064s24.17,9.654,39.768,15.137c0,0,19.192,18.049,39.769,80.562,0,0-18.862,31.719-54.724,41.888" transform="translate(-32.662 -61.762)"/>
  <path class="f0246eb1-f7a8-461b-b0bc-463f62a6ff7c" d="M261.856,382.4l17.328-14.468s9.167-6.967,18.7-2.2" transform="translate(-32.662 -61.762)"/>
  <path class="f0246eb1-f7a8-461b-b0bc-463f62a6ff7c" d="M261.184,332.517s14.333,21.113,18,35.413" transform="translate(-32.662 -61.762)"/>
  <path class="f0246eb1-f7a8-461b-b0bc-463f62a6ff7c" d="M163.262,372.765l-5.072-4.835s-7.528-1.315-16.051,4.4" transform="translate(-32.662 -61.762)"/>
  <path class="f0246eb1-f7a8-461b-b0bc-463f62a6ff7c" d="M158.19,367.93s6.3-20.689,12.511-31.369" transform="translate(-32.662 -61.762)"/>
  <path class="f0246eb1-f7a8-461b-b0bc-463f62a6ff7c" d="M185.429,276.6s-34.767,13.045-38.176,16.844-16.364,76.764-16.7,85.114c-.305,7.464,26.776,24.235,40.153,31.3" transform="translate(-32.662 -61.762)"/>
  <rect class="ebda180b-12b9-480f-9238-db26af0a5d6e" x="230.548" y="162.94" width="56.557" height="40.181" rx="8.47"/>
  <polyline class="f0246eb1-f7a8-461b-b0bc-463f62a6ff7c" points="248.796 175.025 237.92 181.852 248.013 190.803"/>
  <polyline class="f0246eb1-f7a8-461b-b0bc-463f62a6ff7c" points="268.614 191.454 278.387 183.124 267.105 175.728"/>
  <line class="f0246eb1-f7a8-461b-b0bc-463f62a6ff7c" x1="254.083" y1="196.578" x2="262.111" y2="171.405"/>
  <path class="a3e7c60d-dead-46a0-be19-5bc23e3a336c" d="M211.429,301.249a2.287,2.287,0,1,1-2.287-2.287A2.286,2.286,0,0,1,211.429,301.249Z" transform="translate(-32.662 -61.762)"/>
  <g>
    <path class="a3e7c60d-dead-46a0-be19-5bc23e3a336c" d="M251.659,423.429H172.534a1.856,1.856,0,0,1-1.855-1.855h0a1.855,1.855,0,0,1,1.855-1.855h79.125a1.855,1.855,0,0,1,1.855,1.855h0A1.856,1.856,0,0,1,251.659,423.429Z" transform="translate(-32.662 -61.762)"/>
    <path class="ebda180b-12b9-480f-9238-db26af0a5d6e" d="M254.428,417.279l10.6-49.793a5.3,5.3,0,0,0-5.183-6.4H167.4a5.3,5.3,0,0,0-5.2,6.326l9.506,48.136a5.3,5.3,0,0,0,5.077,4.271l72.337,1.657A5.3,5.3,0,0,0,254.428,417.279Z" transform="translate(-32.662 -61.762)"/>
    <path class="a3e7c60d-dead-46a0-be19-5bc23e3a336c" d="M220.691,389.779a7.381,7.381,0,1,1-7.38-7.381A7.38,7.38,0,0,1,220.691,389.779Z" transform="translate(-32.662 -61.762)"/>
    <line class="f0246eb1-f7a8-461b-b0bc-463f62a6ff7c" x1="202.535" y1="304.046" x2="213.519" y2="304.046"/>
    <line class="f0246eb1-f7a8-461b-b0bc-463f62a6ff7c" x1="150.082" y1="304.046" x2="191.776" y2="304.046"/>
  </g>
  <path class="ecb83e76-089b-45e1-8df7-790bd2c361b2" d="M254.61,470.105l-8.429,22.12s-21.49-5.417-49.027-11.06c-28.793-5.9-58.866-13.539-74.465-40.906-1.9-3.336-3.167-7.278-2.277-11.015,2.251-9.453,14.549-12.018,22.654-12.965a150.326,150.326,0,0,1,15.342-.862c2.609-.037,11.219-1.4,13.3.128a60.89,60.89,0,0,0,10.006,5.93c4.6,1.954,71.8-1.756,71.8-1.756a23.985,23.985,0,0,0,2.113-8.068c10.562-5.368,35.021-9.916,45.356-7.907,16.251,3.16,25.731,12.64,23.926,22.572S287.239,462.882,254.61,470.105Z" transform="translate(-32.662 -61.762)"/>
  <path class="a396d744-df0e-4a8d-849f-70b5dec28a7a" d="M254.61,470.105s-20.439-5.417-37.142-16.7-29.753-24.377-53.022-21.669" transform="translate(-32.662 -61.762)"/>
  <path class="a396d744-df0e-4a8d-849f-70b5dec28a7a" d="M213.626,450.739c10.55-3.036,18.293-9.859,26.759-16.413,8.967-6.943,18.45-13.666,28.649-18.826" transform="translate(-32.662 -61.762)"/>
  <line class="f0246eb1-f7a8-461b-b0bc-463f62a6ff7c" x1="177.254" y1="171.405" x2="180.35" y2="171.405"/>
</svg>
