<svg xmlns="http://www.w3.org/2000/svg" viewBox="0 0 2105.609 1427.009"><defs><style>.cls-1{isolation:isolate;}.cls-2{fill:#3f9896;}.cls-3{fill:#50fa7b;}.cls-4{fill:#ff424d;}.cls-5{fill:#fd7583;}.cls-6{fill:#6272a4;}.cls-7{fill:#fff;}.cls-8{fill:#8be9fd;}.cls-9{fill:#21111d;}.cls-10{fill:#44475a;}.cls-11{fill:#d4eef4;}.cls-12{fill:#def8fc;}.cls-13,.cls-40{mix-blend-mode:multiply;}.cls-14{fill:#f55;}.cls-15{fill:#f99247;}.cls-16{fill:#f3fffe;}.cls-17{fill:#fecc86;}.cls-18{fill:#fe9f73;}.cls-19{fill:#3aa1c9;}.cls-20{fill:#472a31;}.cls-21{fill:#d7e4f7;}.cls-22{fill:#4cb7d8;}.cls-23{fill:#683d46;}.cls-24{fill:#ffb357;}.cls-25{fill:#bd93f9;}.cls-26{fill:#f9b59d;}.cls-27{fill:#f07162;}.cls-28{fill:#49263e;}.cls-29{fill:#4c222e;}.cls-30{fill:#fbfdfc;}.cls-31{fill:#f9956e;}.cls-32{fill:#7fc6a6;}.cls-33{fill:#f78c63;}.cls-34{fill:#aac9f8;}.cls-35{fill:#258d8c;}.cls-36{fill:#3a1f33;}.cls-37{fill:#febac7;}.cls-38{fill:#e2f2f1;}.cls-39{fill:#33192c;}.cls-40,.cls-42{opacity:0.3;}.cls-41{opacity:0.5;}</style></defs><title>gente</title><g class="cls-1"><g id="Layer_1" data-name="Layer 1"><path class="cls-2" d="M488.666,776.525s-57.876-95.688-196.725-70.874C291.941,705.651,385.415,844.274,488.666,776.525Z" transform="translate(-291.941 -363.865)"/><path class="cls-3" d="M579.047,801.785S561.806,609.976,328.2,543.436C328.2,543.436,368.074,828.586,579.047,801.785Z" transform="translate(-291.941 -363.865)"/><path class="cls-2" d="M1780.027,669.339l-2.612-.34.171-1.306c.624-4.793,1.389-9.651,2.274-14.44l.239-1.3,2.591.479-.24,1.295c-.877,4.743-1.634,9.555-2.253,14.3Zm5.124-28.482-2.56-.617.309-1.281c1.15-4.771,2.439-9.516,3.829-14.1l.382-1.261,2.521.764-.381,1.261c-1.377,4.54-2.651,9.237-3.791,13.959Zm177.592-14.939h-.008a36.67,36.67,0,0,1-6.611-.618l-1.3-.238.476-2.59,1.295.238a34.058,34.058,0,0,0,6.135.573h.008a29.752,29.752,0,0,0,7.675-.992l1.272-.339.679,2.545-1.272.34A32.432,32.432,0,0,1,1962.743,625.918Zm-19.563-5.134-1.093-.737a22.567,22.567,0,0,1-8.753-12.322l-.4-1.256,2.51-.8.4,1.255a20.014,20.014,0,0,0,7.717,10.937l1.093.737ZM1983.3,618.6l-1.72-2,1-.859a41.75,41.75,0,0,0,8.825-10.892l.657-1.142,2.283,1.315-.656,1.141a44.352,44.352,0,0,1-9.39,11.574Zm-189.89-5.448-2.467-.921.46-1.234c1.731-4.641,3.611-9.19,5.582-13.521l.546-1.2,2.4,1.092-.545,1.2c-1.948,4.275-3.8,8.767-5.513,13.35Zm140.908-18.806-2.629-.16.08-1.315a66.857,66.857,0,0,1,2.639-14.557l.369-1.265,2.529.737-.369,1.265a64.232,64.232,0,0,0-2.539,13.981ZM1999,593.74l-2.538-.708.355-1.268a67.213,67.213,0,0,0,2.327-14.036l.078-1.315,2.629.157-.078,1.315a69.827,69.827,0,0,1-2.42,14.586Zm-193.784-6.913-2.306-1.274.638-1.153c2.4-4.336,4.961-8.542,7.623-12.5l.735-1.093,2.186,1.47-.734,1.092c-2.62,3.9-5.145,8.039-7.5,12.309Zm136.3-19.929-2.376-1.138.57-1.188a109.283,109.283,0,0,1,7.254-12.785l.725-1.1,2.2,1.448-.724,1.1a106.581,106.581,0,0,0-7.079,12.475Zm57.2-2.088-.2-1.3c-.277-1.853-.634-3.7-1.058-5.478a51.218,51.218,0,0,0-2.681-8.172l-.515-1.212,2.423-1.031.516,1.211a53.853,53.853,0,0,1,2.819,8.594c.441,1.854.813,3.771,1.1,5.7l.2,1.3Zm-177.607-1.979-2.033-1.674.836-1.017a138.943,138.943,0,0,1,9.895-10.818l.939-.923,1.845,1.88-.94.922a136.65,136.65,0,0,0-9.7,10.612Zm135.822-20.081-2.01-1.7.851-1a132.178,132.178,0,0,1,10.1-10.642l.958-.9,1.809,1.915-.958.9a129.492,129.492,0,0,0-9.9,10.429Zm-115.511-.212-1.621-2.076,1.038-.811a124.959,124.959,0,0,1,12.076-8.327l1.127-.683,1.364,2.254-1.127.682a121.839,121.839,0,0,0-11.819,8.152Zm146.88-3.713-.836-1.017a54.748,54.748,0,0,0-10.355-9.635l-1.069-.769,1.537-2.138,1.07.768a57.455,57.455,0,0,1,10.852,10.1l.836,1.017Zm-122.514-11.4-1.1-2.4,1.2-.549c4.426-2.027,9-3.86,13.607-5.446l1.245-.43.859,2.491-1.245.429c-4.524,1.559-9.02,3.359-13.368,5.351Zm111.817-4.611-1.6-2.095,1.047-.8c3.838-2.925,7.9-5.713,12.086-8.286l1.123-.69,1.38,2.244-1.121.69c-4.108,2.527-8.1,5.265-11.871,8.137Zm-11.679-1.092-1.208-.525a83.733,83.733,0,0,0-13.552-4.523l-1.28-.313.625-2.559,1.28.312a86.683,86.683,0,0,1,13.98,4.667l1.207.526Zm-73.026-3.912-.61-2.563,1.282-.3a144.122,144.122,0,0,1,14.418-2.669l1.306-.173.345,2.611-1.306.173a141.85,141.85,0,0,0-14.154,2.62Zm45.442-3.39-1.311-.13a118.448,118.448,0,0,0-14.355-.526l-1.316.03-.06-2.634,1.317-.029a120.962,120.962,0,0,1,14.674.537l1.311.13Zm63.606-6.877-1.123-2.383,1.192-.561a118.121,118.121,0,0,1,13.659-5.4l1.251-.409.817,2.5-1.253.408a115.475,115.475,0,0,0-13.352,5.279Zm129.708-2.664-1.269-.354c-4.625-1.288-9.346-2.474-14.032-3.526l-1.285-.288.577-2.57,1.285.289c4.729,1.061,9.493,2.258,14.162,3.558l1.268.353Zm-28.194-6.459-1.3-.221c-4.806-.817-9.622-1.5-14.315-2.02l-1.308-.146.292-2.618,1.309.146c4.741.529,9.608,1.216,14.465,2.041l1.3.221Zm-74.358-.127-.535-2.579,1.29-.267c4.653-.966,9.526-1.729,14.479-2.268l1.309-.142.286,2.618-1.31.143c-4.871.53-9.658,1.28-14.229,2.228Zm45.658-3.206-1.316-.062c-4.873-.231-9.654-.291-14.435-.174l-1.316.033-.066-2.633,1.318-.033c4.838-.122,9.686-.06,14.625.175l1.315.063Z" transform="translate(-291.941 -363.865)"/><path class="cls-4" d="M2176.343,549.488l15.069-13.261s65.86,1.534,66.828,1.2,36.557-12.68,36.557-12.68l-41.624-7.975-69.869.809Z" transform="translate(-291.941 -363.865)"/><polygon class="cls-5" points="1880.261 118.101 2002.857 160.879 1891.364 153.712 1880.261 118.101"/><polygon class="cls-5" points="1899.472 172.362 1911.048 210.248 2002.857 160.879 1899.472 172.362"/><path class="cls-3" d="M1626.933,709.439a130.363,130.363,0,0,0-39.815-14.352l-7.875-33.785-23.694,1.11-23.694,1.111-4.681,34.373a130.419,130.419,0,0,0-38.3,18.013l-29.462-18.324-15.97,17.539-15.969,17.54,21,27.619a130.421,130.421,0,0,0-14.352,39.816l-33.785,7.874,1.111,23.694,1.11,23.695,34.374,4.68a130.422,130.422,0,0,0,18.012,38.3L1436.621,927.8l17.539,15.969,17.54,15.97,27.619-21a130.449,130.449,0,0,0,39.815,14.351l7.875,33.785,23.694-1.11,23.695-1.111,4.68-34.373a130.424,130.424,0,0,0,38.3-18.013l29.462,18.324,15.969-17.539,15.969-17.54-21-27.619a130.425,130.425,0,0,0,14.352-39.815l33.785-7.875-1.11-23.695-1.111-23.694-34.373-4.68a130.424,130.424,0,0,0-18.013-38.3l18.324-29.462-17.54-15.969-17.539-15.969Zm2,174.562a88.99,88.99,0,1,1-5.891-125.713A88.989,88.989,0,0,1,1628.928,884Z" transform="translate(-291.941 -363.865)"/><path class="cls-6" d="M1445.957,490.075a82.4,82.4,0,0,0-24.286-11.185L1418.54,457.2l-14.974-.581-14.974-.582-4.8,21.383a82.39,82.39,0,0,0-25.08,9.268l-17.554-13.125-11,10.177-11,10.177,11.725,18.519a82.388,82.388,0,0,0-11.185,24.286l-21.691,3.131-.581,14.973-.581,14.975,21.383,4.8a82.359,82.359,0,0,0,9.268,25.079l-13.126,17.555,10.177,11,10.177,11,18.519-11.725a82.4,82.4,0,0,0,24.286,11.185l3.131,21.691,14.974.581,14.974.582,4.8-21.383a82.39,82.39,0,0,0,25.08-9.268l17.554,13.126,11-10.178,11-10.177-11.725-18.519a82.42,82.42,0,0,0,11.185-24.285l21.691-3.131.581-14.974.581-14.974-21.383-4.8A82.368,82.368,0,0,0,1471.7,517.9l13.126-17.555-10.177-11-10.177-11Zm-8.177,109.983a56.219,56.219,0,1,1,3.084-79.446A56.22,56.22,0,0,1,1437.78,600.058Z" transform="translate(-291.941 -363.865)"/><path class="cls-7" d="M646.017,467.357c34.526-1.822,152.845-6.812,233.754,5.183,10.5,1.556,17.179-11.022,9.919-18.759-4.246-4.524-11.489-8.21-23.672-9.063,0,0,4.2-75.533-52.86-80.537-65.437-5.738-66.229,68.47-66.229,68.47s-29.742-28.235-51.193,7.562c0,0-37.071-21.426-55.771,18.148A6.317,6.317,0,0,0,646.017,467.357Z" transform="translate(-291.941 -363.865)"/><path class="cls-7" d="M2388.9,1064.476c-23.447-1.343-78.414-3.686-126.2.343a33.521,33.521,0,0,1-36.394-33.959c.182-8.118,3.093-17.562,10.628-28.264,29.014-41.205,79.445-1.854,78.961,19.062,0,0,10.2-31.5,41.162-25.981s20.016,51.318,20.016,51.318,9.992-2.112,16.92,2.617C2400.8,1054.262,2397.132,1064.947,2388.9,1064.476Z" transform="translate(-291.941 -363.865)"/><path class="cls-6" d="M578.869,1737.288V910.6c0-39.279,27.29-71.121,60.954-71.121H2013.544c33.664,0,60.953,31.842,60.953,71.121v826.692Z" transform="translate(-291.941 -363.865)"/><path class="cls-8" d="M613.879,1692.832V945.586c0-53.614,14.879-58.8,33.234-58.8H2006.254c18.355,0,33.234,14.361,33.234,32.077v773.967Z" transform="translate(-291.941 -363.865)"/><path class="cls-9" d="M612.093,1596.5l3.573-3.574V918.865c0-16.7,14.107-30.29,31.446-30.29V885c-19.31,0-35.019,15.191-35.019,33.863Z" transform="translate(-291.941 -363.865)"/><path class="cls-9" d="M2040.744,1692.832h-2.513V918.865c0-16.994-14.345-30.82-31.977-30.82H647.113v-2.514H2006.254c19.018,0,34.49,14.954,34.49,33.334Z" transform="translate(-291.941 -363.865)"/><rect class="cls-10" x="142.596" y="1373.423" width="1726.173" height="47.48"/><polygon class="cls-7" points="624.603 182.802 624.603 794.704 168.903 794.704 168.903 283.495 267.014 182.802 624.603 182.802"/><polygon class="cls-10" points="168.903 283.686 266.44 182.802 266.44 283.686 168.903 283.686"/><path class="cls-10" d="M602.846,622.832h198.8a5.164,5.164,0,0,0,5.164-5.164h0a5.164,5.164,0,0,0-5.164-5.164h-198.8a5.164,5.164,0,0,0-5.163,5.164h0A5.164,5.164,0,0,0,602.846,622.832Z" transform="translate(-291.941 -363.865)"/><path class="cls-10" d="M575.737,662.85H828.76a5.164,5.164,0,0,0,5.163-5.163h0a5.164,5.164,0,0,0-5.163-5.164H575.737a5.164,5.164,0,0,0-5.164,5.164h0A5.164,5.164,0,0,0,575.737,662.85Z" transform="translate(-291.941 -363.865)"/><path class="cls-10" d="M508.608,758.38H875.233a5.164,5.164,0,0,0,5.164-5.164h0a5.164,5.164,0,0,0-5.164-5.164H508.608a5.164,5.164,0,0,0-5.163,5.164h0A5.164,5.164,0,0,0,508.608,758.38Z" transform="translate(-291.941 -363.865)"/><path class="cls-10" d="M508.608,803.562H875.233A5.164,5.164,0,0,0,880.4,798.4h0a5.163,5.163,0,0,0-5.164-5.163H508.608a5.163,5.163,0,0,0-5.163,5.163h0A5.164,5.164,0,0,0,508.608,803.562Z" transform="translate(-291.941 -363.865)"/><path class="cls-10" d="M508.608,848.745H875.233a5.164,5.164,0,0,0,5.164-5.164h0a5.164,5.164,0,0,0-5.164-5.164H508.608a5.164,5.164,0,0,0-5.163,5.164h0A5.164,5.164,0,0,0,508.608,848.745Z" transform="translate(-291.941 -363.865)"/><path class="cls-10" d="M508.608,900.284H875.233a5.164,5.164,0,0,0,5.164-5.163h0a5.164,5.164,0,0,0-5.164-5.164H508.608a5.164,5.164,0,0,0-5.163,5.164h0A5.164,5.164,0,0,0,508.608,900.284Z" transform="translate(-291.941 -363.865)"/><path class="cls-10" d="M508.608,945.467H875.233A5.164,5.164,0,0,0,880.4,940.3h0a5.163,5.163,0,0,0-5.164-5.163H508.608a5.163,5.163,0,0,0-5.163,5.163h0A5.164,5.164,0,0,0,508.608,945.467Z" transform="translate(-291.941 -363.865)"/><path class="cls-10" d="M508.608,1100.477H875.233a5.164,5.164,0,0,0,5.164-5.164h0a5.164,5.164,0,0,0-5.164-5.164H508.608a5.164,5.164,0,0,0-5.163,5.164h0A5.164,5.164,0,0,0,508.608,1100.477Z" transform="translate(-291.941 -363.865)"/><path class="cls-10" d="M508.608,1063.592H875.233a5.164,5.164,0,0,0,5.164-5.163h0a5.164,5.164,0,0,0-5.164-5.164H508.608a5.164,5.164,0,0,0-5.163,5.164h0A5.164,5.164,0,0,0,508.608,1063.592Z" transform="translate(-291.941 -363.865)"/><rect class="cls-7" x="741.484" y="591.725" width="818.955" height="638.59"/><rect class="cls-11" x="877.879" y="626.969" width="648.679" height="32.512"/><rect class="cls-11" x="777.167" y="710.74" width="749.392" height="113.215"/><rect class="cls-12" x="777.167" y="820.276" width="749.392" height="373.976"/><circle class="cls-11" cx="1135.72" cy="1007.089" r="16.256" transform="translate(-397.304 1517.182) rotate(-76.718)"/><circle class="cls-11" cx="1085.364" cy="1007.089" r="16.256" transform="translate(-594.718 128.146) rotate(-22.5)"/><rect class="cls-7" x="800.064" y="736.858" width="585.286" height="11.17"/><rect class="cls-7" x="800.064" y="772.933" width="585.286" height="11.17"/><g class="cls-13"><path class="cls-11" d="M1329.265,1223.118h462.46a5.164,5.164,0,0,0,5.164-5.164h0a5.164,5.164,0,0,0-5.164-5.164h-462.46a5.164,5.164,0,0,0-5.164,5.164h0A5.164,5.164,0,0,0,1329.265,1223.118Z" transform="translate(-291.941 -363.865)"/></g><g class="cls-13"><path class="cls-11" d="M1329.265,1254.49h462.46a5.164,5.164,0,0,0,5.164-5.164h0a5.164,5.164,0,0,0-5.164-5.163h-462.46a5.164,5.164,0,0,0-5.164,5.163h0A5.164,5.164,0,0,0,1329.265,1254.49Z" transform="translate(-291.941 -363.865)"/></g><g class="cls-13"><path class="cls-11" d="M1329.265,1285.863h462.46a5.164,5.164,0,0,0,5.164-5.164h0a5.164,5.164,0,0,0-5.164-5.164h-462.46a5.164,5.164,0,0,0-5.164,5.164h0A5.164,5.164,0,0,0,1329.265,1285.863Z" transform="translate(-291.941 -363.865)"/></g><g class="cls-13"><path class="cls-11" d="M1329.265,1348.607h462.46a5.164,5.164,0,0,0,5.164-5.164h0a5.164,5.164,0,0,0-5.164-5.163h-462.46a5.164,5.164,0,0,0-5.164,5.163h0A5.164,5.164,0,0,0,1329.265,1348.607Z" transform="translate(-291.941 -363.865)"/></g><g class="cls-13"><path class="cls-11" d="M1329.265,1379.98h462.46a5.164,5.164,0,0,0,5.164-5.164h0a5.164,5.164,0,0,0-5.164-5.164h-462.46a5.164,5.164,0,0,0-5.164,5.164h0A5.164,5.164,0,0,0,1329.265,1379.98Z" transform="translate(-291.941 -363.865)"/></g><g class="cls-13"><path class="cls-11" d="M1329.265,1411.352h462.46a5.164,5.164,0,0,0,5.164-5.164h0a5.164,5.164,0,0,0-5.164-5.164h-462.46a5.164,5.164,0,0,0-5.164,5.164h0A5.164,5.164,0,0,0,1329.265,1411.352Z" transform="translate(-291.941 -363.865)"/></g><g class="cls-13"><path class="cls-11" d="M1329.265,1474.1h462.46a5.164,5.164,0,0,0,5.164-5.164h0a5.164,5.164,0,0,0-5.164-5.164h-462.46a5.164,5.164,0,0,0-5.164,5.164h0A5.164,5.164,0,0,0,1329.265,1474.1Z" transform="translate(-291.941 -363.865)"/></g><g class="cls-13"><path class="cls-11" d="M1329.265,1505.469h462.46a5.164,5.164,0,0,0,5.164-5.164h0a5.164,5.164,0,0,0-5.164-5.164h-462.46a5.164,5.164,0,0,0-5.164,5.164h0A5.164,5.164,0,0,0,1329.265,1505.469Z" transform="translate(-291.941 -363.865)"/></g><rect class="cls-11" x="805.266" y="848.926" width="196.968" height="176.669"/><rect class="cls-11" x="805.266" y="1071.945" width="196.968" height="69.659"/><g class="cls-13"><polygon class="cls-11" points="819.053 984.743 852.562 929.347 902.08 950.467 935.216 880.298 985.107 984.743 819.053 984.743"/></g><g class="cls-13"><circle class="cls-11" cx="1169.82" cy="1260.447" r="15.088" transform="translate(-685.245 179.751) rotate(-22.5)"/></g><rect class="cls-9" x="497.368" y="1327.711" width="999.069" height="2.513"/><path class="cls-14" d="M2062.863,1093.067l26.889-19.456,1.767-1.278,26.889-19.456,242.341,290.146a18.342,18.342,0,0,1-3.326,26.619l-68.432,49.515a18.342,18.342,0,0,1-26.324-5.166Z" transform="translate(-291.941 -363.865)"/><path class="cls-15" d="M2041.8,1035.841h79.4a9.482,9.482,0,0,1,9.482,9.482v38.486a0,0,0,0,1,0,0h-98.358a0,0,0,0,1,0,0v-38.486A9.482,9.482,0,0,1,2041.8,1035.841Z" transform="translate(4097.181 334.414) rotate(144.112)"/><path class="cls-9" d="M2080.419,1092.225l43.377-31.385a17.161,17.161,0,0,0,3.839-23.934l-19.03-26.3-2.65,1.917,19.03,26.3a13.885,13.885,0,0,1-3.106,19.367l-43.377,31.385Z" transform="translate(-291.941 -363.865)"/><g class="cls-13"><circle class="cls-11" cx="1961.23" cy="892.371" r="179.758" transform="translate(-348.511 1284.304) rotate(-45)"/></g><ellipse class="cls-16" cx="1850.105" cy="871.863" rx="67.519" ry="32.246" transform="translate(404.313 2196.685) rotate(-80.888)"/><rect class="cls-9" x="2241.783" y="1015.626" width="3.269" height="375.175" transform="translate(-540.69 1358.724) rotate(-39.978)"/><path class="cls-9" d="M1986.688,738.829l.924-3.136c-.393-.116-39.756-11.409-75.726,4.414l1.317,2.993C1948.055,727.77,1986.305,738.717,1986.688,738.829Z" transform="translate(-291.941 -363.865)"/><path class="cls-9" d="M1990.181,761.12l.924-3.137c-.393-.115-39.755-11.408-75.726,4.415l1.318,2.992C1951.548,750.061,1989.8,761.008,1990.181,761.12Z" transform="translate(-291.941 -363.865)"/><path class="cls-17" d="M2066.605,1038.005A179.758,179.758,0,1,1,2106.864,787,179.758,179.758,0,0,1,2066.605,1038.005Zm63.419-267.766c-67.451-93.222-197.7-114.113-290.926-46.661s-114.113,197.7-46.661,290.925,197.7,114.114,290.926,46.662S2197.476,863.461,2130.024,770.239Z" transform="translate(-291.941 -363.865)"/><path class="cls-9" d="M2084.322,1062.49c93.8-67.873,114.9-199.406,47.027-293.209s-199.406-114.9-293.209-47.029a209.025,209.025,0,0,0-83.417,132.094l3.215.591A205.779,205.779,0,0,1,1840.057,724.9c92.342-66.815,221.827-46.047,288.642,46.3s46.048,221.827-46.3,288.642a205.9,205.9,0,0,1-147.784,37.522l-.422,3.242A209.163,209.163,0,0,0,2084.322,1062.49Z" transform="translate(-291.941 -363.865)"/><path class="cls-18" d="M1014.89,705.892l12.66,5.474,14.08,6.676s21.866,3.8,22.183,3.725c.046-.01-1.817,3.254-1.817,3.254,27.13,3.347,112.64,6.859,126.679,8.426,8.463.944,16.6,11.466,21.723,19.676l-6.95,4.7s-74.676-3.292-74.526-1.724c.047.5,2.154,7.908,5.426,17.607-46.122,3.083-110.712,2.787-122.707-16.219C1001.8,741.9,1011.394,719.516,1014.89,705.892Z" transform="translate(-291.941 -363.865)"/><polygon class="cls-18" points="1013.045 677.2 956.3 677.973 955.487 624.928 1012.008 617.929 1013.045 677.2"/><path class="cls-19" d="M1359.649,1060.763l-115.012-14,2.793-22.94s9.706-9.992,21.759-2.821c0,0,17.209,15.83,36.162,1.725l40.377,23.307S1360.6,1052.963,1359.649,1060.763Z" transform="translate(-291.941 -363.865)"/><path class="cls-20" d="M1244.891,1054.036H1364.6a0,0,0,0,1,0,0v8.088a0,0,0,0,1,0,0H1244.891a1.186,1.186,0,0,1-1.186-1.186v-5.716a1.186,1.186,0,0,1,1.186-1.186Z" transform="translate(2178.926 1902.156) rotate(-173.058)"/><path class="cls-21" d="M1317.3,1029.623c-4.586,5.5-13.794,16.558-19.653,23.591l-7.839-.954c5.232-6.283,16.2-19.455,21.66-26Z" transform="translate(-291.941 -363.865)"/><path class="cls-21" d="M1310.223,1054.745l-7.84-.955c4.258-5.112,12.56-15.08,18.439-22.136l5.831,3.367C1321.715,1040.948,1314.872,1049.163,1310.223,1054.745Z" transform="translate(-291.941 -363.865)"/><path class="cls-17" d="M1128.514,851.906s-48.848.8-83.085-.369c-10.99-.376-20.77.4-26.56-.888-23.83-5.292-29.7-79.674-2.642-125.246s121.73,94.347,121.73,94.347Z" transform="translate(-291.941 -363.865)"/><polygon class="cls-18" points="924.97 677.2 868.225 677.973 867.412 624.928 923.933 617.929 924.97 677.2"/><path class="cls-22" d="M1267.485,1066.544,1153.918,1043.6l4.576-22.651s10.457-9.2,21.914-1.114c0,0,15.92,17.126,35.916,4.544l38.433,26.39S1269.041,1058.843,1267.485,1066.544Z" transform="translate(-291.941 -363.865)"/><path class="cls-23" d="M1153.107,1055.491h119.707a0,0,0,0,1,0,0v8.088a0,0,0,0,1,0,0H1153.107a1.186,1.186,0,0,1-1.186-1.186v-5.716a1.186,1.186,0,0,1,1.186-1.186Z" transform="translate(1898.982 1974.295) rotate(-168.579)"/><path class="cls-21" d="M1227.7,1032.193c-5,5.126-15.045,15.429-21.434,21.984l-7.742-1.564c5.708-5.855,17.674-18.13,23.626-24.231Z" transform="translate(-291.941 -363.865)"/><path class="cls-21" d="M1218.68,1056.685l-7.741-1.564c4.644-4.764,13.7-14.054,20.111-20.628l5.551,3.811C1231.214,1043.827,1223.751,1051.483,1218.68,1056.685Z" transform="translate(-291.941 -363.865)"/><path class="cls-24" d="M1181.112,752.362s119.99,7.668,123.454,21.523,13.389,161.166,5.967,224.011c0,0-45.527,3.134-67.3-2.144l-5.3-153.238L1202,838.39l-82.328-98.969Z" transform="translate(-291.941 -363.865)"/><path class="cls-17" d="M1123.462,750.094s92.536,26.111,96,39.966,13.325,145.321,5.9,208.166c0,0-48.953,2.8-70.727-2.474L1148.77,851.2l-21.116.737-51.2-90.082Z" transform="translate(-291.941 -363.865)"/><path class="cls-9" d="M1184.012,999.934c-21.631,0-29.344-3.257-29.71-3.418l-.478-.21-5.68-145.4,8.938,4.216-.712,1.51-6.45-3.042,5.53,141.576c2.34.808,13.559,4.045,40.056,2.822l.077,1.668C1191.347,999.85,1187.5,999.934,1184.012,999.934Z" transform="translate(-291.941 -363.865)"/><path class="cls-9" d="M1163.726,968.58c-2.309-8.905-2.969-95.761-3-99.454l1.67-.012c.007.9.686,90.34,2.943,99.047Z" transform="translate(-291.941 -363.865)"/><path class="cls-9" d="M1249.721,845.783c-10.972-3.55-26.076-4.083-26.227-4.088l.055-1.669c.153,0,15.487.545,26.686,4.168Z" transform="translate(-291.941 -363.865)"/><path class="cls-9" d="M1274.413,999.624a148.664,148.664,0,0,1-31.376-3.061l-.616-.149-5.359-154.944,6.842,5.508-1.048,1.3-4-3.219,5.188,150.018a151.577,151.577,0,0,0,31.985,2.869l.016,1.67Q1275.224,999.625,1274.413,999.624Z" transform="translate(-291.941 -363.865)"/><path class="cls-9" d="M1251.134,971.81c-2.3-13.451-.106-104.5-.011-108.367l1.669.04c-.023.946-2.281,94.754-.012,108.046Z" transform="translate(-291.941 -363.865)"/><path class="cls-9" d="M1091.758,853.463c-21.314,0-46.867-.721-75.594-2.885l.125-1.659c85.592,6.449,142.993.069,143.563,0l.189,1.653C1159.661,850.618,1134.076,853.463,1091.758,853.463Z" transform="translate(-291.941 -363.865)"/><path class="cls-25" d="M1121.058,703.437c1.653-.028,68.123,28.559,68.123,28.559l-13.4,25.633-37.3-8.189Z" transform="translate(-291.941 -363.865)"/><path class="cls-25" d="M1024.749,584.31s-28.264-.989-41.757,6.655c-20.135,11.407-12.963,76.737-12.963,76.737s17.111-9.333,18.148-12.444S1024.749,584.31,1024.749,584.31Z" transform="translate(-291.941 -363.865)"/><path class="cls-9" d="M1017.893,726.119c.033.012.067.022.1.031l20.795,4.758a.778.778,0,1,0,.347-1.517l-20.795-4.758a.778.778,0,0,0-.449,1.486Z" transform="translate(-291.941 -363.865)"/><path class="cls-26" d="M1007.026,713.756l12.66,5.474,14.08,6.676s21.866,3.8,22.182,3.725c.047-.01-1.817,3.254-1.817,3.254,27.131,3.348,112.641,6.859,126.68,8.426,8.463.945,16.6,11.466,21.723,19.677l-6.95,4.7s-74.676-3.293-74.526-1.725c.047.5,2.154,7.908,5.426,17.607-46.122,3.083-110.713,2.787-122.707-16.218C993.937,749.762,1003.529,727.38,1007.026,713.756Z" transform="translate(-291.941 -363.865)"/><path class="cls-25" d="M997.389,589.409c16.065-2.224,58.452-3.759,58.452-3.759s5.616,1.473,3.827.643c46.809,8.265,51.983,42.978,51.983,42.978l22.849,100.3,25.426,1.376c8.23,15.591,2.186,57.646,2.186,57.646l-123.156,13.88s-26.62,4.389-49.135-24.485c-14.894-19.1-19.961-77.747-19.955-120.6C969.866,657.386,972.426,592.866,997.389,589.409Z" transform="translate(-291.941 -363.865)"/><polygon class="cls-14" points="1050.405 303.207 933.144 303.207 892.249 407.349 1009.51 407.349 1050.405 303.207"/><polygon class="cls-14" points="892.249 407.349 898.368 407.349 939.263 303.207 933.144 303.207 892.249 407.349"/><path class="cls-14" d="M1265.685,715.824c-1.626,4.785-.435,9.515,2.66,10.567s6.921-1.975,8.546-6.759.435-9.515-2.66-10.566S1267.31,711.04,1265.685,715.824Z" transform="translate(-291.941 -363.865)"/><path class="cls-14" d="M1145.426,762.8h43.807v8.411h-43.807a4.206,4.206,0,0,1-4.2-4.206h0A4.205,4.205,0,0,1,1145.426,762.8Z" transform="translate(-291.941 -363.865)"/><rect class="cls-14" x="1156.517" y="765.691" width="27.672" height="1.318" transform="translate(2048.766 1168.835) rotate(180)"/><path class="cls-9" d="M1038.789,731.3a.778.778,0,0,0,1.031-.906c-.129-.549-13-55.263-18.477-89.693a.778.778,0,1,0-1.536.245c5.486,34.487,18.37,89.256,18.5,89.805A.776.776,0,0,0,1038.789,731.3Z" transform="translate(-291.941 -363.865)"/><path class="cls-9" d="M1118.447,730.4a.778.778,0,0,0,1.016-.962c-.193-.609-19.288-61.2-23.277-82.146a.778.778,0,0,0-1.528.291c4.006,21.037,23.129,81.713,23.322,82.323A.774.774,0,0,0,1118.447,730.4Z" transform="translate(-291.941 -363.865)"/><path class="cls-9" d="M1040.813,615.046q.9.093,1.838.159a.647.647,0,0,0,.69-.6.64.64,0,0,0-.6-.69c-26.785-1.88-31.759-21.489-31.8-21.686a.652.652,0,0,0-.743-.524.641.641,0,0,0-.535.722C1009.7,592.629,1014.639,612.338,1040.813,615.046Z" transform="translate(-291.941 -363.865)"/><path class="cls-9" d="M1123.913,715.944a.78.78,0,0,0,.946-.336l5.22-8.946-.068-.3-17.6-77.236c-.108-.7-1.634-9.7-9.264-19.622-7.153-9.3-21.259-21.136-47.836-24.672a.778.778,0,0,0-.205,1.542c26,3.459,39.779,14.965,46.755,24.009,7.561,9.8,9,18.913,9.016,19l.012.058,17.534,76.964-4.912,8.416a.778.778,0,0,0,.28,1.064A.849.849,0,0,0,1123.913,715.944Z" transform="translate(-291.941 -363.865)"/><path class="cls-9" d="M1151.45,716.226a.778.778,0,0,0,.562-1.45l-22.47-8.963a.785.785,0,0,0-1.011.434.777.777,0,0,0,.434,1.01l22.471,8.964Z" transform="translate(-291.941 -363.865)"/><path class="cls-25" d="M1159.926,730.942s8.128,19.18,2.186,57.646l-29.718-15.945,8.827-28.736Z" transform="translate(-291.941 -363.865)"/><path class="cls-9" d="M1011.929,731.993a.775.775,0,0,0,.3.05c1.112-.034,111.151-3.336,147.153-.366.885,2.363,4.947,14.574,3.81,36.915a.778.778,0,1,0,1.553.079c1.289-25.315-3.883-37.531-4.1-38.039l-.186-.425-.461-.04c-35.583-3.047-146.695.288-147.813.321a.778.778,0,0,0-.251,1.5Z" transform="translate(-291.941 -363.865)"/><path class="cls-18" d="M1062.237,527.315l.878,33.846s.735,10.869-8.75,12.476l2.154,14.47a11.333,11.333,0,0,1-7.431,12.4,29.74,29.74,0,0,1-8.954,1.621c-10.88.282-16.986-7.725-18-11.781s1.2-23.622,1.2-23.622l-.58-9.57.275-37.148Z" transform="translate(-291.941 -363.865)"/><path class="cls-27" d="M1032.054,564.966s1.111,18.194,23.9,19.344l-1.589-10.673S1039.692,576.983,1032.054,564.966Z" transform="translate(-291.941 -363.865)"/><path class="cls-28" d="M1036.428,545.749a.454.454,0,0,1-.347-.759c.061-.067,6.131-6.607,11.948-2.164a.454.454,0,0,1-.551.721c-5.154-3.937-10.5,1.807-10.726,2.054A.458.458,0,0,1,1036.428,545.749Z" transform="translate(-291.941 -363.865)"/><path class="cls-29" d="M1020.681,541.4l9.837,1.783,1.816,1.786s-1.273-16.381-3.2-19.558S1020.681,541.4,1020.681,541.4Z" transform="translate(-291.941 -363.865)"/><path class="cls-28" d="M1055.046,542.544a.454.454,0,0,1-.318-.788c.179-.164,4.407-3.974,7.2-1.7a.454.454,0,1,1-.572.7c-2.19-1.781-5.98,1.632-6.018,1.666A.453.453,0,0,1,1055.046,542.544Z" transform="translate(-291.941 -363.865)"/><path d="M1045.644,547.343a1.361,1.361,0,1,1-1.4-1.325A1.361,1.361,0,0,1,1045.644,547.343Z" transform="translate(-291.941 -363.865)"/><path d="M1060.065,545.608a1.36,1.36,0,1,1-1.395-1.325A1.361,1.361,0,0,1,1060.065,545.608Z" transform="translate(-291.941 -363.865)"/><path class="cls-18" d="M1034.4,547.162a8.163,8.163,0,1,1-8.372-7.948A8.162,8.162,0,0,1,1034.4,547.162Z" transform="translate(-291.941 -363.865)"/><path class="cls-27" d="M1024.928,551.94a3.4,3.4,0,0,1-3.267-2.464,3.2,3.2,0,0,1,1.191-3.762,3.836,3.836,0,0,1,4.289.039,3.679,3.679,0,0,0-1.7-1.966,5.118,5.118,0,0,0-3.628-.14.227.227,0,0,1-.154-.427,5.5,5.5,0,0,1,3.987.162,4.41,4.41,0,0,1,2.159,2.919l.218.784-.592-.559a3.553,3.553,0,0,0-4.33-.433,2.774,2.774,0,0,0-1.008,3.244,2.925,2.925,0,0,0,2.821,2.15l.047,0a.227.227,0,0,1,.015.454Z" transform="translate(-291.941 -363.865)"/><path class="cls-27" d="M1050.679,556.392a.226.226,0,0,1-.083-.439l4.506-1.621-1.713-10.657a.226.226,0,0,1,.187-.259.223.223,0,0,1,.26.187l1.773,11.029-4.859,1.747A.194.194,0,0,1,1050.679,556.392Z" transform="translate(-291.941 -363.865)"/><path class="cls-30" d="M1047.274,560.9c.139-.031,8.97-.467,8.97-.467s-1.014,3.683-4.3,3.854S1047.274,560.9,1047.274,560.9Z" transform="translate(-291.941 -363.865)"/><path class="cls-29" d="M1020.681,541.4s-3.167-15.818,1.544-21.867,32.364-17.138,35.825-14.264.17,6.557.17,6.557,11.117-3.886,13.914,5.989-21.208,14.732-35.713,10.452A32.109,32.109,0,0,0,1020.681,541.4Z" transform="translate(-291.941 -363.865)"/><path class="cls-9" d="M1017.5,800.156a53.1,53.1,0,0,0,5.13,1.649c9.522,2.526,16.172,1.477,16.451,1.43a.777.777,0,0,0-.252-1.534,41.966,41.966,0,0,1-15.88-1.421c-8.5-2.268-21.045-8.064-32.516-22.775-14.4-18.468-19.661-75.328-19.79-118.407a.778.778,0,1,0-1.555,0c.129,43.325,5.475,100.581,20.118,119.359C998.842,790.816,1009.243,797.034,1017.5,800.156Z" transform="translate(-291.941 -363.865)"/><path class="cls-31" d="M1261.244,1637.914c-.611-.462-14.211-11.428-15.28-11.942-10,6.753-8.67,25.021-19.688,32.445,7.152,1.513,12.221,2.472,14.249,2.765l6.124,13.588.842,3.565a4.14,4.14,0,0,0,4.428,2.74c2.047-.172,3.384-1.679,2.986-3.365l.352,1.491a4.139,4.139,0,0,0,4.428,2.741h0c2.048-.172,3.384-1.679,2.986-3.365a4.141,4.141,0,0,0,4.428,2.741c2.047-.173,3.384-1.68,2.986-3.366l-.352-1.491a4.141,4.141,0,0,0,4.428,2.741h0c.119-.01.235-.026.349-.045h0c.132-.022.262-.049.387-.082,1.943-.464,2.76-1.332,2.957-2.258.41-1.927-2.527-12.6-3.812-17.632C1272.158,1651.315,1268.578,1643.46,1261.244,1637.914Z" transform="translate(-291.941 -363.865)"/><path class="cls-27" d="M1270.139,1678.07a.576.576,0,0,0,.2-.036.57.57,0,0,0,.336-.733l-8.061-21.648a.57.57,0,0,0-1.069.4l8.061,21.648A.569.569,0,0,0,1270.139,1678.07Z" transform="translate(-291.941 -363.865)"/><path class="cls-27" d="M1262.791,1679.814a.576.576,0,0,0,.2-.036.57.57,0,0,0,.336-.733l-7.313-19.638a.57.57,0,1,0-1.068.4l7.312,19.637A.57.57,0,0,0,1262.791,1679.814Z" transform="translate(-291.941 -363.865)"/><path class="cls-31" d="M1230.809,1613.463c10.782,8.776,30.164,24.6,34.155,28.191,5.6,5.035-20.533,26.765-20.533,26.765s-30.244-16.014-46.866-27.444Z" transform="translate(-291.941 -363.865)"/><path class="cls-27" d="M1255.157,1679.4a.576.576,0,0,0,.2-.036.57.57,0,0,0,.336-.733l-5.877-15.783a.57.57,0,1,0-1.069.4l5.877,15.783A.57.57,0,0,0,1255.157,1679.4Z" transform="translate(-291.941 -363.865)"/><path class="cls-9" d="M1340.135,1661.442a.817.817,0,0,0,.536-.2l12.018-10.411a.819.819,0,0,0-1.072-1.238L1339.6,1660a.819.819,0,0,0,.536,1.438Z" transform="translate(-291.941 -363.865)"/><path class="cls-4" d="M1096.877,1680.959s9.575-28.97,111.457-23.589c116.477,6.151,195.819-13.962,216.441,23.589l-161.414,59.918Z" transform="translate(-291.941 -363.865)"/><path class="cls-4" d="M1280.108,1732.579s-92.424-55.683-124.842-64.043-54.865,2.666-58.389,12.423-6.836,36.093,14.719,51.62c9.329,6.721,115.941,38.425,144.131,45.827C1255.727,1778.406,1281.886,1767.4,1280.108,1732.579Z" transform="translate(-291.941 -363.865)"/><path class="cls-9" d="M1260.538,1721.88a.819.819,0,0,0,.421-1.522c-88.5-52.9-117.5-55.512-118.686-55.6a.808.808,0,0,0-.875.758.818.818,0,0,0,.757.875h0c.289.022,29.966,2.77,117.964,55.37A.818.818,0,0,0,1260.538,1721.88Z" transform="translate(-291.941 -363.865)"/><path class="cls-18" d="M1236.938,1787.42l41.8-21.29-20.1-39.469-34.1,17.368h0s-56.377-.481-59.074,2.156S1223.838,1794.093,1236.938,1787.42Z" transform="translate(-291.941 -363.865)"/><path class="cls-20" d="M1251.294,1780.109c-12-13.23-18.53-32.414-20.568-39.232l-6.191,3.152s-56.377-.481-59.074,2.156,58.377,47.908,71.477,41.235Z" transform="translate(-291.941 -363.865)"/><path class="cls-4" d="M1241.544,1732.579s92.423-55.683,124.842-64.043,54.865,2.666,58.389,12.423,6.836,36.093-14.719,51.62c-9.329,6.721-123.415,40.447-151.605,47.849C1258.451,1780.428,1239.766,1767.4,1241.544,1732.579Z" transform="translate(-291.941 -363.865)"/><path class="cls-9" d="M1258.45,1781.247a.819.819,0,0,0,.452-1.5c-15.6-10.29-16.489-42.446-16.537-46.7,6.47-3.762,86.766-50.294,118.79-62.3a.819.819,0,0,0-.575-1.533c-33.341,12.495-118.592,62.152-119.449,62.652l-.4.235,0,.466c-.012,1.508-.1,37.077,17.275,48.539A.819.819,0,0,0,1258.45,1781.247Z" transform="translate(-291.941 -363.865)"/><path class="cls-9" d="M1106.451,1680.122a.818.818,0,0,0,.665-.341c.053-.071,3.3-4.276,13.883-4.148a.8.8,0,0,0,.828-.81.817.817,0,0,0-.809-.828c-11.565-.143-15.091,4.632-15.235,4.834a.82.82,0,0,0,.668,1.293Z" transform="translate(-291.941 -363.865)"/><path class="cls-9" d="M1111.709,1684.213a.815.815,0,0,0,.587-.248c.065-.065,3.893-3.747,14.34-2.073a.819.819,0,1,0,.259-1.617c-11.433-1.829-15.606,2.373-15.778,2.553a.819.819,0,0,0,.592,1.385Z" transform="translate(-291.941 -363.865)"/><path class="cls-28" d="M1282.269,1440.584s-4.86,43.676-11.384,44.113,4.5,51.587,21.792,26.528c6.058-8.78,5.788-66.24-8.667-78.529S1282.269,1440.584,1282.269,1440.584Z" transform="translate(-291.941 -363.865)"/><path class="cls-18" d="M1284.638,1429.617s6,41.262.6,48.606c0,0-2.641,3.9-9.084,4.113l.506,24.25-29.156-3.334-.974-68.967s8.31-17.05,8.32-16.347S1284.638,1429.617,1284.638,1429.617Z" transform="translate(-291.941 -363.865)"/><path class="cls-27" d="M1275.761,1464.047c-.087,0-.166-.082-.186-.206a.279.279,0,0,1,.139-.315c1.2-.38,1.93-2.482,2.139-3.168a7.725,7.725,0,0,1-3.174-4.936,11.329,11.329,0,0,1,.884-6.4.155.155,0,0,1,.259-.065.335.335,0,0,1,.049.367,10.829,10.829,0,0,0-.83,5.973,7.26,7.26,0,0,0,3.132,4.7l.151.106-.057.223c-.034.13-.842,3.2-2.467,3.714A.132.132,0,0,1,1275.761,1464.047Z" transform="translate(-291.941 -363.865)"/><path class="cls-27" d="M1276.269,1490.585l-.116-8.249s-13.957-.623-22.588-5.893C1253.565,1476.443,1265.334,1487.443,1276.269,1490.585Z" transform="translate(-291.941 -363.865)"/><path class="cls-28" d="M1256.475,1450.369a.527.527,0,0,1-.393-.887c.066-.07,6.727-7.078,12.977-2.187a.527.527,0,0,1-.65.83c-5.487-4.292-11.311,1.815-11.556,2.076A.524.524,0,0,1,1256.475,1450.369Z" transform="translate(-291.941 -363.865)"/><path class="cls-28" d="M1278.165,1448.959a.528.528,0,0,1-.359-.921c.2-.175,4.834-4.257,7.846-1.745a.527.527,0,1,1-.675.81c-2.315-1.928-6.428,1.686-6.469,1.722A.527.527,0,0,1,1278.165,1448.959Z" transform="translate(-291.941 -363.865)"/><path d="M1267.061,1453.157a1.469,1.469,0,1,1-1.489-1.448A1.469,1.469,0,0,1,1267.061,1453.157Z" transform="translate(-291.941 -363.865)"/><path d="M1284.256,1452.962a1.469,1.469,0,1,1-1.489-1.448A1.47,1.47,0,0,1,1284.256,1452.962Z" transform="translate(-291.941 -363.865)"/><path class="cls-30" d="M1268.524,1466.5c.165-.009,10.384,1.129,10.384,1.129s-1.848,4.04-5.648,3.627S1268.524,1466.5,1268.524,1466.5Z" transform="translate(-291.941 -363.865)"/><path class="cls-18" d="M1272,1430.419l-7.079-9.822s11.375,7.117,10.43,7.41A17.664,17.664,0,0,0,1272,1430.419Z" transform="translate(-291.941 -363.865)"/><path class="cls-28" d="M1250.757,1425.764s2.031,15.386,38.889,18.493c0,0,8.565-22.77-18.2-30.382s-29.2,12.916-28.656,12.727S1250.757,1425.764,1250.757,1425.764Z" transform="translate(-291.941 -363.865)"/><path class="cls-28" d="M1256.319,1434.39s-6.807,10.123-9.968,17.421c0,0,12.3,64.451-12.509,60.84l-4.435-.061c-21.948-.3-6.756-47.8-6.383-73.014.233-15.785,19.4-31.811,31.863-22.194S1256.319,1434.39,1256.319,1434.39Z" transform="translate(-291.941 -363.865)"/><circle class="cls-18" cx="1244.422" cy="1459.811" r="8.235" transform="translate(-959.7 943.643) rotate(-45)"/><path class="cls-27" d="M1243.884,1464.9a3.466,3.466,0,0,1-3.3-2.549,3.258,3.258,0,0,1,1.261-3.821,3.877,3.877,0,0,1,4.271.033,3.641,3.641,0,0,0-1.637-1.888,5.11,5.11,0,0,0-3.627-.18.264.264,0,0,1-.174-.5,5.581,5.581,0,0,1,4.048.213,4.483,4.483,0,0,1,2.161,2.992l.242.914-.68-.656a3.548,3.548,0,0,0-4.32-.485,2.764,2.764,0,0,0-1.041,3.221,2.914,2.914,0,0,0,2.829,2.177.264.264,0,1,1,.015.527Z" transform="translate(-291.941 -363.865)"/><path class="cls-28" d="M1286.287,1422.641s12.78,13.488,9.847,52.277l-8.809-38.27Z" transform="translate(-291.941 -363.865)"/><path class="cls-32" d="M1277.731,1574.738l-17.759-74.592h-48.4c-5.136,0-12.215,3.389-12.518,3.535-19.421,10.339-72.855,69.228-70.188,106.335,2.42,33.686,50.915,26.993,99.241,34.795l10.737-44.667-17.47-4.675Z" transform="translate(-291.941 -363.865)"/><path class="cls-32" d="M1261.712,1585.755v-85.609h48.4c5.136,0,12.215,3.389,12.518,3.535,19.421,10.338,79.552,71.094,76.886,108.2-2.421,33.687-59.121,32.328-85.7,40.531l-14.766-53.407,1.309-2.721Z" transform="translate(-291.941 -363.865)"/><path class="cls-32" d="M1340.16,1597.4l-.615,93.364s-84.512,15.442-159.761-4.574c-1.848-.492,3.529-77.162,3.529-77.162s0-14.873,7.843-19.47,71.842-32.992,73.375-32.992S1340.16,1597.4,1340.16,1597.4Z" transform="translate(-291.941 -363.865)"/><path class="cls-9" d="M1259.132,1526.1a.912.912,0,0,0,.057-1.823c-27.767-1.745-36.831-20.765-36.919-20.957a.913.913,0,0,0-1.66.76c.092.2,9.561,20.2,38.465,22.018A.552.552,0,0,0,1259.132,1526.1Z" transform="translate(-291.941 -363.865)"/><path class="cls-18" d="M1289.743,1500.146h-61.222s11.067,19.165,32.222,19.083C1270.446,1519.191,1280.82,1515.623,1289.743,1500.146Z" transform="translate(-291.941 -363.865)"/><path class="cls-33" d="M1252.02,1623.6c-3.883-3.933-.287-8.93-.287-8.93-1.442-5.95.15-8.557.15-8.557s16.328,4.842,25.606,8.275c5.235-.786,7.083-3.343,7.083-3.343l.135.219c.1-4.537.229-10.21.229-10.85,0-1.081,1.731-2.816,4.436.61s7.933,12.622,7.933,12.622l13.523-7.934,11,38.045s-32.807,4.639-37.856,5-22.621-3.78-27.85-8.107-4.1-8.2-4.1-8.2A6.628,6.628,0,0,1,1252.02,1623.6Z" transform="translate(-291.941 -363.865)"/><path class="cls-5" d="M1287.638,1598.435v11.783a10.712,10.712,0,0,1-10.149,4.171l-5.068-1.876,3.99-17.127Z" transform="translate(-291.941 -363.865)"/><path class="cls-27" d="M1262.844,1620.513a.608.608,0,0,0,.187-1.187,74.867,74.867,0,0,1-10.994-5.183.609.609,0,0,0-.607,1.056,74.535,74.535,0,0,0,11.227,5.284A.589.589,0,0,0,1262.844,1620.513Z" transform="translate(-291.941 -363.865)"/><path class="cls-27" d="M1262.845,1628.22a.608.608,0,0,0,.11-1.206,37.785,37.785,0,0,1-10.629-3.939.609.609,0,0,0-.614,1.051,38.308,38.308,0,0,0,11.021,4.084A.614.614,0,0,0,1262.845,1628.22Z" transform="translate(-291.941 -363.865)"/><path class="cls-27" d="M1261.493,1637.009a.608.608,0,0,0,.128-1.2,32.518,32.518,0,0,1-9.273-3.87.608.608,0,1,0-.657,1.024,33.2,33.2,0,0,0,9.673,4.036A.634.634,0,0,0,1261.493,1637.009Z" transform="translate(-291.941 -363.865)"/><path class="cls-22" d="M1301.1,1606.411l18.625-4.64s10.5,26.038,10.5,26.91-5.25,23.841-5.907,23.731-6.623-6.278-6.623-6.278Z" transform="translate(-291.941 -363.865)"/><path class="cls-9" d="M1335.321,1589.443l9.181-1.469a1.107,1.107,0,1,0-.351-2.187l-7.757,1.24-17.276-26.615a1.107,1.107,0,1,0-1.857,1.206Z" transform="translate(-291.941 -363.865)"/><path class="cls-9" d="M1331.881,1524.479a.915.915,0,0,1-.75-.391c-6.881-9.884-12.753-9.906-12.75-9.9h0a.913.913,0,0,1,0-1.825h0c.335,0,6.91.143,14.252,10.687a.912.912,0,0,1-.749,1.434Z" transform="translate(-291.941 -363.865)"/><path class="cls-9" d="M1329.924,1533.763a.913.913,0,0,1-.818-.506c-5.271-10.6-11.112-11.656-11.17-11.665a.916.916,0,0,1-.761-1.039.905.905,0,0,1,1.028-.766c.275.039,6.792,1.1,12.537,12.657a.912.912,0,0,1-.411,1.223A.892.892,0,0,1,1329.924,1533.763Z" transform="translate(-291.941 -363.865)"/><path class="cls-27" d="M1278.465,1608.016a.608.608,0,0,1-.428-1.123,74.838,74.838,0,0,0,9.686-7.342.609.609,0,1,1,.812.907,74.608,74.608,0,0,1-9.893,7.491A.637.637,0,0,1,1278.465,1608.016Z" transform="translate(-291.941 -363.865)"/><path class="cls-27" d="M1280.057,1615.557a.609.609,0,0,1-.358-1.158,37.769,37.769,0,0,0,9.586-6.049.608.608,0,1,1,.818.9,38.28,38.28,0,0,1-9.939,6.273A.548.548,0,0,1,1280.057,1615.557Z" transform="translate(-291.941 -363.865)"/><path class="cls-27" d="M1283.2,1623.877a.609.609,0,0,1-.374-1.151,32.467,32.467,0,0,0,8.274-5.7.608.608,0,0,1,.854.867,33.182,33.182,0,0,1-8.631,5.946A.505.505,0,0,1,1283.2,1623.877Z" transform="translate(-291.941 -363.865)"/><path class="cls-9" d="M1200.06,1588.848l-9.287.459a1.107,1.107,0,1,1-.109-2.212l7.847-.389,11.4-29.61a1.107,1.107,0,0,1,2.066.8Z" transform="translate(-291.941 -363.865)"/><path class="cls-22" d="M1238.847,1600.144,1229.275,1646s-19.687-16.028-19.687-17.776,6.234-23.068,6.891-23.482S1238.847,1600.144,1238.847,1600.144Z" transform="translate(-291.941 -363.865)"/><path class="cls-9" d="M1229.92,1647.156l-.972-.058a169.615,169.615,0,0,1-49.71-12.614,1.107,1.107,0,0,1,.857-2.042,170.215,170.215,0,0,0,48.015,12.369l8.2-43.193-37.387-12.793a1.108,1.108,0,0,1,.718-2.1l39.2,13.415Z" transform="translate(-291.941 -363.865)"/><path class="cls-9" d="M1305.97,1647.156l.971-.058a169.61,169.61,0,0,0,49.711-12.614,1.107,1.107,0,0,0-.857-2.042,170.215,170.215,0,0,1-48.015,12.369l-8.2-43.193,37.386-12.793a1.108,1.108,0,0,0-.717-2.1l-39.2,13.415Z" transform="translate(-291.941 -363.865)"/><path class="cls-28" d="M1177.349,1585.755h176.07a6.294,6.294,0,0,1,6.294,6.294v98.263a6.295,6.295,0,0,1-6.295,6.295h-176.07a6.294,6.294,0,0,1-6.294-6.294V1592.05A6.294,6.294,0,0,1,1177.349,1585.755Z" transform="translate(2238.827 2918.497) rotate(180)"/><circle class="cls-7" cx="971.512" cy="1267.975" r="7.536"/><path class="cls-7" d="M2245.876,1685.746s-20.616,51.871-3.325,91.107l-396.348,3.325-36.575-3.325-32.237-19.974v-30.567l8.961-25.27,29.261-15.3Z" transform="translate(-291.941 -363.865)"/><path class="cls-4" d="M1827.638,1785.228h428.213a5.05,5.05,0,0,0,0-10.1H1827.638c-25.848,0-46.876-19.512-46.876-43.5s21.028-43.5,46.876-43.5h428.213a5.05,5.05,0,1,0,0-10.1H1827.638c-31.416,0-56.976,24.043-56.976,53.6S1796.222,1785.228,1827.638,1785.228Z" transform="translate(-291.941 -363.865)"/><path class="cls-34" d="M2240.057,1732.754H2029.913a1.122,1.122,0,0,1,0-2.244h210.144a1.122,1.122,0,1,1,0,2.244Z" transform="translate(-291.941 -363.865)"/><path class="cls-34" d="M2000.32,1732.754H1796.162a1.122,1.122,0,1,1,0-2.244H2000.32a1.122,1.122,0,0,1,0,2.244Z" transform="translate(-291.941 -363.865)"/><path class="cls-34" d="M1906.4,1752.86h-104.75a1.122,1.122,0,1,1,0-2.244H1906.4a1.122,1.122,0,1,1,0,2.244Z" transform="translate(-291.941 -363.865)"/><path class="cls-34" d="M2240.057,1752.86H1921.766a1.122,1.122,0,1,1,0-2.244h318.291a1.122,1.122,0,1,1,0,2.244Z" transform="translate(-291.941 -363.865)"/><path class="cls-7" d="M1848.463,1585.71s19.132,48.14,3.086,84.554l367.84,3.086,33.944-3.086,29.919-18.538v-28.368l-8.317-23.453-27.156-14.195Z" transform="translate(-291.941 -363.865)"/><path class="cls-35" d="M2236.619,1678.037H1839.205a4.687,4.687,0,1,1,0-9.374h397.414c23.989,0,43.5-18.109,43.5-40.368s-19.515-40.367-43.5-40.367H1839.205a4.687,4.687,0,1,1,0-9.373h397.414c29.156,0,52.878,22.314,52.878,49.74S2265.775,1678.037,2236.619,1678.037Z" transform="translate(-291.941 -363.865)"/><path class="cls-34" d="M2048.892,1629.418H1853.863a1.122,1.122,0,0,1,0-2.244h195.029a1.122,1.122,0,1,1,0,2.244Z" transform="translate(-291.941 -363.865)"/><path class="cls-34" d="M2265.831,1629.418H2076.357a1.122,1.122,0,0,1,0-2.244h189.474a1.122,1.122,0,0,1,0,2.244Z" transform="translate(-291.941 -363.865)"/><path class="cls-34" d="M2260.739,1648.077h-97.215a1.122,1.122,0,1,1,0-2.244h97.215a1.122,1.122,0,1,1,0,2.244Z" transform="translate(-291.941 -363.865)"/><path class="cls-34" d="M2260.739,1610.748H1853.863a1.122,1.122,0,0,1,0-2.244h406.876a1.122,1.122,0,0,1,0,2.244Z" transform="translate(-291.941 -363.865)"/><path class="cls-9" d="M2255.852,1786.351H1827.638c-32.035,0-58.1-24.547-58.1-54.719s26.063-54.717,58.1-54.717h428.214a6.172,6.172,0,1,1,0,12.344,1.122,1.122,0,1,1,0-2.244,3.928,3.928,0,0,0,0-7.856H1827.638c-30.8,0-55.854,23.539-55.854,52.473s25.056,52.474,55.854,52.474h428.214a3.928,3.928,0,0,0,0-7.855,1.122,1.122,0,1,1,0-2.244,6.172,6.172,0,0,1,0,12.344Z" transform="translate(-291.941 -363.865)"/><path class="cls-9" d="M2236.618,1679.159H1839.2a5.81,5.81,0,0,1,0-11.619,1.123,1.123,0,1,1,0,2.245,3.565,3.565,0,0,0,0,7.13h397.414c28.539,0,51.757-21.811,51.757-48.62s-23.218-48.618-51.757-48.618H1839.2a3.565,3.565,0,0,0,0,7.129,1.123,1.123,0,1,1,0,2.245,5.809,5.809,0,0,1,0-11.618h397.414c29.776,0,54,22.817,54,50.862S2266.394,1679.159,2236.618,1679.159Z" transform="translate(-291.941 -363.865)"/><path class="cls-32" d="M2187.982,1711.516s13.488,33.6,5.713,58.33l-10.958-16.933a145.914,145.914,0,0,0-12.069,16.933s-8.368-55.239-24.589-58.33Z" transform="translate(-291.941 -363.865)"/><path class="cls-22" d="M2086.38,1646.955s-13.487,33.6-5.713,58.331l10.958-16.934a145.969,145.969,0,0,1,12.069,16.934s8.368-55.239,24.59-58.331Z" transform="translate(-291.941 -363.865)"/><path class="cls-34" d="M2240.057,1712.638H1801.648a1.122,1.122,0,1,1,0-2.244h438.409a1.122,1.122,0,1,1,0,2.244Z" transform="translate(-291.941 -363.865)"/><path class="cls-34" d="M2149.262,1648.077h-295.4a1.122,1.122,0,0,1,0-2.244h295.4a1.122,1.122,0,1,1,0,2.244Z" transform="translate(-291.941 -363.865)"/><polygon class="cls-18" points="1625.627 1377.069 1644.997 1387.952 1668.152 1365.177 1668.775 1361.485 1663.108 1320.045 1618.041 1328.437 1625.627 1377.069"/><path class="cls-36" d="M1950.658,1753.02l-62.118,8.459a9.77,9.77,0,0,1-1.393-.092c-6.094-1-4.689-4.97-4.689-4.97l27.234-22.517.2-2.773c.32-4.453,5.46-6.713,9.86-4.334l11.443,6.184s26.9.386,29.522-7.627l2.435,19.537S1966.011,1750.832,1950.658,1753.02Z" transform="translate(-291.941 -363.865)"/><polygon class="cls-18" points="1545.362 1379.725 1564.732 1390.608 1587.887 1367.832 1588.511 1364.141 1582.844 1322.701 1537.776 1331.093 1545.362 1379.725"/><path class="cls-36" d="M1870.393,1755.676l-62.118,8.459a9.613,9.613,0,0,1-1.393-.093c-6.093-1-4.689-4.969-4.689-4.969l27.234-22.517.2-2.773c.32-4.453,5.459-6.713,9.86-4.335l11.442,6.185s26.9.386,29.522-7.627l2.435,19.536S1885.747,1753.488,1870.393,1755.676Z" transform="translate(-291.941 -363.865)"/><path class="cls-28" d="M1989.612,1578.072s77.48,3.644,99-1.134,26.815-71.936,2.385-113.083-109.908,85.185-109.908,85.185Z" transform="translate(-291.941 -363.865)"/><path class="cls-36" d="M1941.684,1478.334s-107.9,16.785-111.026,29.295-12.09,145.513-5.388,202.255c0,0,41.105,2.83,60.763-1.936l5.572-129.987,33.083.606,72.91-102.055Z" transform="translate(-291.941 -363.865)"/><path class="cls-28" d="M1994.173,1486.148s-83.55,23.575-86.677,36.085-12.031,131.207-5.329,187.949c0,0,44.2,2.532,63.858-2.234l5.3-130.513,19.066.665,46.229-81.334Z" transform="translate(-291.941 -363.865)"/><path class="cls-37" d="M2045.964,1326.96s36.929.623,45.513,5.686,47.9,69.848,56.391,97.326c0,0-22.191,19.435-50.785,20.18l-6.872-12.957,3.928,26.527-74.894,22.212a122.868,122.868,0,0,1-77.447-2.516l-7.78-2.869s.118-126.058,22.634-139.379C1976.71,1329.3,2020.164,1323.061,2045.964,1326.96Z" transform="translate(-291.941 -363.865)"/><path class="cls-18" d="M1999.562,1265.023v35.687s-.5,12.064,10.053,13.572l-1.971,16.094a12.562,12.562,0,0,0,8.591,13.53,32.966,32.966,0,0,0,9.967,1.539c12.063,0,18.6-9.048,19.6-13.571s-2.01-26.137-2.01-26.137l.367-10.621-1.372-41.151Z" transform="translate(-291.941 -363.865)"/><path class="cls-9" d="M2028.687,1282.867a.5.5,0,0,0,.363-.851c-.07-.072-6.983-7.144-13.3-2.054a.5.5,0,0,0,.63.783c5.6-4.51,11.688,1.7,11.944,1.967A.5.5,0,0,0,2028.687,1282.867Z" transform="translate(-291.941 -363.865)"/><path class="cls-9" d="M2007.967,1279.851a.5.5,0,0,0,.33-.883c-.2-.175-5-4.276-8.029-1.676a.5.5,0,1,0,.654.763c2.375-2.037,6.673,1.636,6.716,1.673A.5.5,0,0,0,2007.967,1279.851Z" transform="translate(-291.941 -363.865)"/><path d="M2018.522,1284.9a1.508,1.508,0,1,0,1.508-1.508A1.508,1.508,0,0,0,2018.522,1284.9Z" transform="translate(-291.941 -363.865)"/><path d="M2002.494,1283.39a1.508,1.508,0,1,0,1.508-1.508A1.508,1.508,0,0,0,2002.494,1283.39Z" transform="translate(-291.941 -363.865)"/><path class="cls-9" d="M2041.383,1255.948l-8.414,11.914s-25.5,9.9-38.564-1.827-9.047-17.361-5.216-23.233c1.888-2.894,10.9-8.787,21.961-3.877,6.036,2.68,10.5-5.317,17.537-1.3s15.338,10.985,14.409,13.74S2041.383,1255.948,2041.383,1255.948Z" transform="translate(-291.941 -363.865)"/><path class="cls-9" d="M2040.874,1250.921s11.6-.558,14.844,10.612-1.117,17.019-1.229,20.349,2.147,25.781-13.615,24.106l-4.257-37.083,5.486-14.764Z" transform="translate(-291.941 -363.865)"/><circle class="cls-18" cx="2040.024" cy="1284.375" r="9.047" transform="translate(-602.621 1454.835) rotate(-45)"/><path class="cls-27" d="M2040.693,1289.919a3.772,3.772,0,0,0,3.549-2.824,3.544,3.544,0,0,0-1.428-4.135,4.254,4.254,0,0,0-4.751.167,4.088,4.088,0,0,1,1.827-2.228,5.68,5.68,0,0,1,4.016-.259.251.251,0,0,0,.158-.477,6.092,6.092,0,0,0-4.413.294,4.891,4.891,0,0,0-2.308,3.3l-.219.876.64-.637a3.936,3.936,0,0,1,4.785-.6,3.073,3.073,0,0,1,1.21,3.565,3.241,3.241,0,0,1-3.064,2.463h-.051a.251.251,0,0,0,0,.5Z" transform="translate(-291.941 -363.865)"/><path class="cls-27" d="M2034.086,1304.033s-.708,20.191-25.925,22.12l1.454-11.871S2025.969,1317.567,2034.086,1304.033Z" transform="translate(-291.941 -363.865)"/><path class="cls-9" d="M2091.224,1438.824c31.18-4.851,49.671-23.519,49.854-23.707l-1.08-1.053c-.18.185-18.344,18.5-49.005,23.27Z" transform="translate(-291.941 -363.865)"/><path class="cls-9" d="M1939.5,1711.725c19.531,0,26.494-2.942,26.825-3.086l.432-.19,5.128-131.281-8.07,3.806.643,1.364,5.823-2.746-4.993,127.825c-2.112.73-12.242,3.653-36.166,2.549l-.069,1.505C1932.881,1711.649,1936.356,1711.725,1939.5,1711.725Z" transform="translate(-291.941 -363.865)"/><path class="cls-9" d="M1957.819,1683.415c2.084-8.04,2.68-86.46,2.7-89.8l-1.508-.01c-.006.814-.619,81.566-2.657,89.427Z" transform="translate(-291.941 -363.865)"/><path class="cls-9" d="M1857.882,1712.206a138.045,138.045,0,0,0,28.885-2.9l4.838-131.347-6.177,4.283.946,1.174,3.61-2.906L1885.3,1708.1a136.939,136.939,0,0,1-28.879,2.591l-.015,1.508C1856.9,1712.2,1857.4,1712.206,1857.882,1712.206Z" transform="translate(-291.941 -363.865)"/><path class="cls-9" d="M1878.9,1686.331c2.073-12.144.095-94.349.01-97.842l-1.507.036c.021.855,2.059,85.552.01,97.553Z" transform="translate(-291.941 -363.865)"/><path class="cls-18" d="M1953.436,1492.63l8.538-13.275h0c4.7-7.6,12.3-17.573,20.208-18.455,12.918-1.442,91.606-4.674,116.572-7.754,0,0-1.714-3-1.671-2.994.291.065,20.413-3.428,20.413-3.428l12.956-6.144,11.65-5.037c3.218,12.537,12.045,33.133,2.99,47.482-16.732,26.514-144.7,13.46-156.058,9.988l-10.452,11.322-2.136,3.283a3.354,3.354,0,1,1-5.622-3.658l-.894,1.373a3.354,3.354,0,0,1-4.64.982h0a3.354,3.354,0,0,0-5.623-3.658,3.355,3.355,0,0,1-.982-4.641l.894-1.373a3.355,3.355,0,0,1-4.641.983h0c-.062-.041-.12-.086-.179-.131-.015-.009-.029-.02-.043-.03l-.085-.067-.01-.008-.009-.009a3.338,3.338,0,0,1-.546-.583A3.642,3.642,0,0,1,1953.436,1492.63Z" transform="translate(-291.941 -363.865)"/><path class="cls-9" d="M2096.679,1451.182l.482-.011c25.421-.6,50.974-20.14,51.229-20.338l.47-.364-16.122-35.721-1.375.62,15.63,34.628c-3.563,2.628-26.512,18.9-49.387,19.653l-6.919-14.083-1.353.664Z" transform="translate(-291.941 -363.865)"/><path class="cls-27" d="M2107.738,1465.458a.5.5,0,0,0,.508-.8l-9.161-11.792a.5.5,0,0,0-.794.618l9.161,11.791A.5.5,0,0,0,2107.738,1465.458Z" transform="translate(-291.941 -363.865)"/><path class="cls-27" d="M1958.11,1498.567a.5.5,0,0,0,.517-.194l11.987-16.459a.5.5,0,1,0-.812-.592l-11.988,16.459a.5.5,0,0,0,.11.7A.494.494,0,0,0,1958.11,1498.567Z" transform="translate(-291.941 -363.865)"/><path class="cls-27" d="M1963.374,1503.382a.5.5,0,0,0,.527-.209l11.441-16.968a.5.5,0,1,0-.834-.562l-11.44,16.968a.5.5,0,0,0,.136.7A.49.49,0,0,0,1963.374,1503.382Z" transform="translate(-291.941 -363.865)"/><path class="cls-27" d="M1969.73,1506.451a.5.5,0,0,0,.53-.213l9.517-14.383a.5.5,0,0,0-.839-.555l-9.516,14.383a.5.5,0,0,0,.142.7A.5.5,0,0,0,1969.73,1506.451Z" transform="translate(-291.941 -363.865)"/><path class="cls-9" d="M2022.8,1579.481c-38.214,0-61.308-2.568-61.651-2.607l.172-1.5c.513.058,52.339,5.819,129.618,0l.113,1.5C2065.117,1578.83,2042.039,1579.481,2022.8,1579.481Z" transform="translate(-291.941 -363.865)"/><rect class="cls-9" x="1936.937" y="1408.56" width="64.054" height="1.508" transform="matrix(0.032, -1, 1, 0.032, 206.247, 2968.936)"/><rect class="cls-9" x="2081.442" y="1379.165" width="1.508" height="75.116" transform="translate(-684 583.068) rotate(-23.48)"/><rect class="cls-9" x="2090.248" y="1433.019" width="1.508" height="20.919" transform="translate(-495.391 -11.902) rotate(-9.177)"/><path class="cls-27" d="M2013.2,1295.069a.251.251,0,0,0,.079-.489l-5.038-1.666,1.592-11.857a.251.251,0,0,0-.216-.282.247.247,0,0,0-.282.215l-1.648,12.27,5.434,1.8A.241.241,0,0,0,2013.2,1295.069Z" transform="translate(-291.941 -363.865)"/><path class="cls-30" d="M2017.105,1299.965c-.154-.03-9.952-.26-9.952-.26s1.23,4.052,4.871,4.147S2017.105,1299.965,2017.105,1299.965Z" transform="translate(-291.941 -363.865)"/><polygon class="cls-17" points="1515.569 1030.883 1635.334 1030.883 1677.103 1137.249 1557.338 1137.249 1515.569 1030.883"/><polygon class="cls-24" points="1677.103 1137.249 1670.853 1137.249 1629.085 1030.883 1635.334 1030.883 1677.103 1137.249"/><path class="cls-38" d="M1885.808,1444.541c1.66,4.887.444,9.718-2.717,10.792s-7.069-2.016-8.729-6.9-.444-9.718,2.717-10.792S1884.148,1439.655,1885.808,1444.541Z" transform="translate(-291.941 -363.865)"/><path class="cls-24" d="M2008.635,1492.523h-44.742v8.59h44.742a4.294,4.294,0,0,0,4.3-4.3h0A4.3,4.3,0,0,0,2008.635,1492.523Z" transform="translate(-291.941 -363.865)"/><rect class="cls-17" x="1677.103" y="1131.608" width="28.263" height="1.346"/><rect class="cls-28" x="1660.238" y="1137.249" width="52.704" height="18.832"/><rect class="cls-9" x="45.19" y="1420.903" width="1973.478" height="6.106"/><polygon class="cls-18" points="364.07 1405.734 315.697 1406.399 315.003 1360.778 363.186 1354.759 364.07 1405.734"/><path class="cls-39" d="M705.713,1777.811H606.944v-19.874s7.184-9.54,18.123-4.671c0,0,16.193,11.726,30.778-2.285l36.57,15.7S705.713,1771.054,705.713,1777.811Z" transform="translate(-291.941 -363.865)"/><path class="cls-20" d="M608.936,1777.811H710a0,0,0,0,1,0,0v6.956a0,0,0,0,1,0,0H608.936a1.992,1.992,0,0,1-1.992-1.992V1779.8A1.992,1.992,0,0,1,608.936,1777.811Z" transform="translate(1025.006 3198.715) rotate(180)"/><path class="cls-21" d="M666.67,1755.629c-3.313,5.173-9.967,15.569-14.2,22.182h-6.732c3.78-5.907,11.707-18.293,15.651-24.45Z" transform="translate(-291.941 -363.865)"/><path class="cls-21" d="M663.267,1777.811h-6.732c3.076-4.807,9.074-14.18,13.322-20.814l5.282,2.267C671.57,1764.838,666.626,1772.563,663.267,1777.811Z" transform="translate(-291.941 -363.865)"/><polygon class="cls-18" points="280.785 1405.734 232.412 1406.399 231.719 1360.778 279.901 1354.759 280.785 1405.734"/><path class="cls-39" d="M577.878,1374.7c1.6,47.112,8.569,231.4,23.216,351.975a15.805,15.805,0,0,0,15.708,13.923,121.344,121.344,0,0,0,34.851-5.251,15.9,15.9,0,0,0,11.3-14.924l5.955-366.876a15.722,15.722,0,0,0-.182-2.663l-.278-1.812a15.84,15.84,0,0,0-21.335-12.38l-59.083,22.7A15.826,15.826,0,0,0,577.878,1374.7Z" transform="translate(-291.941 -363.865)"/><path class="cls-28" d="M512.909,1365.193s-4.022,226.615,6.464,366.4a13.391,13.391,0,0,0,12.364,12.347,120.678,120.678,0,0,0,39.7-3.662,13.385,13.385,0,0,0,9.907-11.777L609.4,1403.512l17.271-90.233Z" transform="translate(-291.941 -363.865)"/><path class="cls-9" d="M520.219,1742.356h0Z" transform="translate(-291.941 -363.865)"/><path class="cls-24" d="M494.867,1293.07c.988,9.052,6.41,143.356,21.478,154.437s159.248.432,162.605-12.66S662.739,1281.4,662.739,1281.4Z" transform="translate(-291.941 -363.865)"/><path class="cls-24" d="M657.665,1229.792c1.947.033,79.053,36.356,79.053,36.356l-16.8,29.638-43.586-11.137Z" transform="translate(-291.941 -363.865)"/><path class="cls-24" d="M549.066,1085.683s-33.235-2.3-49.426,6.158c-24.162,12.621-18.34,89.82-18.34,89.82s20.518-10.3,21.864-13.921S549.066,1085.683,549.066,1085.683Z" transform="translate(-291.941 -363.865)"/><path class="cls-24" d="M516.652,1090.588c19-1.974,68.964-2.079,68.964-2.079s6.551,1.959,4.479.91c54.775,11.609,59.472,52.683,59.472,52.683l22.874,118.99,29.878,2.641c9.062,18.685.26,67.952.26,67.952l-145.544,11.4s-31.515,4.1-56.861-30.8c-16.768-23.085-20.38-92.33-18.652-142.776C481.522,1169.509,487.125,1093.656,516.652,1090.588Z" transform="translate(-291.941 -363.865)"/><path class="cls-9" d="M559.7,1259.294a.915.915,0,0,0,1.25-1.025c-.13-.651-13.086-65.58-18.152-106.333a.916.916,0,0,0-1.819.226c5.075,40.821,18.044,105.815,18.175,106.466A.912.912,0,0,0,559.7,1259.294Z" transform="translate(-291.941 -363.865)"/><path class="cls-9" d="M649.515,1260.824a.916.916,0,0,1-1.521-.633c-.043-.752-4.367-75.459-8.739-100.193a.916.916,0,1,1,1.8-.319c4.391,24.84,8.721,99.654,8.764,100.406A.913.913,0,0,1,649.515,1260.824Z" transform="translate(-291.941 -363.865)"/><path class="cls-9" d="M660.524,1244.63a.916.916,0,0,0,1.127-.357l6.5-10.323-.068-.355-17.615-91.633c-.1-.824-1.534-11.482-10.118-23.472-8.048-11.241-24.18-25.736-55.326-30.965a.916.916,0,1,0-.3,1.807c30.474,5.116,46.229,19.214,54.08,30.141,8.507,11.841,9.839,22.626,9.851,22.734l.011.068,17.553,91.311-6.12,9.71a.916.916,0,0,0,.286,1.264A.931.931,0,0,0,660.524,1244.63Z" transform="translate(-291.941 -363.865)"/><path class="cls-9" d="M535.3,1252.354a.923.923,0,0,0,.119.04l24.29,6.436a.916.916,0,0,0,.469-1.771l-24.29-6.436a.916.916,0,0,0-.588,1.731Z" transform="translate(-291.941 -363.865)"/><path class="cls-9" d="M692.931,1246.068a.916.916,0,0,0,.721-1.685l-26.1-11.454a.926.926,0,0,0-1.207.471.916.916,0,0,0,.47,1.207l26.095,11.454Z" transform="translate(-291.941 -363.865)"/><path class="cls-32" d="M801.085,1332.754l-85.778-5.639c-4.071-.267-7.5-3.883-7.024-7.4l17.087-126.324c.345-2.553,2.682-4.226,5.634-4.032l85.777,5.639c4.071.268,7.5,3.883,7.024,7.4l-17.086,126.324C806.373,1331.276,804.037,1332.948,801.085,1332.754Z" transform="translate(-291.941 -363.865)"/><path class="cls-18" d="M759.512,1306.265a4.625,4.625,0,0,0-4.308-4.583l-14.582-.975a1.076,1.076,0,0,1-.966-.793h0a1.075,1.075,0,0,1,.966-1.35l21.588-1.429a3.563,3.563,0,0,0,3.328-4.65h0a5.735,5.735,0,0,0-5.666-4.055l-22.014,1.458a1.074,1.074,0,0,1-1.108-.793l-.094-.35a1.075,1.075,0,0,1,.759-1.316l23.6-6.339a4.624,4.624,0,0,0,3.335-5.332,4.421,4.421,0,0,0-5.449-3.254l-23.78,6.387a1.073,1.073,0,0,1-1.315-.758l-.3-1.111a1.074,1.074,0,0,1,.626-1.271l21.1-8.742a4.624,4.624,0,0,0,2.613-5.72,4.419,4.419,0,0,0-5.825-2.518s-32.459,11.487-37.756,12.884l9.763-4.562c7.184,6.736-.926-2.458-6.837-3.649-6.549-1.319-23.85,14.7-23.85,14.7-.8,1.379.023,4.458,1.272,6.777,4.827,25.635,5.781,29.544,7.719,36.336L729,1313.119a66.328,66.328,0,0,1,23.779-2.738l2.016.135A4.422,4.422,0,0,0,759.512,1306.265Z" transform="translate(-291.941 -363.865)"/><ellipse class="cls-7" cx="770.769" cy="1238.602" rx="8.524" ry="8.072" transform="translate(-967.156 1067.996) rotate(-65.719)"/><polygon class="cls-32" points="425.549 897.786 424.337 907.196 434.351 903.853 434.218 897.041 425.549 897.786"/><path class="cls-9" d="M816.786,1194.074l-85.778-5.639c-3.378-.222-6.123,1.785-6.527,4.773l-10.333,78.6,2.128-.739,9.983-77.508c.283-2.1,2.233-3.456,4.74-3.292l85.777,5.639a.845.845,0,0,0,.9-.86A.977.977,0,0,0,816.786,1194.074Z" transform="translate(-291.941 -363.865)"/><path class="cls-24" d="M702.319,1263.733s8.8,22.906.26,67.952l-8.548-32.362-14.253-21.078Z" transform="translate(-291.941 -363.865)"/><path class="cls-9" d="M528.046,1259.03a.918.918,0,0,0,.349.071c1.311,0,130.987.534,173.251,5.475.948,2.818,5.24,17.356,3,43.611a.916.916,0,1,0,1.826.156c2.532-29.751-3.065-44.34-3.3-44.946l-.2-.508-.542-.065c-41.767-5.016-172.709-5.55-174.027-5.556a.916.916,0,0,0-.355,1.762Z" transform="translate(-291.941 -363.865)"/><path class="cls-9" d="M580.929,1340.005c52.952,0,117.767-6.832,121.763-7.259a1.068,1.068,0,0,0,.948-1.174,1.052,1.052,0,0,0-1.176-.948c-1.444.153-144.883,15.276-180.913,1.152-35.608-13.959-38.093-92.411-38.114-93.2a1.068,1.068,0,0,0-2.135.056c.088,3.287,2.548,80.659,39.471,95.133C532.647,1338.418,555.41,1340.005,580.929,1340.005Z" transform="translate(-291.941 -363.865)"/><path class="cls-9" d="M550.179,1003.923s-12.583,6.493-6.292,31.885l4.759-2.454-1.6-13.489Z" transform="translate(-291.941 -363.865)"/><path class="cls-18" d="M594.271,1019.677v37.209s.521,12.578-10.416,14.15l2.042,16.782a13.1,13.1,0,0,1-8.9,14.106,33.932,33.932,0,0,1-10.327,1.605c-12.5,0-19.27-9.433-20.311-14.15s2.083-27.252,2.083-27.252l-.381-11.074,1.423-42.906Z" transform="translate(-291.941 -363.865)"/><path class="cls-9" d="M564.093,1038.282a.517.517,0,0,1-.361-.147.526.526,0,0,1-.015-.74c.072-.076,7.235-7.449,13.781-2.142a.527.527,0,0,1,.079.737.519.519,0,0,1-.733.079c-5.8-4.7-12.11,1.773-12.375,2.051A.521.521,0,0,1,564.093,1038.282Z" transform="translate(-291.941 -363.865)"/><path class="cls-9" d="M585.562,1035.137a.517.517,0,0,1-.394-.181.527.527,0,0,1,.052-.739c.21-.183,5.179-4.459,8.319-1.748a.525.525,0,0,1,.057.738.518.518,0,0,1-.735.057c-2.46-2.123-6.914,1.706-6.958,1.745A.517.517,0,0,1,585.562,1035.137Z" transform="translate(-291.941 -363.865)"/><path d="M574.625,1040.4a1.563,1.563,0,1,1-1.563-1.573A1.568,1.568,0,0,1,574.625,1040.4Z" transform="translate(-291.941 -363.865)"/><path d="M591.233,1038.827a1.563,1.563,0,1,1-1.563-1.572A1.568,1.568,0,0,1,591.233,1038.827Z" transform="translate(-291.941 -363.865)"/><ellipse class="cls-18" cx="255.082" cy="677.08" rx="9.374" ry="9.433"/><path class="cls-27" d="M546.33,1046.725a3.913,3.913,0,0,1-3.677-2.945,3.7,3.7,0,0,1,1.479-4.31,4.382,4.382,0,0,1,4.922.173,4.248,4.248,0,0,0-1.892-2.322,5.853,5.853,0,0,0-4.161-.271.258.258,0,0,1-.329-.166.262.262,0,0,1,.165-.331,6.274,6.274,0,0,1,4.572.307,5.092,5.092,0,0,1,2.392,3.436l.227.913-.663-.663a4.06,4.06,0,0,0-4.958-.631,3.217,3.217,0,0,0-1.254,3.718,3.364,3.364,0,0,0,3.174,2.568h.054a.263.263,0,0,1,0,.525Z" transform="translate(-291.941 -363.865)"/><path class="cls-9" d="M596.085,1050.966s3.4,25.2-13.223,26.1c-23.793,1.281-26.1-12.384-27.511-23.564l-.239-23.077.764-6.7h0a12,12,0,0,1,2.936,6.86c.492,5.533,1.711,20.441,3.083,21.1C563.833,1052.617,592.381,1048.539,596.085,1050.966Z" transform="translate(-291.941 -363.865)"/><path class="cls-27" d="M580.136,1051.005a.262.262,0,0,1-.081-.511l5.22-1.737-1.649-12.362a.26.26,0,1,1,.516-.07l1.707,12.793-5.631,1.874A.26.26,0,0,1,580.136,1051.005Z" transform="translate(-291.941 -363.865)"/><path class="cls-30" d="M576.093,1056.109c.161-.031,10.312-.271,10.312-.271s-1.274,4.225-5.047,4.324S576.093,1056.109,576.093,1056.109Z" transform="translate(-291.941 -363.865)"/><path class="cls-9" d="M555.827,1024.154l-4.707-4.289-4.87,11.706s6.021,1,6.126,7.256-3.275,16.037,7.569,30.084-.874-20.968-.978-22.186S555.827,1024.154,555.827,1024.154Z" transform="translate(-291.941 -363.865)"/><path class="cls-9" d="M550.179,1003.923c5.021-4.982,22.435-7.825,34.861-.336v-.013c14.148,6.922,9.7,21.01,9.234,21.429l-.183-.141c.071.325.136.651.183.977a15.565,15.565,0,0,0-1.865-2.265l-5.564-4.261a29.527,29.527,0,0,0-12.71-3.621,39.386,39.386,0,0,0-13.914,1.132c-1.019,3.2-1.846,9.53-.651,22,1.824,19.027-6.487-4.053-9.51-12.892a21.948,21.948,0,0,0-1.356,5.636S540.117,1013.906,550.179,1003.923Z" transform="translate(-291.941 -363.865)"/><path class="cls-18" d="M594.271,1030.129s.371-7.637,0-9.311-17.369-6.477-26.679-5.2,8.737,11.529,8.946,11.529S594.271,1030.129,594.271,1030.129Z" transform="translate(-291.941 -363.865)"/><polygon class="cls-18" points="270.06 653.71 261.063 645.341 269.537 657.581 270.06 653.71"/><path class="cls-9" d="M562,1001.1s1.831-18.046-8.212-14.123-11.769,12.24-2.668,17.732S562,1001.1,562,1001.1Z" transform="translate(-291.941 -363.865)"/><path class="cls-24" d="M524.958,1124.286l17.728-29.73,31.151,9.409,12.635-13.441s2.689,12.413,2.61,13.441-14.233,15.735-16.051,15.577S524.958,1124.286,524.958,1124.286Z" transform="translate(-291.941 -363.865)"/><path class="cls-9" d="M527.483,1451.743a1.067,1.067,0,0,0,.075-2.132c-14.956-1.069-17.01-13.787-20.413-34.856-.611-3.788-1.243-7.7-2-11.913-5.065-27.984-7.294-95.78-7.315-96.461a1.068,1.068,0,0,0-1.067-1.033h-.035a1.069,1.069,0,0,0-1.033,1.1c.022.683,2.257,68.636,7.348,96.773.759,4.19,1.39,8.1,2,11.873,3.449,21.351,5.727,35.456,22.367,36.645A.687.687,0,0,0,527.483,1451.743Z" transform="translate(-291.941 -363.865)"/><path class="cls-5" d="M584.6,1077.144l1.289,10.529s-7.709,11.568-12.985,15.263c-10.46-7.254-26.652-17.4-26.652-17.4l.946-13.31c-19.418-2.214-41.531,9.992-36.47,16.279s31.36,8.219,38.34,10.509c6.886,2.259,24.48,7.6,24.48,7.6,4.626-3.435,17.047-18.029,17.047-18.029l12.569,3.488C603.406,1079.322,584.6,1077.144,584.6,1077.144Z" transform="translate(-291.941 -363.865)"/><path class="cls-28" d="M622.428,1777.811H523.659v-19.874s7.184-9.54,18.123-4.671c0,0,16.194,11.726,30.779-2.285l36.569,15.7S622.428,1771.054,622.428,1777.811Z" transform="translate(-291.941 -363.865)"/><path class="cls-23" d="M525.652,1777.811H626.718a0,0,0,0,1,0,0v6.956a0,0,0,0,1,0,0H525.652a1.992,1.992,0,0,1-1.992-1.992V1779.8A1.992,1.992,0,0,1,525.652,1777.811Z" transform="translate(858.436 3198.715) rotate(180)"/><path class="cls-21" d="M583.385,1755.629c-3.313,5.173-9.967,15.569-14.2,22.182h-6.733c3.781-5.907,11.707-18.293,15.651-24.45Z" transform="translate(-291.941 -363.865)"/><path class="cls-21" d="M579.983,1777.811H573.25c3.076-4.807,9.075-14.18,13.322-20.814l5.282,2.267Z" transform="translate(-291.941 -363.865)"/><path d="M573.546,1107.33a.706.706,0,0,0,.507-.212l21.941-22.289a.712.712,0,0,0-1.015-1l-21.94,22.289a.711.711,0,0,0,.507,1.21Z" transform="translate(-291.941 -363.865)"/><path class="cls-17" d="M1147.873,1294.462a107.107,107.107,0,1,0-183.3,75.267h0s32.414,34.664,43.36,72.446c0,0,18.714,6.356,32.838,6.709,14.124-.353,32.838-6.709,32.838-6.709,10.946-37.782,43.36-72.446,43.36-72.446h0A106.757,106.757,0,0,0,1147.873,1294.462Z" transform="translate(-291.941 -363.865)"/><path class="cls-22" d="M1005.037,1433.635v28.64a30.749,30.749,0,0,0,19.238,28.511,16.627,16.627,0,0,0,32.934,0,30.75,30.75,0,0,0,19.238-28.511v-28.64Z" transform="translate(-291.941 -363.865)"/><g class="cls-40"><path class="cls-17" d="M1147.873,1294.462A106.6,106.6,0,0,0,1130,1235.2c-31.326,77.186-81.287,129.1-153.252,149.234,9.064,11.889,21.077,29.791,28.342,49.2h71.361v0c12.84-34.308,40.518-63.91,40.518-63.91h0A106.757,106.757,0,0,0,1147.873,1294.462Z" transform="translate(-291.941 -363.865)"/></g><path class="cls-15" d="M1058.268,1434.053l-3.066-.837c.1-.366,10.089-37.092,17.016-74.71,12.021-65.27,5.109-79.114-.082-81.556-5.306-2.5-9.478-2.05-12.4,1.331q-.319.369-.613.776a19.822,19.822,0,0,1,9.729,13.943c1.188,7.578-2.2,15.143-7.555,16.863-1.3.417-3.791.627-5.947-2.634-3.426-5.178-4.5-18.127-.661-26.761a35.245,35.245,0,0,0-13.3-2.307H1038.3a35.257,35.257,0,0,0-13.3,2.307c3.835,8.634,2.766,21.583-.659,26.761-2.156,3.26-4.65,3.052-5.948,2.634-5.353-1.721-8.743-9.285-7.555-16.863a19.828,19.828,0,0,1,9.729-13.944q-.293-.4-.613-.775c-2.923-3.38-7.1-3.828-12.4-1.331-5.19,2.442-12.1,16.286-.082,81.556,6.928,37.618,16.917,74.344,17.017,74.71l-3.066.837c-.1-.367-10.12-37.207-17.073-74.954-9.6-52.11-8.993-79.922,1.851-85.024,8.413-3.958,13.431-1.028,16.16,2.127a14.885,14.885,0,0,1,1.078,1.412,37.721,37.721,0,0,1,14.864-2.631h3.092a37.726,37.726,0,0,1,14.865,2.631,14.72,14.72,0,0,1,1.078-1.412c2.728-3.155,7.747-6.086,16.159-2.127,10.844,5.1,11.45,32.914,1.851,85.024C1068.388,1396.846,1058.368,1433.686,1058.268,1434.053Zm-36.127-152.184a16.039,16.039,0,0,0-8.168,11.623c-1.037,6.614,1.949,12.24,5.388,13.346.32.1,1.172.379,2.324-1.362C1024.618,1301.042,1025.392,1289.33,1022.141,1281.869Zm35.4,0c-3.252,7.461-2.478,19.173.455,23.607,1.152,1.741,2,1.465,2.324,1.362,3.439-1.106,6.425-6.732,5.388-13.345A16.037,16.037,0,0,0,1057.542,1281.869Z" transform="translate(-291.941 -363.865)"/><path class="cls-9" d="M1004.518,1434.384c-.854-2.442-1.239-3.336-2.083-5.3l-.459-1.07c-13.373-31.229-37.743-57.486-37.987-57.747l-.077-.082A107.9,107.9,0,1,1,1131.1,1235.431l-1.33.87A106.316,106.316,0,1,0,965.138,1369.17l1.035,1.048-.074.016c4.664,5.213,25.367,29.207,37.337,57.159l.459,1.067c.858,1.994,1.25,2.9,2.123,5.4Z" transform="translate(-291.941 -363.865)"/><path class="cls-9" d="M965.966,1245.014l-1.525-.442c.077-.266,8-26.628,34.64-36.54l.554,1.489C973.758,1219.147,966.042,1244.757,965.966,1245.014Z" transform="translate(-291.941 -363.865)"/><path class="cls-9" d="M970.877,1254.546l-1.525-.443c.077-.265,8-26.628,34.64-36.539l.554,1.489C978.669,1228.679,970.953,1254.288,970.877,1254.546Z" transform="translate(-291.941 -363.865)"/><path class="cls-9" d="M1044.635,1493.816h-7.785a32.645,32.645,0,0,1-32.608-32.608V1432.84h72.2v1.589h-70.616v26.779a31.054,31.054,0,0,0,31.019,31.019h7.785a30.84,30.84,0,0,0,21.751-8.905l1.114,1.132A32.417,32.417,0,0,1,1044.635,1493.816Z" transform="translate(-291.941 -363.865)"/><path class="cls-9" d="M1041.2,1505.912c-15.475,0-17.71-15.013-17.732-15.166l1.575-.217c.08.577,2.146,14.124,16.674,13.788l.035,1.589C1041.571,1505.91,1041.386,1505.912,1041.2,1505.912Z" transform="translate(-291.941 -363.865)"/><path class="cls-9" d="M1114.214,1354.421l-.947-1.277c14.137-10.488,16.361-28,16.382-28.173l1.578.186C1131.206,1325.339,1128.914,1343.514,1114.214,1354.421Z" transform="translate(-291.941 -363.865)"/><path class="cls-9" d="M1111.085,1346.79l-.947-1.277c10.3-7.643,11.93-20.414,11.945-20.542l1.578.186C1123.6,1325.707,1121.952,1338.727,1111.085,1346.79Z" transform="translate(-291.941 -363.865)"/><path class="cls-9" d="M1001.759,1447.913l-.019-1.589c.606-.007,60.816-.788,79.885-7.895l.555,1.489C1062.852,1447.122,1004.244,1447.883,1001.759,1447.913Z" transform="translate(-291.941 -363.865)"/><path class="cls-9" d="M1001.764,1461.33l-.029-1.589c.658-.012,66-1.307,78.213-7.85l.751,1.4C1068.149,1460.014,1004.469,1461.28,1001.764,1461.33Z" transform="translate(-291.941 -363.865)"/><path class="cls-9" d="M1005.044,1475.1l-.014-1.588c.59-.006,59.223-.624,74.929-8.74l.729,1.412C1064.648,1474.475,1007.47,1475.08,1005.044,1475.1Z" transform="translate(-291.941 -363.865)"/><path class="cls-17" d="M906.355,1277.6c-.068,0-.136,0-.2-.008l-37.9-3.226a2.384,2.384,0,0,1,.4-4.75l37.9,3.226a2.383,2.383,0,0,1-.2,4.758Z" transform="translate(-291.941 -363.865)"/><path class="cls-17" d="M925.959,1217.218a2.373,2.373,0,0,1-1.344-.417l-31.394-21.481a2.383,2.383,0,0,1,2.692-3.934l31.394,21.481a2.384,2.384,0,0,1-1.348,4.351Z" transform="translate(-291.941 -363.865)"/><path class="cls-17" d="M982.7,1173.9a2.384,2.384,0,0,1-2.209-1.487l-14.317-35.243a2.383,2.383,0,0,1,4.416-1.794l14.317,35.243a2.385,2.385,0,0,1-2.207,3.281Z" transform="translate(-291.941 -363.865)"/><path class="cls-17" d="M1173.273,1284.47a2.384,2.384,0,0,1-.154-4.762l37.957-2.507a2.384,2.384,0,0,1,.314,4.757l-37.958,2.507C1173.379,1284.468,1173.326,1284.47,1173.273,1284.47Z" transform="translate(-291.941 -363.865)"/><path class="cls-17" d="M1154.816,1223.725a2.384,2.384,0,0,1-1.311-4.376l31.8-20.882a2.383,2.383,0,1,1,2.616,3.984l-31.8,20.882A2.367,2.367,0,0,1,1154.816,1223.725Z" transform="translate(-291.941 -363.865)"/><path class="cls-17" d="M1106.249,1173.764a2.387,2.387,0,0,1-2.191-3.323l14.983-34.965a2.384,2.384,0,0,1,4.382,1.877l-14.983,34.965A2.384,2.384,0,0,1,1106.249,1173.764Z" transform="translate(-291.941 -363.865)"/><path class="cls-17" d="M1045.148,1155.254h-.037a2.383,2.383,0,0,1-2.347-2.42l.586-38.035a2.384,2.384,0,0,1,2.383-2.347h.037a2.385,2.385,0,0,1,2.347,2.42l-.586,38.036A2.385,2.385,0,0,1,1045.148,1155.254Z" transform="translate(-291.941 -363.865)"/><g class="cls-41"><ellipse class="cls-16" cx="1090.598" cy="1228.599" rx="12.534" ry="26.244" transform="translate(-824.84 1115.959) rotate(-57.202)"/></g><rect class="cls-7" x="1071.338" y="374.229" width="198.03" height="122.111" rx="8.171" transform="translate(2048.766 506.704) rotate(180)"/><path class="cls-6" d="M1089.935,396.462h165.126a2.069,2.069,0,1,0,0-4.138H1089.935a2.069,2.069,0,1,0,0,4.138Z" transform="translate(-291.941 -363.865)"/><path class="cls-6" d="M1089.935,419.964h165.126a2.069,2.069,0,1,0,0-4.138H1089.935a2.069,2.069,0,1,0,0,4.138Z" transform="translate(-291.941 -363.865)"/><path class="cls-6" d="M1147.771,443.466h107.29a2.069,2.069,0,1,0,0-4.138h-107.29a2.069,2.069,0,1,0,0,4.138Z" transform="translate(-291.941 -363.865)"/><path class="cls-6" d="M1088.709,443.466h42.815a2.069,2.069,0,1,0,0-4.138h-42.815a2.069,2.069,0,1,0,0,4.138Z" transform="translate(-291.941 -363.865)"/><path class="cls-6" d="M1187.621,466.968h67.44a2.069,2.069,0,1,0,0-4.138h-67.44a2.069,2.069,0,0,0,0,4.138Z" transform="translate(-291.941 -363.865)"/><path class="cls-6" d="M1088.709,466.968h83.79a2.069,2.069,0,0,0,0-4.138h-83.79a2.069,2.069,0,1,0,0,4.138Z" transform="translate(-291.941 -363.865)"/><path class="cls-7" d="M1131.9,490.942c-.2.817-32.085,42.3-32.29,41.077s3.679-44.552,3.679-44.552Z" transform="translate(-291.941 -363.865)"/><rect class="cls-9" x="444.777" y="1372.166" width="318.71" height="2.513"/><g class="cls-42"><path class="cls-22" d="M787.779,1585.568a99.908,99.908,0,0,0,29.321,13.865l3.531,26.349,18.156.889,18.156.889,6.089-25.877a99.955,99.955,0,0,0,30.535-10.935l21.131,16.137,13.467-12.21,13.467-12.209-14-22.607a99.933,99.933,0,0,0,13.865-29.321l26.349-3.531.889-18.156.889-18.156-25.878-6.089a99.953,99.953,0,0,0-10.934-30.535l16.137-21.131-12.21-13.467-12.209-13.467L901.927,1420a99.94,99.94,0,0,0-29.32-13.865l-3.532-26.349-18.155-.889-18.156-.889-6.089,25.878a99.917,99.917,0,0,0-30.535,10.934l-21.132-16.137-13.466,12.21L748.075,1423.1l14,22.607a99.908,99.908,0,0,0-13.865,29.321l-26.349,3.531-.889,18.156-.889,18.156,25.877,6.089A99.955,99.955,0,0,0,756.89,1551.5l-16.137,21.131,12.21,13.467,12.209,13.467Zm11.269-133.306a68.2,68.2,0,1,1-4.717,96.328A68.2,68.2,0,0,1,799.048,1452.262Z" transform="translate(-291.941 -363.865)"/></g></g></g></svg>