<svg id="a427d045-c8f0-49fa-ad20-2abb8c132060" data-name="Capa 1" xmlns="http://www.w3.org/2000/svg" viewBox="0 0 814.24 252.733">
  <defs>
    <style>
      .ba1d7b0f-38b2-455a-8a7b-ac8f933fe635 {
        fill: #fff;
      }

      .a86c8c86-2458-4951-bac2-777f0e88da82 {
        fill: #f9b66d;
      }

      .ba7fbd45-7214-495e-9c07-055a1144b76a {
        fill: #7abc65;
      }

      .ec68431c-8ce4-432d-af9f-1a5fbf12ac03 {
        fill: #88ac4b;
      }

      .ea22071d-724c-4111-b6bf-e989007d8dec {
        fill: #99d5ec;
      }

      .f7242ce0-c426-48a3-aa68-6f208eedb0fe {
        fill: #a992c4;
      }

      .a6691191-01ca-48a7-8f12-756231ca309a {
        fill: #e77eb0;
      }
    </style>
  </defs>
  <title>logo</title>
  <g>
    <path class="ba1d7b0f-38b2-455a-8a7b-ac8f933fe635" d="M52.8,118.752a37.273,37.273,0,0,1,2.448-14.04,30.452,30.452,0,0,1,6.44-10.11,26.555,26.555,0,0,1,9.145-6.119,28.231,28.231,0,0,1,10.562-2.061q13.394,0,20.351,7.922t6.955,23.12q0,1.547-.065,3.22t-.193,2.7H69.155a10.787,10.787,0,0,0,4.895,9.338q4.893,3.414,12.623,3.413a38.934,38.934,0,0,0,9.08-1.03q4.314-1.031,7.278-2.061l2.189,13.524a72.045,72.045,0,0,1-8.759,2.383,51.342,51.342,0,0,1-10.432.966,44.568,44.568,0,0,1-13.847-2A28.284,28.284,0,0,1,61.749,142a25.976,25.976,0,0,1-6.633-9.725A36.257,36.257,0,0,1,52.8,118.752Zm40.574-6.311a17.063,17.063,0,0,0-.645-4.7,11.755,11.755,0,0,0-2.061-4.057,10.49,10.49,0,0,0-3.606-2.9,12.056,12.056,0,0,0-5.41-1.1A12.758,12.758,0,0,0,76.3,100.72a10.29,10.29,0,0,0-3.735,2.833,13.823,13.823,0,0,0-2.319,4.122,20.2,20.2,0,0,0-1.095,4.766Z" transform="translate(-51.51 -38.853)"/>
    <path class="ba1d7b0f-38b2-455a-8a7b-ac8f933fe635" d="M173.357,145.929a17.1,17.1,0,0,1-1.739.9,29.561,29.561,0,0,1-3.542,1.353,37.455,37.455,0,0,1-5.346,1.223,44.859,44.859,0,0,1-7.148.515q-10.949,0-15.972-6.5t-5.023-19V73.027H117.843V59.889H150.43v65.689q0,6.183,2.447,8.373a8.914,8.914,0,0,0,6.182,2.189,21.584,21.584,0,0,0,7.986-1.288q3.219-1.285,4.251-1.674Z" transform="translate(-51.51 -38.853)"/>
    <path class="a86c8c86-2458-4951-bac2-777f0e88da82" d="M234.023,146.444q-4.38,1.16-10.627,2.319a74.554,74.554,0,0,1-13.588,1.159,31.077,31.077,0,0,1-12.236-2.061,17.813,17.813,0,0,1-7.535-5.86,22.411,22.411,0,0,1-3.8-8.952,57.809,57.809,0,0,1-1.031-11.334V87.968H201.05v31.686q0,8.373,2,12.429t7.793,4.057a40.825,40.825,0,0,0,7.213-.644V87.968h15.971ZM223.847,71.61,201.435,82.429l-5.8-8.629,20.35-14.3Z" transform="translate(-51.51 -38.853)"/>
    <path class="a86c8c86-2458-4951-bac2-777f0e88da82" d="M302.159,145.929a16.866,16.866,0,0,1-1.739.9,29.5,29.5,0,0,1-3.542,1.353,37.471,37.471,0,0,1-5.345,1.223,44.872,44.872,0,0,1-7.149.515q-10.95,0-15.971-6.5t-5.024-19V73.027H246.645V59.889h32.587v65.689q0,6.183,2.447,8.373a8.918,8.918,0,0,0,6.183,2.189,21.584,21.584,0,0,0,7.986-1.288q3.219-1.285,4.25-1.674Z" transform="translate(-51.51 -38.853)"/>
    <path class="a86c8c86-2458-4951-bac2-777f0e88da82" d="M324.829,101.106H311.046V87.968h13.783V72.77l15.842-2.577V87.968h25.374v13.138H340.671v24.472a18.55,18.55,0,0,0,.644,5.41,7.7,7.7,0,0,0,1.8,3.22,5.739,5.739,0,0,0,2.833,1.546,16.668,16.668,0,0,0,3.735.386q2.188,0,4.058-.129a31.347,31.347,0,0,0,3.606-.45,24.973,24.973,0,0,0,3.606-.966,40.844,40.844,0,0,0,4.058-1.675l2.19,13.653a40.837,40.837,0,0,1-9.467,2.576,65.545,65.545,0,0,1-9.854.773,47.656,47.656,0,0,1-9.789-.9,15.725,15.725,0,0,1-7.213-3.478,15.99,15.99,0,0,1-4.508-7.277,40.305,40.305,0,0,1-1.545-12.3Z" transform="translate(-51.51 -38.853)"/>
    <path class="a86c8c86-2458-4951-bac2-777f0e88da82" d="M430.961,145.929a39.173,39.173,0,0,1-9.209,3.156,41.867,41.867,0,0,1-7.921.837,26.261,26.261,0,0,1-10.369-1.8,15.929,15.929,0,0,1-6.7-5.217,21.141,21.141,0,0,1-3.542-8.307,54.66,54.66,0,0,1-1.031-11.206V101.106H375.448V87.968h32.587V125.45q0,5.409,2,8.05t6.632,2.64a29.405,29.405,0,0,0,5.282-.579,29.734,29.734,0,0,0,6.955-2.383ZM407.391,70.58a9.448,9.448,0,0,1-2.963,7.341,10.143,10.143,0,0,1-7.084,2.7,9.908,9.908,0,0,1-7.019-2.7,9.555,9.555,0,0,1-2.9-7.341,9.723,9.723,0,0,1,2.9-7.471,9.912,9.912,0,0,1,7.019-2.7,10.147,10.147,0,0,1,7.084,2.7A9.612,9.612,0,0,1,407.391,70.58Z" transform="translate(-51.51 -38.853)"/>
    <path class="a86c8c86-2458-4951-bac2-777f0e88da82" d="M479.392,87.324a19.072,19.072,0,0,1,8.243,1.546,11.805,11.805,0,0,1,5.088,4.636,20.391,20.391,0,0,1,2.512,7.793,82.526,82.526,0,0,1,.643,11.013v36.193H483V111.539a29.919,29.919,0,0,0-.451-5.8,10.777,10.777,0,0,0-1.159-3.349,3.565,3.565,0,0,0-1.675-1.545,5.315,5.315,0,0,0-2-.387,16.482,16.482,0,0,0-2.447.193,7.742,7.742,0,0,0-2.318.709q.385,2.448.643,5.41t.258,6.568V125.45h-12.88V111.539q0-6.181-1.224-8.63a4.1,4.1,0,0,0-3.928-2.447,16.521,16.521,0,0,0-1.867.129,16.959,16.959,0,0,0-2.126.386v47.528h-12.88V90.287a85.813,85.813,0,0,1,9.918-2.19,56.114,56.114,0,0,1,8.63-.773,19.841,19.841,0,0,1,5.989.837,11.153,11.153,0,0,1,4.572,2.77,26.158,26.158,0,0,1,5.152-2.512A17.733,17.733,0,0,1,479.392,87.324Z" transform="translate(-51.51 -38.853)"/>
    <path class="a86c8c86-2458-4951-bac2-777f0e88da82" d="M560.409,118.108a39.249,39.249,0,0,1-2.061,13.073,30.415,30.415,0,0,1-5.8,10.112,25.629,25.629,0,0,1-8.951,6.568,30.455,30.455,0,0,1-23.313,0,26.257,26.257,0,0,1-9.017-6.568,29.789,29.789,0,0,1-5.86-10.112,39.2,39.2,0,0,1-2.061-13.073,37.734,37.734,0,0,1,2.125-12.944A29.943,29.943,0,0,1,511.4,95.117a25.772,25.772,0,0,1,9.081-6.441,30.441,30.441,0,0,1,22.991,0,25.946,25.946,0,0,1,9.016,6.441,29.153,29.153,0,0,1,5.861,10.047A38.855,38.855,0,0,1,560.409,118.108Zm-40.959.129q0,8.114,2.9,13.138t9.339,5.023a10.332,10.332,0,0,0,9.338-5.023q3.153-5.025,3.155-13.138t-2.9-13.073q-2.9-4.958-9.339-4.959a10.363,10.363,0,0,0-9.338,4.959Q519.446,110.123,519.45,118.237Z" transform="translate(-51.51 -38.853)"/>
    <path class="ba1d7b0f-38b2-455a-8a7b-ac8f933fe635" d="M95.818,269.947a56.633,56.633,0,0,0-3.092-6.826,34.093,34.093,0,0,1-9.016,5.861,23.018,23.018,0,0,1-9.145,2,26.109,26.109,0,0,1-10.111-1.8,21.065,21.065,0,0,1-7.213-4.83,19.406,19.406,0,0,1-4.315-7.021,24.8,24.8,0,0,1-1.416-8.372,23.649,23.649,0,0,1,3.155-11.784,26.288,26.288,0,0,1,9.467-9.468,46.052,46.052,0,0,1-5.088-8.886,24.171,24.171,0,0,1-2-9.662,21.555,21.555,0,0,1,1.8-9.08,18.962,18.962,0,0,1,4.766-6.5A20.253,20.253,0,0,1,70.25,189.7a22.621,22.621,0,0,1,7.535-1.288,22.273,22.273,0,0,1,7.085,1.159,18.893,18.893,0,0,1,6.182,3.413,17.04,17.04,0,0,1,4.379,5.667,17.8,17.8,0,0,1,1.674,7.922,22.146,22.146,0,0,1-3.734,12.043q-3.738,5.862-11.722,9.983,2.576,3.09,5.41,6.31t5.8,6.57A62.769,62.769,0,0,0,94.787,225.9l13.138,1.673a52.891,52.891,0,0,1-1.867,13.4,55.024,55.024,0,0,1-4.444,11.2,78.932,78.932,0,0,1,5.538,8.759,44.79,44.79,0,0,1,3.736,9.016Zm-9.4-16.1q-3.608-4.507-7.471-8.759t-7.6-8.371a15.883,15.883,0,0,0-4.573,4.7,12.479,12.479,0,0,0-1.738,6.762,12.906,12.906,0,0,0,2.254,7.6Q69.54,259,74.952,259a16.176,16.176,0,0,0,5.924-1.159A14.906,14.906,0,0,0,86.415,253.847ZM70.7,208.38a15.335,15.335,0,0,0,1.159,5.731,32.952,32.952,0,0,0,3.22,5.991,16.343,16.343,0,0,0,6.312-6.119,14.611,14.611,0,0,0,2.189-7.278,7.237,7.237,0,0,0-1.61-5.087,5.446,5.446,0,0,0-4.186-1.739,6.532,6.532,0,0,0-5.152,2.189A9.255,9.255,0,0,0,70.7,208.38Z" transform="translate(-51.51 -38.853)"/>
    <path class="ba1d7b0f-38b2-455a-8a7b-ac8f933fe635" d="M157.385,208.767a19.065,19.065,0,0,1,8.244,1.546,11.8,11.8,0,0,1,5.087,4.636,20.369,20.369,0,0,1,2.512,7.792,82.344,82.344,0,0,1,.644,11.013v36.193h-12.88V232.982a29.912,29.912,0,0,0-.451-5.8,10.819,10.819,0,0,0-1.159-3.349,3.578,3.578,0,0,0-1.675-1.546,5.323,5.323,0,0,0-2-.387,16.478,16.478,0,0,0-2.447.194,7.739,7.739,0,0,0-2.319.708q.387,2.449.644,5.41t.258,6.569v12.107h-12.88v-13.91q0-6.184-1.224-8.63a4.106,4.106,0,0,0-3.929-2.448,16.536,16.536,0,0,0-1.867.129,16.977,16.977,0,0,0-2.125.387v47.527H116.941V211.729a86.114,86.114,0,0,1,9.918-2.19,56.133,56.133,0,0,1,8.63-.772,19.8,19.8,0,0,1,5.989.837,11.144,11.144,0,0,1,4.573,2.769,26.186,26.186,0,0,1,5.152-2.512A17.727,17.727,0,0,1,157.385,208.767Z" transform="translate(-51.51 -38.853)"/>
    <path class="ba1d7b0f-38b2-455a-8a7b-ac8f933fe635" d="M181.6,240.194a37.265,37.265,0,0,1,2.447-14.039,30.5,30.5,0,0,1,6.441-10.111,26.535,26.535,0,0,1,9.144-6.118,28.217,28.217,0,0,1,10.563-2.062q13.394,0,20.349,7.922t6.957,23.12q0,1.547-.064,3.221t-.193,2.7H197.958a10.787,10.787,0,0,0,4.9,9.339q4.893,3.414,12.623,3.413a38.94,38.94,0,0,0,9.08-1.03q4.313-1.031,7.277-2.061l2.19,13.525a72.545,72.545,0,0,1-8.758,2.383,51.452,51.452,0,0,1-10.434.965,44.52,44.52,0,0,1-13.845-2,28.23,28.23,0,0,1-10.434-5.925,25.941,25.941,0,0,1-6.633-9.724A36.257,36.257,0,0,1,181.6,240.194Zm40.573-6.311a17.055,17.055,0,0,0-.644-4.7,11.76,11.76,0,0,0-2.061-4.058,10.461,10.461,0,0,0-3.607-2.9,12.039,12.039,0,0,0-5.408-1.095,12.782,12.782,0,0,0-5.346,1.03A10.288,10.288,0,0,0,201.371,225a13.871,13.871,0,0,0-2.319,4.121,20.153,20.153,0,0,0-1.094,4.766Z" transform="translate(-51.51 -38.853)"/>
    <path class="a86c8c86-2458-4951-bac2-777f0e88da82" d="M267,269.947q-5.8-11.461-11.786-26.854t-11.4-33.683h16.615q1.159,4.9,2.77,10.434t3.413,11.141q1.8,5.6,3.671,10.884t3.542,9.659q1.673-4.377,3.735-9.659t4.057-10.884q2-5.6,3.864-11.141t3.027-10.434h16.1a309.373,309.373,0,0,1-11.979,33.683q-6.569,15.392-12.365,26.854Z" transform="translate(-51.51 -38.853)"/>
    <path class="a86c8c86-2458-4951-bac2-777f0e88da82" d="M367.205,239.551a39.251,39.251,0,0,1-2.061,13.072,30.42,30.42,0,0,1-5.8,10.111,25.644,25.644,0,0,1-8.951,6.57,30.47,30.47,0,0,1-23.314,0,26.268,26.268,0,0,1-9.016-6.57,29.813,29.813,0,0,1-5.861-10.111,39.2,39.2,0,0,1-2.06-13.072,37.736,37.736,0,0,1,2.125-12.945,29.953,29.953,0,0,1,5.925-10.047,25.77,25.77,0,0,1,9.081-6.44,30.428,30.428,0,0,1,22.991,0,25.952,25.952,0,0,1,9.016,6.44,29.162,29.162,0,0,1,5.861,10.047A38.857,38.857,0,0,1,367.205,239.551Zm-40.959.129q0,8.112,2.9,13.136t9.339,5.024a10.331,10.331,0,0,0,9.338-5.024q3.153-5.022,3.155-13.136t-2.9-13.074q-2.9-4.958-9.339-4.959a10.363,10.363,0,0,0-9.338,4.959Q326.242,231.565,326.246,239.68Z" transform="translate(-51.51 -38.853)"/>
    <path class="a86c8c86-2458-4951-bac2-777f0e88da82" d="M431.606,209.41q-2.448,8.5-4.7,16.681t-4.7,15.972q-2.45,7.793-5.217,15.261T411,271.879a82.537,82.537,0,0,1-4.83,8.888,25.794,25.794,0,0,1-5.281,6.118,19.722,19.722,0,0,1-6.439,3.542,26.79,26.79,0,0,1-8.309,1.159,37.95,37.95,0,0,1-7.277-.644,23.745,23.745,0,0,1-5.474-1.674L376.349,276a24.563,24.563,0,0,0,4.573,1.61,19.6,19.6,0,0,0,4.315.451,9.653,9.653,0,0,0,7.47-3.091,23.5,23.5,0,0,0,4.508-7.342q-5.668-11.334-11.334-25.953a300.652,300.652,0,0,1-10.3-32.266h16.486q1.16,4.767,2.641,10.176t3.156,10.819q1.671,5.41,3.542,10.627t3.8,9.724q1.286-4.507,2.7-9.724t2.7-10.562q1.286-5.344,2.511-10.755t2.254-10.305Z" transform="translate(-51.51 -38.853)"/>
    <path class="ba1d7b0f-38b2-455a-8a7b-ac8f933fe635" d="M450.411,279.35q2.318-.516,4.7-.9a24.661,24.661,0,0,0,4.508-1.159,12.405,12.405,0,0,0,3.8-2.189,10.12,10.12,0,0,0,2.7-3.865,10.74,10.74,0,0,1-7.6-3.864,11.588,11.588,0,0,1-2.7-7.471,11.046,11.046,0,0,1,3.284-8.243,11.387,11.387,0,0,1,8.308-3.22,10.419,10.419,0,0,1,8.437,3.607q3.024,3.606,3.026,9.789a29.9,29.9,0,0,1-1.417,9.016,25.019,25.019,0,0,1-4.572,8.372,28.454,28.454,0,0,1-8.179,6.7,33.122,33.122,0,0,1-12.236,3.735Zm28.594-58.605q0,5.668-3.477,8.63a11.955,11.955,0,0,1-7.987,2.963,12.366,12.366,0,0,1-4.378-.773,11,11,0,0,1-6.248-5.861,11.9,11.9,0,0,1-.965-4.959,11.564,11.564,0,0,1,.965-4.83,10.339,10.339,0,0,1,2.577-3.542,11.707,11.707,0,0,1,3.671-2.189,12.344,12.344,0,0,1,4.378-.774,11.97,11.97,0,0,1,7.987,2.963Q479.005,215.339,479.005,220.745Z" transform="translate(-51.51 -38.853)"/>
  </g>
  <g>
    <path class="ba7fbd45-7214-495e-9c07-055a1144b76a" d="M640.573,189.5c.219-.863.434-1.724.675-2.594-13.173-7.9-20.231-14.1-20.614-13.633C620.364,173.521,627.125,180.7,640.573,189.5Z" transform="translate(-51.51 -38.853)"/>
    <path class="ba7fbd45-7214-495e-9c07-055a1144b76a" d="M788.4,215.212a181.3,181.3,0,0,1-32.847,2.882,227.324,227.324,0,0,1-40.22-3.773q-2.714-.49-5.382-1.039c.589,1.473,1.2,2.918,1.808,4.359.956.183,1.9.377,2.866.553a212.412,212.412,0,0,0,40.959,3.528,165.458,165.458,0,0,0,33.386-3.788,84.392,84.392,0,0,0,18.376-6.224c-.316-.5-.648-1.017-1-1.529A97.448,97.448,0,0,1,788.4,215.212Z" transform="translate(-51.51 -38.853)"/>
    <path class="ec68431c-8ce4-432d-af9f-1a5fbf12ac03" d="M818.932,198.567c.065-.092.1-.16.076-.181s-.032,0-.04,0C818.957,198.445,818.946,198.5,818.932,198.567Z" transform="translate(-51.51 -38.853)"/>
    <path class="ba7fbd45-7214-495e-9c07-055a1144b76a" d="M790.375,207.482A189.768,189.768,0,0,1,757.67,209.5a241.4,241.4,0,0,1-39.911-4.371c-4-.762-7.918-1.626-11.755-2.555.5,1.477,1.023,2.943,1.551,4.4,3.1.728,6.25,1.414,9.46,2.024a224,224,0,0,0,40.607,4.136,172.408,172.408,0,0,0,33.237-2.9,97.222,97.222,0,0,0,12.981-3.419c-.491-.608-1.013-1.215-1.544-1.821A111.106,111.106,0,0,1,790.375,207.482Z" transform="translate(-51.51 -38.853)"/>
    <path class="ba7fbd45-7214-495e-9c07-055a1144b76a" d="M623.911,165.729c1.925,2.093,8.446,7.907,19.279,14.794.273-.829.535-1.656.825-2.484-10.521-6.095-17.2-11.115-19.658-12.665C624.207,165.5,624.058,165.611,623.911,165.729Z" transform="translate(-51.51 -38.853)"/>
    <path class="ba7fbd45-7214-495e-9c07-055a1144b76a" d="M792.539,201.037a195.741,195.741,0,0,1-32.6,1.449,251.772,251.772,0,0,1-39.712-4.744c-5.843-1.155-11.506-2.5-16.98-3.974q.642,2.2,1.322,4.382c4.818,1.283,9.786,2.448,14.887,3.454a232.754,232.754,0,0,0,40.38,4.511,176.728,176.728,0,0,0,33.136-2.328c2.445-.424,4.75-.907,6.916-1.43q-1.045-1.077-2.166-2.138C796.061,200.514,794.349,200.792,792.539,201.037Z" transform="translate(-51.51 -38.853)"/>
    <path class="ba7fbd45-7214-495e-9c07-055a1144b76a" d="M646.725,170.891c-7.081-4.006-12.434-7.526-15.944-9.868-.41.23-.825.466-1.182.681a138.865,138.865,0,0,0,16.165,11.581C646.072,172.489,646.4,171.691,646.725,170.891Z" transform="translate(-51.51 -38.853)"/>
    <path class="ba7fbd45-7214-495e-9c07-055a1144b76a" d="M649.3,164.9c-4.8-2.522-8.819-4.922-12.054-6.976-.672.277-1.326.549-1.939.825a127.062,127.062,0,0,0,12.917,8.537C648.569,166.493,648.937,165.7,649.3,164.9Z" transform="translate(-51.51 -38.853)"/>
    <path class="ba7fbd45-7214-495e-9c07-055a1144b76a" d="M761.306,194.648a319.748,319.748,0,0,1-39.466-5.328c-7.3-1.43-14.352-3.089-21.1-4.9.2.812.381,1.632.588,2.434.159.621.337,1.231.5,1.853,6.179,1.662,12.608,3.171,19.245,4.47a286.669,286.669,0,0,0,40.009,5.087,218.89,218.89,0,0,0,32.961-.648c.241-.024.47-.054.711-.08-.983-.854-2.016-1.715-3.089-2.575A255.805,255.805,0,0,1,761.306,194.648Z" transform="translate(-51.51 -38.853)"/>
    <path class="ba7fbd45-7214-495e-9c07-055a1144b76a" d="M763.605,186.155a351.568,351.568,0,0,1-39.207-5.777c-9.036-1.834-17.7-3.972-25.859-6.3q.395,2.127.825,4.206c7.684,2.219,15.8,4.235,24.245,5.945a310.861,310.861,0,0,0,39.708,5.539c7.979.557,15.451.721,22.265.588-1.511-1.075-3.1-2.147-4.727-3.217C775.442,186.994,769.664,186.674,763.605,186.155Z" transform="translate(-51.51 -38.853)"/>
    <path class="ba7fbd45-7214-495e-9c07-055a1144b76a" d="M650.824,155.881c-.9-.457-1.775-.91-2.621-1.358-1.137.253-2.242.522-3.292.807q2.678,1.659,5.821,3.414C650.752,157.8,650.79,156.838,650.824,155.881Z" transform="translate(-51.51 -38.853)"/>
    <path class="ba7fbd45-7214-495e-9c07-055a1144b76a" d="M765.222,177.876c-12.54-1.37-26.4-3.422-40.844-6.485-7.806-1.625-15.334-3.439-22.509-5.367-.756,1.116-1.506,2.233-2.239,3.355,7.594,2.145,15.611,4.131,23.94,5.867a357.767,357.767,0,0,0,49.116,6.822c-2.217-1.3-4.488-2.6-6.848-3.872C765.633,178.087,765.43,177.986,765.222,177.876Z" transform="translate(-51.51 -38.853)"/>
    <path class="ba7fbd45-7214-495e-9c07-055a1144b76a" d="M724.848,162.984q-9.1-2.1-17.688-4.322c-.841,1.115-1.669,2.231-2.474,3.346,6.195,1.672,12.642,3.286,19.276,4.812,11.2,2.583,22.021,4.719,32.134,6.418q-7.755-3.769-15.168-6.752C735.677,165.4,730.324,164.246,724.848,162.984Z" transform="translate(-51.51 -38.853)"/>
    <path class="ea22071d-724c-4111-b6bf-e989007d8dec" d="M776.13,104.243c4.246,3.308,8.181,6.775,11.839,10.159a209.4,209.4,0,0,1,18.291,19.15,96.1,96.1,0,0,1,10.247,14.53c2.041,3.666,2.751,5.907,3.039,5.832.238-.044.021-2.493-1.659-6.5a75.032,75.032,0,0,0-9.444-15.588,176.3,176.3,0,0,0-17.982-20.058c-3.441-3.314-7.149-6.678-11.209-9.951-.2.022-.387.031-.587.058a33.741,33.741,0,0,0-4.478.928C774.841,103.279,775.5,103.741,776.13,104.243Z" transform="translate(-51.51 -38.853)"/>
    <path class="ea22071d-724c-4111-b6bf-e989007d8dec" d="M728.566,86.776c2.627-1.058,5.128-1.943,7.459-2.658-1.47-.227-2.931-.434-4.366-.61a142.133,142.133,0,0,0-26.176-.609c-.569.708-1.127,1.446-1.664,2.253-.131.194-.257.425-.385.628.462-.016.911-.034,1.384-.049A165.46,165.46,0,0,1,728.566,86.776Z" transform="translate(-51.51 -38.853)"/>
    <path class="ea22071d-724c-4111-b6bf-e989007d8dec" d="M790.023,120.1a100.306,100.306,0,0,0-13.5-10.571q-3.783-2.51-7.874-4.84c-1.464.593-2.964,1.283-4.471,2.029,3.558,1.9,6.979,3.922,10.229,6.033a103.143,103.143,0,0,1,13.2,10.043,191.3,191.3,0,0,1,19.718,20.3,107.74,107.74,0,0,1,11.034,15.524c2.221,3.913,3.016,6.3,3.305,6.216.239-.051-.072-2.649-1.935-6.9A84.376,84.376,0,0,0,809.5,141.361,166.615,166.615,0,0,0,790.023,120.1Z" transform="translate(-51.51 -38.853)"/>
    <path class="ea22071d-724c-4111-b6bf-e989007d8dec" d="M723.089,89.146a150.862,150.862,0,0,0-20.742-1.53c-.493.9-.964,1.878-1.42,2.9,5.055.2,10.637.6,16.586,1.394C719.38,90.928,721.24,90,723.089,89.146Z" transform="translate(-51.51 -38.853)"/>
    <path class="ea22071d-724c-4111-b6bf-e989007d8dec" d="M665.659,97.591c.2-.336.4-.69.593-1.006-1.92.4-2.924.737-2.895.871C663.379,97.63,664.188,97.643,665.659,97.591Z" transform="translate(-51.51 -38.853)"/>
    <path class="ea22071d-724c-4111-b6bf-e989007d8dec" d="M698.207,98.02c2.424.221,4.949.5,7.557.839q2.221-1.46,4.454-2.812c-3.86-.486-7.558-.825-11.063-1.042Q698.656,96.466,698.207,98.02Z" transform="translate(-51.51 -38.853)"/>
    <path class="ea22071d-724c-4111-b6bf-e989007d8dec" d="M808.435,149.013a186.245,186.245,0,0,0-20.663-21.833,78.993,78.993,0,0,0-6.906-5.5c-2.478-1.682-5.026-3.329-7.705-4.894a145.747,145.747,0,0,0-14.129-7.266c-.482.283-.963.559-1.441.856-.852.525-1.719,1.092-2.594,1.664a152.184,152.184,0,0,1,16.223,8.078c2.609,1.495,5.116,3.079,7.524,4.666a78.81,78.81,0,0,1,6.655,5.139,215.875,215.875,0,0,1,20.909,20.884,163.1,163.1,0,0,1,12.354,15.665c2.658,3.886,3.743,6.259,4.009,6.162.246-.079-.388-2.729-2.7-6.959A115.6,115.6,0,0,0,808.435,149.013Z" transform="translate(-51.51 -38.853)"/>
    <path class="ea22071d-724c-4111-b6bf-e989007d8dec" d="M662.594,103.285c.238-.485.471-.954.706-1.412-4.161.442-6.446,1-6.4,1.212C656.919,103.345,658.937,103.3,662.594,103.285Z" transform="translate(-51.51 -38.853)"/>
    <path class="ea22071d-724c-4111-b6bf-e989007d8dec" d="M696.476,105.437c1.165-.891,2.335-1.77,3.511-2.621-.985-.124-1.949-.233-2.91-.343C696.862,103.445,696.659,104.434,696.476,105.437Z" transform="translate(-51.51 -38.853)"/>
    <path class="ea22071d-724c-4111-b6bf-e989007d8dec" d="M821.988,177.94l-.007,0a38.74,38.74,0,0,0-2.013-4.915,86.213,86.213,0,0,0-11.753-17.316,149.966,149.966,0,0,0-22.442-21.422c-9.395-7.182-20.891-13.178-33.414-18.166-.7-.275-1.4-.529-2.1-.794q-1.834,1.337-3.706,2.8c1.445.536,2.9,1.084,4.35,1.655,12.257,4.873,23.563,10.666,32.681,17.4a164.907,164.907,0,0,1,22.536,20.363,106.694,106.694,0,0,1,12.5,16.212c.048.079.087.145.133.224-.129-.122-.288-.26-.443-.4.257.416.512.832.771,1.246.092.143.194.279.286.421.065.036.15.085.2.114.5.876.936,1.659,1.3,2.321-.023,0-.054,0-.085,0,.042.069.076.14.118.209l.057-.032c.057.1.106.194.158.294-.017.005-.042.009-.064.015.13.241.27.478.4.723l.052-.023c.514.957.811,1.482.943,1.434.079-.024.058-.392-.093-1.042C822.223,178.824,822.112,178.381,821.988,177.94Z" transform="translate(-51.51 -38.853)"/>
    <path class="ea22071d-724c-4111-b6bf-e989007d8dec" d="M660.771,107.269c.288-.666.574-1.328.863-1.958-7.938.419-12.463,1.651-12.36,1.989C649.324,107.655,653.505,107.162,660.771,107.269Z" transform="translate(-51.51 -38.853)"/>
    <path class="ea22071d-724c-4111-b6bf-e989007d8dec" d="M653.7,115.574c1.418-.547,2.894-1.07,4.453-1.566.053-.153.108-.285.161-.436a81.3,81.3,0,0,0-9.256.4,34.006,34.006,0,0,0-5.7,1.027c-.165.241-.323.485-.486.728,1.146-.039,3.272-.207,6.277-.222C650.482,115.493,652.019,115.516,653.7,115.574Z" transform="translate(-51.51 -38.853)"/>
    <path class="ba7fbd45-7214-495e-9c07-055a1144b76a" d="M638.5,199.319c.149-.9.294-1.787.467-2.688-11.959-7.706-18.433-13.418-18.81-12.961C619.912,183.907,626.149,190.621,638.5,199.319Z" transform="translate(-51.51 -38.853)"/>
    <path class="ba7fbd45-7214-495e-9c07-055a1144b76a" d="M754.436,227.846a207.665,207.665,0,0,1-39.031-2.216q1.052,2.181,2.144,4.287a195.033,195.033,0,0,0,37.073,1.548,170.29,170.29,0,0,0,33.181-5.117c9.269-2.449,16.468-5.614,21.048-8.452.438-.266.83-.525,1.222-.785-.165-.423-.356-.853-.545-1.288-.45.239-.913.481-1.42.733a93.945,93.945,0,0,1-20.974,7.09A187.579,187.579,0,0,1,754.436,227.846Z" transform="translate(-51.51 -38.853)"/>
    <path class="ba7fbd45-7214-495e-9c07-055a1144b76a" d="M805.775,224.361a94.359,94.359,0,0,1-20.662,7.507,181.654,181.654,0,0,1-32.348,4.877,200.433,200.433,0,0,1-31.94-.787q1.228,2.142,2.49,4.188a187.827,187.827,0,0,0,29.7.216,165.409,165.409,0,0,0,32.827-5.8,80.6,80.6,0,0,0,20.7-8.872,35.921,35.921,0,0,0,4.89-3.687c-.045-.282-.088-.56-.145-.846C810.123,221.888,808.319,223.035,805.775,224.361Z" transform="translate(-51.51 -38.853)"/>
    <path class="ba7fbd45-7214-495e-9c07-055a1144b76a" d="M626.1,198.048a141.364,141.364,0,0,0,11.341,9.681c.075-.931.172-1.875.277-2.821-4.351-3.083-7.9-5.858-10.609-8.014-4.1-3.272-6.342-5.144-6.542-4.935C620.4,192.143,622.28,194.39,626.1,198.048Z" transform="translate(-51.51 -38.853)"/>
    <path class="ba7fbd45-7214-495e-9c07-055a1144b76a" d="M637.149,214.7c0-.94.014-1.887.047-2.843-10.191-6.786-15.957-11.251-16.269-10.85C620.686,201.288,626.418,206.813,637.149,214.7Z" transform="translate(-51.51 -38.853)"/>
    <path class="ba7fbd45-7214-495e-9c07-055a1144b76a" d="M782.694,240.259a201.357,201.357,0,0,1-31.731,5.676,137.408,137.408,0,0,1-23.463.528c.977,1.386,1.961,2.729,2.959,4.014a133.077,133.077,0,0,0,20.894-.935,180.911,180.911,0,0,0,32.121-6.607c8.939-2.78,15.865-6.089,20.243-9.017,4.408-2.918,6.258-5.253,6.089-5.411-.208-.229-2.37,1.667-6.872,4.1A96.033,96.033,0,0,1,782.694,240.259Z" transform="translate(-51.51 -38.853)"/>
    <path class="ba7fbd45-7214-495e-9c07-055a1144b76a" d="M674.329,245.377c-.569-.3-1.109-.607-1.668-.911.024,1.508.1,2.909.208,4.238,1.918,1.047,3.931,2.037,5.985,2.99-1.375-1.962-2.723-3.977-4.026-6.071C674.665,245.539,674.491,245.461,674.329,245.377Z" transform="translate(-51.51 -38.853)"/>
    <path class="ba7fbd45-7214-495e-9c07-055a1144b76a" d="M637.415,222.153c-.085-1.032-.154-2.09-.2-3.179-2.762-2.337-5.14-4.384-7.1-6.043-4.02-3.394-6.313-5.209-6.5-5.011s1.752,2.387,5.457,6.142C631.249,216.255,634.043,219.013,637.415,222.153Z" transform="translate(-51.51 -38.853)"/>
    <path class="ba7fbd45-7214-495e-9c07-055a1144b76a" d="M783.71,247.064a183.255,183.255,0,0,1-31.8,7.695c-5.128.792-10.519,1.57-16.045,2.086.252.271.507.565.76.833.889.938,1.768,1.812,2.639,2.646,4.573-.555,8.988-1.262,13.251-1.987a166.6,166.6,0,0,0,32.172-8.667,72.762,72.762,0,0,0,19.637-11.042,40.9,40.9,0,0,0,3.581-3.344c.33-.686.654-1.372.973-2.066-1.024.829-2.813,2.344-5.477,4.188A83.747,83.747,0,0,1,783.71,247.064Z" transform="translate(-51.51 -38.853)"/>
    <path class="ba7fbd45-7214-495e-9c07-055a1144b76a" d="M748.172,264.333c-1.159.243-2.346.455-3.533.663,1.436,1.121,2.791,2.088,4.068,2.935.057-.015.121-.025.178-.038a142.54,142.54,0,0,0,30.762-9.769,74.175,74.175,0,0,0,18.408-11.672c3.855-3.455,5.465-5.844,5.294-5.991-.406-.5-8.048,8.273-24.824,15.12A154.293,154.293,0,0,1,748.172,264.333Z" transform="translate(-51.51 -38.853)"/>
    <path class="ba7fbd45-7214-495e-9c07-055a1144b76a" d="M638.827,231.8c-.281-1.289-.539-2.644-.767-4.084-2.483-2.494-4.546-4.743-6.212-6.6-3.381-3.779-5.169-5.964-5.407-5.791-.2.145,1.166,2.636,4.218,6.758A110.253,110.253,0,0,0,638.827,231.8Z" transform="translate(-51.51 -38.853)"/>
    <path class="ba7fbd45-7214-495e-9c07-055a1144b76a" d="M688.918,264.2q-2.661-2.856-5.214-6.031c-3.578-1.423-7.021-2.961-10.27-4.607.291,1.8.623,3.3.939,4.537A121.71,121.71,0,0,0,688.918,264.2Z" transform="translate(-51.51 -38.853)"/>
    <path class="ba7fbd45-7214-495e-9c07-055a1144b76a" d="M752.445,270.223c1.165.651,2.206,1.18,3.037,1.566.573.264,1.128.493,1.688.727a115.029,115.029,0,0,0,16.612-6.1,67.158,67.158,0,0,0,17.189-11.008c3.582-3.262,5.017-5.569,4.85-5.7-.4-.472-7.455,7.811-23.157,14.16A130.625,130.625,0,0,1,752.445,270.223Z" transform="translate(-51.51 -38.853)"/>
    <path class="ba7fbd45-7214-495e-9c07-055a1144b76a" d="M694.935,270.08a106.712,106.712,0,0,1-19.294-7.814c.386,1.1.792,2.16,1.221,3.147.3.7.544,1.194.69,1.5l.257.576a102.773,102.773,0,0,0,24.31,8.414c-1.923-1.39-3.886-2.906-5.9-4.661C695.791,270.873,695.365,270.465,694.935,270.08Z" transform="translate(-51.51 -38.853)"/>
    <path class="ba7fbd45-7214-495e-9c07-055a1144b76a" d="M636.134,230.76c-3.216-3.5-4.972-5.467-5.2-5.292-.206.155,1.14,2.444,4.024,6.273,1.493,1.972,3.407,4.364,5.76,7.028-.45-1.345-.9-2.869-1.325-4.536C638.18,232.963,637.084,231.787,636.134,230.76Z" transform="translate(-51.51 -38.853)"/>
    <path class="f7242ce0-c426-48a3-aa68-6f208eedb0fe" d="M653.222,133.16c.161-.893.33-1.778.506-2.661a71.061,71.061,0,0,0-22.291,10.806c-1.142.86-2.105,1.646-2.937,2.361-.09.259-.183.513-.271.774,1-.741,2.19-1.577,3.646-2.5A73.288,73.288,0,0,1,653.222,133.16Z" transform="translate(-51.51 -38.853)"/>
    <path class="f7242ce0-c426-48a3-aa68-6f208eedb0fe" d="M804.228,176.913a135.635,135.635,0,0,0-28-24.181,162.323,162.323,0,0,0-40.89-19.659c-1.462-.448-2.921-.852-4.379-1.254-.209.2-.42.4-.628.6-1.148,1.137-2.261,2.268-3.364,3.4,2.3.607,4.6,1.248,6.915,1.955A179.794,179.794,0,0,1,774,156.226a146.42,146.42,0,0,1,28.408,22.338c7.19,7.409,11.752,14.547,14.123,19.827.666,1.478,1.171,2.778,1.569,3.912.066-.278.149-.551.217-.829-.278-1.01-.622-2.126-1.071-3.374C815.272,192.562,811.139,184.924,804.228,176.913Z" transform="translate(-51.51 -38.853)"/>
    <path class="f7242ce0-c426-48a3-aa68-6f208eedb0fe" d="M803.646,183.9a151.77,151.77,0,0,0-28.493-23.966c-11.683-7.7-25.671-15.029-41.384-19.349-3.019-.893-6.025-1.705-9.019-2.468q-1.944,2.028-3.795,4.046,5.661,1.433,11.42,3.139c15.283,4.2,28.811,10.956,40.545,18.128A165.764,165.764,0,0,1,801.869,185.6c7.427,7.271,12.347,14.285,14.351,19.747.244.643.442,1.253.607,1.836.119-.416.213-.83.328-1.247-.073-.281-.12-.539-.206-.831C815.335,199.334,810.792,191.761,803.646,183.9Z" transform="translate(-51.51 -38.853)"/>
    <path class="f7242ce0-c426-48a3-aa68-6f208eedb0fe" d="M652.4,138.2q.193-1.335.408-2.657c-.324.093-.667.172-.985.266a66.664,66.664,0,0,0-22.394,11.24c-.806.632-1.519,1.222-2.171,1.778a.865.865,0,0,1-.063.285c-.1.217-.194.433-.291.651.856-.634,1.835-1.334,2.974-2.094A68.916,68.916,0,0,1,652.4,138.2Z" transform="translate(-51.51 -38.853)"/>
    <path class="f7242ce0-c426-48a3-aa68-6f208eedb0fe" d="M805.4,170.561a128.583,128.583,0,0,0-27.147-24.443,159.1,159.1,0,0,0-40.271-19.609c-.344-.11-.684-.2-1.027-.311q-2.074,1.872-4.167,3.867c1.225.369,2.453.729,3.681,1.127a175.381,175.381,0,0,1,39.511,18.392,138.194,138.194,0,0,1,27.566,22.592A104.555,104.555,0,0,1,817.932,191.6c.69,1.218,1.277,2.308,1.78,3.27.051-.266.114-.524.162-.791-.367-.865-.774-1.795-1.259-2.838A97.855,97.855,0,0,0,805.4,170.561Z" transform="translate(-51.51 -38.853)"/>
    <path class="f7242ce0-c426-48a3-aa68-6f208eedb0fe" d="M654.472,126.962c.194-.856.406-1.694.616-2.538a85.449,85.449,0,0,0-19.8,9.444c-1.7,1.118-3.051,2.092-4.134,2.908-.082.191-.165.38-.245.57,1.205-.768,2.778-1.722,4.776-2.817A89.314,89.314,0,0,1,654.472,126.962Z" transform="translate(-51.51 -38.853)"/>
    <path class="f7242ce0-c426-48a3-aa68-6f208eedb0fe" d="M804.655,165.883a80.833,80.833,0,0,1,13.8,19.652c.348.732.652,1.407.931,2.053.023,0,.041.02.064.026l.267-.841c-.173-.5-.343-.991-.557-1.544a77.258,77.258,0,0,0-12.643-20.963,136.978,136.978,0,0,0-26.907-24.54,152.674,152.674,0,0,0-36.22-19.053q-2.164,1.774-4.351,3.695a164.513,164.513,0,0,1,38.237,18.789A147.677,147.677,0,0,1,804.655,165.883Z" transform="translate(-51.51 -38.853)"/>
    <path class="f7242ce0-c426-48a3-aa68-6f208eedb0fe" d="M656.331,119.78c.253-.877.515-1.748.786-2.607a68.464,68.464,0,0,0-19.4,10.24c-1.452,1.134-2.622,2.139-3.578,3-.13.257-.255.516-.385.776,1.109-.868,2.553-1.934,4.4-3.152A70.324,70.324,0,0,1,656.331,119.78Z" transform="translate(-51.51 -38.853)"/>
    <path class="f7242ce0-c426-48a3-aa68-6f208eedb0fe" d="M815.265,212.348c-.285-1.056-.648-2.256-1.13-3.591-1.993-5.554-6.379-13.143-13.715-20.841-14.54-15.491-40.12-31.328-70.987-40.909-3.436-1.065-6.863-2.01-10.273-2.872q-1.848,2.057-3.605,4.1c4.108,1.029,8.252,2.175,12.419,3.467,30.173,9.37,55.672,23.722,70.713,37.952,7.561,7.066,12.355,14.1,14.738,19.393a43.345,43.345,0,0,1,1.606,4.046.125.125,0,0,0,.008-.027c.2-.251.293-.413.257-.449-.015-.021-.069-.007-.115,0C815.206,212.531,815.236,212.439,815.265,212.348Z" transform="translate(-51.51 -38.853)"/>
    <path class="f7242ce0-c426-48a3-aa68-6f208eedb0fe" d="M648.474,145.347c1.012-.265,2.066-.5,3.126-.725.1-.945.19-1.894.306-2.832-1.413.37-2.789.768-4.116,1.2a54.606,54.606,0,0,0-21.648,12.4c-1.035,1.019-1.908,1.963-2.642,2.809-.1.306-.177.615-.267.922.909-.921,2.023-1.98,3.42-3.153A55.512,55.512,0,0,1,648.474,145.347Z" transform="translate(-51.51 -38.853)"/>
    <path class="f7242ce0-c426-48a3-aa68-6f208eedb0fe" d="M648.86,151.622c.7-.153,1.445-.279,2.171-.416.059-.914.138-1.817.212-2.728-1,.241-2,.48-2.96.752a62.736,62.736,0,0,0-22.1,10.562c-1.59,1.239-2.847,2.347-3.828,3.281-.008.156-.025.313-.032.472,1.088-.881,2.507-1.95,4.305-3.132A64.716,64.716,0,0,1,648.86,151.622Z" transform="translate(-51.51 -38.853)"/>
    <path class="f7242ce0-c426-48a3-aa68-6f208eedb0fe" d="M798.387,193.883c-7.416-7.306-17.41-14.737-29.247-21.651a202.192,202.192,0,0,0-40.679-18.261c-4.857-1.512-9.7-2.782-14.485-3.865q-1.74,2.073-3.393,4.143c5.408,1.229,10.9,2.7,16.411,4.414A233.769,233.769,0,0,1,767.1,175.85c11.843,6.38,21.967,13.148,29.6,19.84,7.687,6.638,12.681,13.34,15.038,18.515a32.348,32.348,0,0,1,1.534,4.007c.089-.238.177-.478.26-.718a33.005,33.005,0,0,0-1.086-3.582C810.486,208.443,805.845,201.153,798.387,193.883Z" transform="translate(-51.51 -38.853)"/>
    <path class="a86c8c86-2458-4951-bac2-777f0e88da82" d="M709.086,114.954a174.4,174.4,0,0,0-14.637,13.5c-.027,2.242,0,4.553.055,6.893a191.406,191.406,0,0,1,17.256-17.218A146.1,146.1,0,0,1,741.507,97.6a75.623,75.623,0,0,1,21.019-7.315c-.529-.26-1.062-.5-1.592-.753a74.3,74.3,0,0,0-20.467,5.842A135.738,135.738,0,0,0,709.086,114.954Z" transform="translate(-51.51 -38.853)"/>
    <path class="a86c8c86-2458-4951-bac2-777f0e88da82" d="M654.05,225.388a111.608,111.608,0,0,1,3.076-19.093c-.711-2.327-1.388-4.669-2.007-7.037a112.321,112.321,0,0,0-3.529,26.034,71.08,71.08,0,0,0,3.732,24.594,53.112,53.112,0,0,0,2.886,6.683c.006,0,.008.007.013.008.079.057.16.118.24.175a55.678,55.678,0,0,1-2.4-7.095A73.741,73.741,0,0,1,654.05,225.388Z" transform="translate(-51.51 -38.853)"/>
    <path class="a86c8c86-2458-4951-bac2-777f0e88da82" d="M715.645,118.12A158.941,158.941,0,0,0,694.6,138.8c.055,1.419.118,2.843.2,4.29.064,1,.144,1.976.215,2.967a168.608,168.608,0,0,1,23.307-24.776A165.424,165.424,0,0,1,748.073,100.2c7.326-3.968,13.987-6.4,19.34-7.373-.559-.288-1.115-.581-1.674-.877A69.486,69.486,0,0,0,746.971,98,151.618,151.618,0,0,0,715.645,118.12Z" transform="translate(-51.51 -38.853)"/>
    <path class="a86c8c86-2458-4951-bac2-777f0e88da82" d="M658.562,228.886a90.356,90.356,0,0,1,1.873-12.805q-1.089-2.931-2.084-5.917a92.85,92.85,0,0,0-2.245,18.621,66.844,66.844,0,0,0,4.107,24.717,59.8,59.8,0,0,0,3.067,6.809c.082.059.164.124.245.185a63.543,63.543,0,0,1-2.582-7.237A68.845,68.845,0,0,1,658.562,228.886Z" transform="translate(-51.51 -38.853)"/>
    <path class="a86c8c86-2458-4951-bac2-777f0e88da82" d="M703.362,111.064c-2.85,2.269-5.689,4.72-8.5,7.321q-.231,3.234-.335,6.671c3.77-3.893,7.616-7.5,11.475-10.794a138.15,138.15,0,0,1,29.739-19.647,106.186,106.186,0,0,1,20.015-7.326c-.576-.232-1.157-.462-1.735-.687a99.659,99.659,0,0,0-19.279,5.765A128.9,128.9,0,0,0,703.362,111.064Z" transform="translate(-51.51 -38.853)"/>
    <path class="a86c8c86-2458-4951-bac2-777f0e88da82" d="M648.616,219.743A119.561,119.561,0,0,1,653.651,193c-.585-2.834-1.061-5.72-1.473-8.634a117.052,117.052,0,0,0-6.022,35.294,86.069,86.069,0,0,0,3.2,24.345,71.121,71.121,0,0,0,2.7,7.771c.034.029.068.058.1.089a79,79,0,0,1-2.051-8.038A90.884,90.884,0,0,1,648.616,219.743Z" transform="translate(-51.51 -38.853)"/>
    <path class="a86c8c86-2458-4951-bac2-777f0e88da82" d="M697.66,107.886c-.606.471-1.216.972-1.822,1.455-.293,2-.547,4.073-.747,6.243,1.722-1.53,3.443-3.027,5.157-4.453A147.975,147.975,0,0,1,730.054,91.7a84.952,84.952,0,0,1,19.578-6.77l-2.018-.759a82.867,82.867,0,0,0-18.551,5.283A136.735,136.735,0,0,0,697.66,107.886Z" transform="translate(-51.51 -38.853)"/>
    <path class="a86c8c86-2458-4951-bac2-777f0e88da82" d="M642.266,215.694c.54-10.968,3.658-23.987,9.163-37.651q-.466-4.839-.635-9.868c-7.467,17.206-11.135,33.934-10.986,47.451a69.241,69.241,0,0,0,4.1,24.147,58.334,58.334,0,0,0,2.884,6.5c.136.171.263.35.4.52a61.64,61.64,0,0,1-2.555-7.254A71.673,71.673,0,0,1,642.266,215.694Z" transform="translate(-51.51 -38.853)"/>
    <path class="a86c8c86-2458-4951-bac2-777f0e88da82" d="M695.349,150.257c.214,2.477.461,4.9.733,7.289,17.393-24.487,37.625-43.38,54.922-53.112,8.893-5.079,16.951-7.566,22.7-8.311-.422-.232-.844-.458-1.267-.686a64.389,64.389,0,0,0-22.585,6.824C732.647,110.646,712.537,127.518,695.349,150.257Z" transform="translate(-51.51 -38.853)"/>
    <path class="a86c8c86-2458-4951-bac2-777f0e88da82" d="M664.224,234.808c.111-2.467.368-5.042.749-7.695q-1.188-2.623-2.3-5.317a82.972,82.972,0,0,0-.909,12.966,54.648,54.648,0,0,0,5.441,24.346,41.589,41.589,0,0,0,4.6,7.188c.039.019.075.047.113.069a43.062,43.062,0,0,1-4.014-7.57A55.464,55.464,0,0,1,664.224,234.808Z" transform="translate(-51.51 -38.853)"/>
    <path class="a86c8c86-2458-4951-bac2-777f0e88da82" d="M670.225,237.7q-1.13-2.082-2.213-4.227c-.054.893-.117,1.794-.14,2.666a62.822,62.822,0,0,0,3.549,24.233,45.643,45.643,0,0,0,3.586,7.548c.027.013.052.021.078.032a48.568,48.568,0,0,1-2.934-7.818A64.077,64.077,0,0,1,670.225,237.7Z" transform="translate(-51.51 -38.853)"/>
    <path class="a86c8c86-2458-4951-bac2-777f0e88da82" d="M725.61,127.5a202.968,202.968,0,0,0-29.186,33.041c.31,2.474.664,4.888,1.037,7.273.892-1.358,1.79-2.718,2.72-4.072a233.927,233.927,0,0,1,28.284-33.23c9.6-9.417,19.065-17.087,27.711-22.4,8.618-5.378,16.5-8.165,22.14-8.883.1-.012.19-.018.29-.029-.326-.233-.651-.46-.984-.681-5.78.386-13.832,2.653-22.669,7.46C745.772,110.891,735.718,118.239,725.61,127.5Z" transform="translate(-51.51 -38.853)"/>
    <path class="a6691191-01ca-48a7-8f12-756231ca309a" d="M676.687,192.741a184.167,184.167,0,0,1-5.493-44.959,149.769,149.769,0,0,1,4.212-36.83c2.6-10.268,6.377-18.09,9.714-23a48,48,0,0,1,2.9-3.864c-.268.081-.534.176-.8.263-.825.867-1.741,1.9-2.732,3.137-3.776,4.7-8.232,12.421-11.506,22.765a139.205,139.205,0,0,0-6.047,37.455,166.762,166.762,0,0,0,4.862,46.3c8.409,32.146,25.389,58.245,41.68,72.613a76.085,76.085,0,0,0,18.286,12.307.136.136,0,0,1,.045,0c.649-.026,1.29-.082,1.933-.121a77.74,77.74,0,0,1-18.528-14.019C700.208,249.882,684.839,223.916,676.687,192.741Z" transform="translate(-51.51 -38.853)"/>
    <path class="a6691191-01ca-48a7-8f12-756231ca309a" d="M699.871,233.028c-6.264-12.612-11.5-27.279-15.781-43.017-4.568-15.606-5.957-31.059-6.015-45.167a169.569,169.569,0,0,1,3.777-37.2c2.344-10.4,5.825-18.466,9.517-23.15.439-.573.875-1.085,1.306-1.553-.365.071-.729.139-1.1.22-.273.275-.538.519-.815.826C686.6,88.49,682.42,96.529,679.406,107a155.378,155.378,0,0,0-5.593,37.777c-.436,14.349.7,30.506,5.4,46.559,4.347,16,10.006,30.911,16.867,43.647,6.819,12.743,14.943,23.217,23.146,30.5a69.673,69.673,0,0,0,20.077,12.81c.552-.071,1.1-.165,1.651-.244a70.825,70.825,0,0,1-19.99-14.392C713.441,256.134,706.1,245.648,699.871,233.028Z" transform="translate(-51.51 -38.853)"/>
    <path class="a6691191-01ca-48a7-8f12-756231ca309a" d="M685.5,235.765a173.785,173.785,0,0,1-15.957-41.742,179.809,179.809,0,0,1-5.224-44.409,141.465,141.465,0,0,1,4.885-36.229,106.994,106.994,0,0,1,9.224-23c.652-1.187,1.246-2.209,1.79-3.122-.317.161-.637.318-.95.488-.477.68-.976,1.405-1.519,2.226a100.084,100.084,0,0,0-10.956,22.66,131.954,131.954,0,0,0-6.737,36.858,162.917,162.917,0,0,0,4.579,45.721A157.986,157.986,0,0,0,681.8,237.859a120.713,120.713,0,0,0,23.645,29.149,90.579,90.579,0,0,0,16.741,11.8c.721-.007,1.445,0,2.169.014a94.749,94.749,0,0,1-17.18-13.654A127.778,127.778,0,0,1,685.5,235.765Z" transform="translate(-51.51 -38.853)"/>
    <path class="a6691191-01ca-48a7-8f12-756231ca309a" d="M662.372,196.233c-3.8-15.28-4.7-30.555-4.367-44.289a151.4,151.4,0,0,1,5.1-36.137,82.836,82.836,0,0,1,9.747-22.619c.565-.872,1.087-1.631,1.587-2.337q-1.092.822-2.095,1.71c-.049.061-.091.111-.139.174a79.189,79.189,0,0,0-11.51,22.32,140.008,140.008,0,0,0-6.948,36.7c-.805,14.055-.234,29.722,3.732,45.712,8.065,31.624,24.217,57.765,40.557,71.72a74.071,74.071,0,0,0,16.16,10.829c.521-.187,1.04-.368,1.578-.506a75.946,75.946,0,0,1-16.025-12.177C684.735,252.871,670.221,226.967,662.372,196.233Z" transform="translate(-51.51 -38.853)"/>
    <path class="a6691191-01ca-48a7-8f12-756231ca309a" d="M707.9,233.131a208.933,208.933,0,0,1-15.834-42.715c-8.081-31.4-9.287-61.39-4.95-82.18,2.1-10.4,5.67-18.373,9.007-23.3.736-1.1,1.438-2.043,2.089-2.864-.256.032-.513.066-.769.1-.618.678-1.269,1.43-1.96,2.3-3.783,4.729-8.049,12.642-10.827,23.184-5.7,21.036-5.755,51.9,2.516,84.014a185.64,185.64,0,0,0,16.969,43.458c6.968,12.605,15.192,22.946,23.539,30.025a57.547,57.547,0,0,0,20.262,11.59c.56-.128,1.121-.252,1.681-.392a57.6,57.6,0,0,1-20.248-13.065C721.714,255.975,714.269,245.612,707.9,233.131Z" transform="translate(-51.51 -38.853)"/>
    <path class="a6691191-01ca-48a7-8f12-756231ca309a" d="M734.646,259.575c-14.478-15.013-28.07-41.295-35.977-72.043a240.057,240.057,0,0,1-6.6-44.284c-.8-13.775-.344-26.258,1.384-36.527,1.662-10.283,4.826-18.247,8.085-23.093.6-.9,1.181-1.687,1.735-2.384-.293.063-.59.113-.886.169-.481.532-.976,1.106-1.491,1.757-3.723,4.667-7.591,12.635-9.922,23.057-2.4,10.408-3.5,23.134-3.166,37.193a207.424,207.424,0,0,0,5.972,45.358c8.093,31.516,23.262,58.03,39.094,72.593A64.6,64.6,0,0,0,754.018,275l.221.077c.363-.111.726-.233,1.091-.35-.326-.141-.657-.291-1.006-.45A66.471,66.471,0,0,1,734.646,259.575Z" transform="translate(-51.51 -38.853)"/>
    <path class="ba1d7b0f-38b2-455a-8a7b-ac8f933fe635" d="M621.139,206.454c-.2-.381-.4-.762-.6-1.147-.049-.094-.1-.191-.149-.287a8.51,8.51,0,0,1-.806-2.458l-83.8,30.139c-1.213.438-14.628,6.369-14.193,7.582s14.558-2.762,15.768-3.2l84.036-30.224A4.6,4.6,0,0,1,621.139,206.454Z" transform="translate(-51.51 -38.853)"/>
    <path class="ba1d7b0f-38b2-455a-8a7b-ac8f933fe635" d="M789.162,107.632l59.829-50.019A10.455,10.455,0,1,0,846,54.037L786.3,103.954C787.692,105.829,788.288,105.965,789.162,107.632Zm62.585-63.383a4.569,4.569,0,1,1,1.346,6.321A4.574,4.574,0,0,1,851.747,44.249Z" transform="translate(-51.51 -38.853)"/>
    <path class="ba1d7b0f-38b2-455a-8a7b-ac8f933fe635" d="M849.8,111.127a10.441,10.441,0,0,0-6.822,11.082l-30.292,10.9c.853,1.658.853,2.241,1.921,4.261l29.949-10.772a10.441,10.441,0,1,0,5.244-15.467Zm8.275,9.921a4.569,4.569,0,1,1-1.344-6.32A4.564,4.564,0,0,1,858.077,121.048Z" transform="translate(-51.51 -38.853)"/>
    <path class="ba1d7b0f-38b2-455a-8a7b-ac8f933fe635" d="M635.007,236.143c-.219-.293-.459-.569-.7-.845-.008-.008-.012-.019-.021-.028-.053-.062-.111-.116-.163-.181-.073-.092-.143-.188-.217-.283l-.066-.075h.006a15.167,15.167,0,0,1-1.4-2.147l-36.9,30.846c-.988.828-11.544,11.011-10.72,12s12.72-7.6,13.709-8.425L635.2,236.353c-.145-.176-.286-.356-.423-.542C634.853,235.923,634.931,236.033,635.007,236.143Z" transform="translate(-51.51 -38.853)"/>
  </g>
</svg>
